<?xml version="1.0" encoding="UTF-8" standalone="no"?>
<!DOCTYPE svg PUBLIC "-//W3C//DTD SVG 1.1//EN"
 "http://www.w3.org/Graphics/SVG/1.1/DTD/svg11.dtd">
<!-- Generated by graphviz version 2.43.0 (0)
 -->
<!-- Title: TcpReceiver::StartApplication Pages: 1 -->
<svg width="528pt" height="27pt"
 viewBox="0.00 0.00 528.00 27.00" xmlns="http://www.w3.org/2000/svg" xmlns:xlink="http://www.w3.org/1999/xlink">
<g id="graph0" class="graph" transform="scale(1 1) rotate(0) translate(4 23)">
<title>TcpReceiver::StartApplication</title>
<!-- Node1 -->
<g id="Node000001" class="node">
<title>Node1</title>
<g id="a_Node000001"><a xlink:title="Called when the application starts. Binds and listens on the socket.">
<polygon fill="#999999" stroke="#666666" points="159,-19 0,-19 0,0 159,0 159,-19"/>
<text text-anchor="middle" x="79.5" y="-7" font-family="Helvetica,sans-Serif" font-size="10.00">TcpReceiver::StartApplication</text>
</a>
</g>
</g>
<!-- Node2 -->
<g id="Node000002" class="node">
<title>Node2</title>
<g id="a_Node000002"><a xlink:href="classTcpReceiver.html#abd2527568f8c5e444bbae5c5f9fd0f66" target="_top" xlink:title="Accepts a new incoming connection.">
<polygon fill="white" stroke="#666666" points="344,-19 195,-19 195,0 344,0 344,-19"/>
<text text-anchor="middle" x="269.5" y="-7" font-family="Helvetica,sans-Serif" font-size="10.00">TcpReceiver::HandleAccept</text>
</a>
</g>
</g>
<!-- Node1&#45;&gt;Node2 -->
<g id="edge1_Node000001_Node000002" class="edge">
<title>Node1&#45;&gt;Node2</title>
<g id="a_edge1_Node000001_Node000002"><a xlink:title=" ">
<path fill="none" stroke="#63b8ff" d="M159.14,-9.5C167.67,-9.5 176.38,-9.5 184.97,-9.5"/>
<polygon fill="#63b8ff" stroke="#63b8ff" points="184.98,-13 194.98,-9.5 184.98,-6 184.98,-13"/>
</a>
</g>
</g>
<!-- Node3 -->
<g id="Node000003" class="node">
<title>Node3</title>
<g id="a_Node000003"><a xlink:href="classTcpReceiver.html#a7dc942659af18849e7f40413a67ba4dd" target="_top" xlink:title="Reads incoming data and logs it.">
<polygon fill="white" stroke="#666666" points="520,-19 380,-19 380,0 520,0 520,-19"/>
<text text-anchor="middle" x="450" y="-7" font-family="Helvetica,sans-Serif" font-size="10.00">TcpReceiver::HandleRead</text>
</a>
</g>
</g>
<!-- Node2&#45;&gt;Node3 -->
<g id="edge2_Node000002_Node000003" class="edge">
<title>Node2&#45;&gt;Node3</title>
<g id="a_edge2_Node000002_Node000003"><a xlink:title=" ">
<path fill="none" stroke="#63b8ff" d="M344.13,-9.5C352.53,-9.5 361.12,-9.5 369.59,-9.5"/>
<polygon fill="#63b8ff" stroke="#63b8ff" points="369.84,-13 379.84,-9.5 369.84,-6 369.84,-13"/>
</a>
</g>
</g>
</g>
</svg>
