<?xml version="1.0" encoding="UTF-8" standalone="no"?>
<!DOCTYPE svg PUBLIC "-//W3C//DTD SVG 1.1//EN"
 "http://www.w3.org/Graphics/SVG/1.1/DTD/svg11.dtd">
<!-- Generated by graphviz version 2.43.0 (0)
 -->
<!-- Title: ZtLogger::Log Pages: 1 -->
<!--zoomable 495 -->

<svg id="main" version="1.1" xmlns="http://www.w3.org/2000/svg" xmlns:xlink="http://www.w3.org/1999/xlink" xml:space="preserve" onload="init(evt)">
<style type="text/css"><![CDATA[
.node, .edge {opacity: 0.7;}
.node.selected, .edge.selected {opacity: 1;}
.edge:hover path { stroke: red; }
.edge:hover polygon { stroke: red; fill: red; }
]]></style>

<defs>
  <circle id="rim" cx="0" cy="0" r="7"/>
  <circle id="rim2" cx="0" cy="0" r="3.5"/>
  <g id="zoomPlus">
    <use xlink:href="#rim" fill="#404040"><set attributeName="fill" to="#808080" begin="zoomplus.mouseover" end="zoomplus.mouseout"/></use>
    <path d="M-4,0h8M0,-4v8" fill="none" stroke="white" stroke-width="1.5" pointer-events="none"/>
  </g>
  <g id="zoomMin">
    <use xlink:href="#rim" fill="#404040"><set attributeName="fill" to="#808080" begin="zoomminus.mouseover" end="zoomminus.mouseout"/></use>
    <path d="M-4,0h8" fill="none" stroke="white" stroke-width="1.5" pointer-events="none"/>
  </g>
  <g id="arrowUp" transform="translate(30 24)">
    <use xlink:href="#rim"/>
    <path pointer-events="none" fill="none" stroke="white" stroke-width="1.5" d="M0,-3.0v7 M-2.5,-0.5L0,-3.0L2.5,-0.5"/>
  </g>
  <g id="arrowRight" transform="rotate(90) translate(36 -43)">
    <use xlink:href="#rim"/>
    <path pointer-events="none" fill="none" stroke="white" stroke-width="1.5" d="M0,-3.0v7 M-2.5,-0.5L0,-3.0L2.5,-0.5"/>
  </g>
  <g id="arrowDown" transform="rotate(180) translate(-30 -48)">
    <use xlink:href="#rim"/>
    <path pointer-events="none" fill="none" stroke="white" stroke-width="1.5" d="M0,-3.0v7 M-2.5,-0.5L0,-3.0L2.5,-0.5"/>
  </g>
  <g id="arrowLeft" transform="rotate(270) translate(-36 17)">
    <use xlink:href="#rim"/>
    <path pointer-events="none" fill="none" stroke="white" stroke-width="1.5" d="M0,-3.0v7 M-2.5,-0.5L0,-3.0L2.5,-0.5"/>
  </g>
  <g id="resetDef">
    <use xlink:href="#rim2" fill="#404040"><set attributeName="fill" to="#808080" begin="reset.mouseover" end="reset.mouseout"/></use>
  </g>
</defs>
<script type="application/ecmascript">
var viewWidth = 942;
var viewHeight = 495;
var sectionId = 'dynsection-2';
</script>
<script type="application/ecmascript" xlink:href="svg.min.js"/>
<svg id="graph" class="graph">
<g id="viewport">
<title>ZtLogger::Log</title>
<!-- Node1 -->
<g id="Node000001" class="node">
<title>Node1</title>
<g id="a_Node000001"><a xlink:title="Logs a general message with a specified tag.">
<polygon fill="#999999" stroke="#666666" points="934,-255 851,-255 851,-236 934,-236 934,-255"/>
<text text-anchor="middle" x="892.5" y="-243" font-family="Helvetica,sans-Serif" font-size="10.00">ZtLogger::Log</text>
</a>
</g>
</g>
<!-- Node2 -->
<g id="Node000002" class="node">
<title>Node2</title>
<g id="a_Node000002"><a xlink:href="mitm-mitigation_8cc.html#a0c88ff0484e0651cb08fd5b6c4a3cbd2" target="_top" xlink:title="Simulates an attacker sending a spoofed plaintext message to the gateway without encryption.">
<polygon fill="white" stroke="#666666" points="562.5,-368 477.5,-368 477.5,-349 562.5,-349 562.5,-368"/>
<text text-anchor="middle" x="520" y="-356" font-family="Helvetica,sans-Serif" font-size="10.00">AttackerSpoof</text>
</a>
</g>
</g>
<!-- Node1&#45;&gt;Node2 -->
<g id="edge1_Node000001_Node000002" class="edge">
<title>Node1&#45;&gt;Node2</title>
<g id="a_edge1_Node000001_Node000002"><a xlink:title=" ">
<path fill="none" stroke="#63b8ff" d="M882.34,-264.32C870.32,-286.68 846.95,-323.03 815,-339.5 733.63,-381.46 622.31,-374.03 562.71,-365.77"/>
<polygon fill="#63b8ff" stroke="#63b8ff" points="885.59,-265.64 887.05,-255.15 879.37,-262.44 885.59,-265.64"/>
</a>
</g>
</g>
<!-- Node4 -->
<g id="Node000004" class="node">
<title>Node4</title>
<g id="a_Node000004"><a xlink:href="classSecureSinkApp.html#a3a672bd05d4399036c2f7fe92c205962" target="_top" xlink:title="Handle incoming packets, validate certificate, and decrypt authorized data.">
<polygon fill="white" stroke="#666666" points="597.5,-191 442.5,-191 442.5,-172 597.5,-172 597.5,-191"/>
<text text-anchor="middle" x="520" y="-179" font-family="Helvetica,sans-Serif" font-size="10.00">SecureSinkApp::HandleRead</text>
</a>
</g>
</g>
<!-- Node1&#45;&gt;Node4 -->
<g id="edge3_Node000001_Node000004" class="edge">
<title>Node1&#45;&gt;Node4</title>
<g id="a_edge3_Node000001_Node000004"><a xlink:title=" ">
<path fill="none" stroke="#63b8ff" d="M840.38,-245.51C790.32,-244.6 712.14,-240.69 646,-226.5 608.34,-218.42 566.62,-201.73 542.16,-191.1"/>
<polygon fill="#63b8ff" stroke="#63b8ff" points="840.57,-249.02 850.62,-245.67 840.67,-242.02 840.57,-249.02"/>
</a>
</g>
</g>
<!-- Node7 -->
<g id="Node000007" class="node">
<title>Node7</title>
<g id="a_Node000007"><a xlink:href="classSecureSink.html#a5987bbdb44f0b13e034968f6f836a61e" target="_top" xlink:title=" ">
<polygon fill="white" stroke="#666666" points="588,-143 452,-143 452,-124 588,-124 588,-143"/>
<text text-anchor="middle" x="520" y="-131" font-family="Helvetica,sans-Serif" font-size="10.00">SecureSink::HandleRead</text>
</a>
</g>
</g>
<!-- Node1&#45;&gt;Node7 -->
<g id="edge6_Node000001_Node000007" class="edge">
<title>Node1&#45;&gt;Node7</title>
<g id="a_edge6_Node000001_Node000007"><a xlink:title=" ">
<path fill="none" stroke="#63b8ff" d="M887.57,-226.07C879.93,-194.06 859.74,-131.13 815,-104.5 724.87,-50.86 591.13,-101.42 540.96,-123.94"/>
<polygon fill="#63b8ff" stroke="#63b8ff" points="884.19,-226.99 889.77,-236 891.02,-225.48 884.19,-226.99"/>
</a>
</g>
</g>
<!-- Node10 -->
<g id="Node000010" class="node">
<title>Node10</title>
<g id="a_Node000010"><a xlink:href="classZtLogger.html#a467e70148db6fc7fb134e1fa7496ca35" target="_top" xlink:title="Logs a certificate issuance event.">
<polygon fill="white" stroke="#666666" points="798,-293 663,-293 663,-274 798,-274 798,-293"/>
<text text-anchor="middle" x="730.5" y="-281" font-family="Helvetica,sans-Serif" font-size="10.00">ZtLogger::LogCertIssued</text>
</a>
</g>
</g>
<!-- Node1&#45;&gt;Node10 -->
<g id="edge9_Node000001_Node000010" class="edge">
<title>Node1&#45;&gt;Node10</title>
<g id="a_edge9_Node000001_Node000010"><a xlink:title=" ">
<path fill="none" stroke="#63b8ff" d="M841.11,-257.47C818.69,-262.79 792.65,-268.98 771.58,-273.98"/>
<polygon fill="#63b8ff" stroke="#63b8ff" points="842.2,-260.81 851.13,-255.09 840.59,-253.99 842.2,-260.81"/>
</a>
</g>
</g>
<!-- Node11 -->
<g id="Node000011" class="node">
<title>Node11</title>
<g id="a_Node000011"><a xlink:href="mitm-mitigation_8cc.html#a033167cc7a498741d454986f06be85cb" target="_top" xlink:title="Simulates a sensor device sending an encrypted payload to the gateway after policy and handshake vali...">
<polygon fill="white" stroke="#666666" points="569,-405 471,-405 471,-386 569,-386 569,-405"/>
<text text-anchor="middle" x="520" y="-393" font-family="Helvetica,sans-Serif" font-size="10.00">SendFromSensor</text>
</a>
</g>
</g>
<!-- Node1&#45;&gt;Node11 -->
<g id="edge33_Node000001_Node000011" class="edge">
<title>Node1&#45;&gt;Node11</title>
<g id="a_edge33_Node000001_Node000011"><a xlink:title=" ">
<path fill="none" stroke="#63b8ff" d="M885.8,-264.63C876.26,-292.97 854.12,-345.34 815,-369.5 739.24,-416.27 630.89,-411.53 569.08,-403.66"/>
<polygon fill="#63b8ff" stroke="#63b8ff" points="889.15,-265.65 888.85,-255.06 882.48,-263.52 889.15,-265.65"/>
</a>
</g>
</g>
<!-- Node13 -->
<g id="Node000013" class="node">
<title>Node13</title>
<g id="a_Node000013"><a xlink:href="classZtLogger.html#a1875b16f51cbdf5e27ef37ff3bf6b4f1" target="_top" xlink:title="Logs a rejected certificate attempt with a reason.">
<polygon fill="white" stroke="#666666" points="803.5,-444 657.5,-444 657.5,-425 803.5,-425 803.5,-444"/>
<text text-anchor="middle" x="730.5" y="-432" font-family="Helvetica,sans-Serif" font-size="10.00">ZtLogger::LogCertRejected</text>
</a>
</g>
</g>
<!-- Node1&#45;&gt;Node13 -->
<g id="edge13_Node000001_Node000013" class="edge">
<title>Node1&#45;&gt;Node13</title>
<g id="a_edge13_Node000001_Node000013"><a xlink:title=" ">
<path fill="none" stroke="#63b8ff" d="M887.89,-265.24C880.53,-299.87 860.44,-371.58 815,-410.5 807.67,-416.78 798.78,-421.42 789.58,-424.85"/>
<polygon fill="#63b8ff" stroke="#63b8ff" points="891.34,-265.88 889.86,-255.39 884.47,-264.51 891.34,-265.88"/>
</a>
</g>
</g>
<!-- Node14 -->
<g id="Node000014" class="node">
<title>Node14</title>
<g id="a_Node000014"><a xlink:href="classZtLogger.html#a469cc56e10c69104f7f88b6a3a3cfe0d" target="_top" xlink:title="Logs a certificate revocation event.">
<polygon fill="white" stroke="#666666" points="803.5,-56 657.5,-56 657.5,-37 803.5,-37 803.5,-56"/>
<text text-anchor="middle" x="730.5" y="-44" font-family="Helvetica,sans-Serif" font-size="10.00">ZtLogger::LogCertRevoked</text>
</a>
</g>
</g>
<!-- Node1&#45;&gt;Node14 -->
<g id="edge15_Node000001_Node000014" class="edge">
<title>Node1&#45;&gt;Node14</title>
<g id="a_edge15_Node000001_Node000014"><a xlink:title=" ">
<path fill="none" stroke="#63b8ff" d="M888.45,-225.62C881.84,-189.34 862.72,-112.29 815,-70.5 807.74,-64.14 798.89,-59.46 789.7,-56.02"/>
<polygon fill="#63b8ff" stroke="#63b8ff" points="885.07,-226.59 890.18,-235.87 891.97,-225.43 885.07,-226.59"/>
</a>
</g>
</g>
<!-- Node15 -->
<g id="Node000015" class="node">
<title>Node15</title>
<g id="a_Node000015"><a xlink:href="classZtLogger.html#a7cb7af75ab16a0546537b47c0ca9c72c" target="_top" xlink:title="Logs the result of certificate validation.">
<polygon fill="white" stroke="#666666" points="806.5,-217.5 654.5,-217.5 654.5,-187.5 806.5,-187.5 806.5,-217.5"/>
<text text-anchor="start" x="662.5" y="-205.5" font-family="Helvetica,sans-Serif" font-size="10.00">ZtLogger::LogCertValidation</text>
<text text-anchor="middle" x="730.5" y="-194.5" font-family="Helvetica,sans-Serif" font-size="10.00">Result</text>
</a>
</g>
</g>
<!-- Node1&#45;&gt;Node15 -->
<g id="edge16_Node000001_Node000015" class="edge">
<title>Node1&#45;&gt;Node15</title>
<g id="a_edge16_Node000001_Node000015"><a xlink:title=" ">
<path fill="none" stroke="#63b8ff" d="M846.17,-233.32C827.87,-228.4 806.58,-222.68 787.34,-217.51"/>
<polygon fill="#63b8ff" stroke="#63b8ff" points="845.43,-236.74 855.99,-235.96 847.24,-229.98 845.43,-236.74"/>
</a>
</g>
</g>
<!-- Node16 -->
<g id="Node000016" class="node">
<title>Node16</title>
<g id="a_Node000016"><a xlink:href="classZtLogger.html#a707c469faa37ed9db73c2183097b6dfb" target="_top" xlink:title="Logs a successful decryption event.">
<polygon fill="white" stroke="#666666" points="799,-169 662,-169 662,-150 799,-150 799,-169"/>
<text text-anchor="middle" x="730.5" y="-157" font-family="Helvetica,sans-Serif" font-size="10.00">ZtLogger::LogDecryption</text>
</a>
</g>
</g>
<!-- Node1&#45;&gt;Node16 -->
<g id="edge19_Node000001_Node000016" class="edge">
<title>Node1&#45;&gt;Node16</title>
<g id="a_edge19_Node000001_Node000016"><a xlink:title=" ">
<path fill="none" stroke="#63b8ff" d="M876.16,-227.82C861.86,-212.46 839.15,-190.81 815,-178.5 807.45,-174.65 799.12,-171.57 790.74,-169.12"/>
<polygon fill="#63b8ff" stroke="#63b8ff" points="873.89,-230.53 883.19,-235.6 879.08,-225.84 873.89,-230.53"/>
</a>
</g>
</g>
<!-- Node17 -->
<g id="Node000017" class="node">
<title>Node17</title>
<g id="a_Node000017"><a xlink:href="classZtLogger.html#aacf37e88e6a7076e227056e8d64f9876" target="_top" xlink:title="Logs a decryption failure event.">
<polygon fill="white" stroke="#666666" points="815,-132 646,-132 646,-113 815,-113 815,-132"/>
<text text-anchor="middle" x="730.5" y="-120" font-family="Helvetica,sans-Serif" font-size="10.00">ZtLogger::LogDecryptionFailure</text>
</a>
</g>
</g>
<!-- Node1&#45;&gt;Node17 -->
<g id="edge22_Node000001_Node000017" class="edge">
<title>Node1&#45;&gt;Node17</title>
<g id="a_edge22_Node000001_Node000017"><a xlink:title=" ">
<path fill="none" stroke="#63b8ff" d="M882.89,-226.64C871.06,-202.94 847.5,-162.8 815,-141.5 809.16,-137.67 802.64,-134.61 795.9,-132.16"/>
<polygon fill="#63b8ff" stroke="#63b8ff" points="879.88,-228.46 887.36,-235.96 886.19,-225.43 879.88,-228.46"/>
</a>
</g>
</g>
<!-- Node18 -->
<g id="Node000018" class="node">
<title>Node18</title>
<g id="a_Node000018"><a xlink:href="classZtLogger.html#ac3f4de629944eec6b0befaf1fcbdce7d" target="_top" xlink:title="Logs an encryption event with payload and IV.">
<polygon fill="white" stroke="#666666" points="798,-330 663,-330 663,-311 798,-311 798,-330"/>
<text text-anchor="middle" x="730.5" y="-318" font-family="Helvetica,sans-Serif" font-size="10.00">ZtLogger::LogEncryption</text>
</a>
</g>
</g>
<!-- Node1&#45;&gt;Node18 -->
<g id="edge25_Node000001_Node000018" class="edge">
<title>Node1&#45;&gt;Node18</title>
<g id="a_edge25_Node000001_Node000018"><a xlink:title=" ">
<path fill="none" stroke="#63b8ff" d="M873.8,-262.19C859.14,-275.1 837.19,-292.42 815,-302.5 807.44,-305.93 799.19,-308.73 790.92,-311"/>
<polygon fill="#63b8ff" stroke="#63b8ff" points="876.47,-264.49 881.53,-255.19 871.77,-259.31 876.47,-264.49"/>
</a>
</g>
</g>
<!-- Node20 -->
<g id="Node000020" class="node">
<title>Node20</title>
<g id="a_Node000020"><a xlink:href="mitm-mitigation_8cc.html#a6898e3febd567849e1a7310597beb21f" target="_top" xlink:title="Receives an encrypted packet at the gateway and performs decryption and validation.">
<polygon fill="white" stroke="#666666" points="575,-462 465,-462 465,-443 575,-443 575,-462"/>
<text text-anchor="middle" x="520" y="-450" font-family="Helvetica,sans-Serif" font-size="10.00">ReceiveAtGateway</text>
</a>
</g>
</g>
<!-- Node1&#45;&gt;Node20 -->
<g id="edge29_Node000001_Node000020" class="edge">
<title>Node1&#45;&gt;Node20</title>
<g id="a_edge29_Node000001_Node000020"><a xlink:title=" ">
<path fill="none" stroke="#63b8ff" d="M891.16,-265.2C889.21,-308.1 877.86,-409.64 815,-453.5 732.95,-510.74 604.2,-479.75 548.36,-462.07"/>
<polygon fill="#63b8ff" stroke="#63b8ff" points="894.65,-265.29 891.48,-255.19 887.66,-265.07 894.65,-265.29"/>
</a>
</g>
</g>
<!-- Node21 -->
<g id="Node000021" class="node">
<title>Node21</title>
<g id="a_Node000021"><a xlink:href="classAttackerApp.html#a81ac032ce9d3d13c9dc57ff3b90e188f" target="_top" xlink:title=" ">
<polygon fill="white" stroke="#666666" points="794.5,-19 666.5,-19 666.5,0 794.5,0 794.5,-19"/>
<text text-anchor="middle" x="730.5" y="-7" font-family="Helvetica,sans-Serif" font-size="10.00">AttackerApp::SendFake</text>
</a>
</g>
</g>
<!-- Node1&#45;&gt;Node21 -->
<g id="edge31_Node000001_Node000021" class="edge">
<title>Node1&#45;&gt;Node21</title>
<g id="a_edge31_Node000001_Node000021"><a xlink:title=" ">
<path fill="none" stroke="#63b8ff" d="M890.72,-225.87C887.91,-182.95 874.92,-80.35 815,-27.5 809.11,-22.3 802.07,-18.48 794.63,-15.7"/>
<polygon fill="#63b8ff" stroke="#63b8ff" points="887.23,-226.07 891.26,-235.87 894.22,-225.7 887.23,-226.07"/>
</a>
</g>
</g>
<!-- Node3 -->
<g id="Node000003" class="node">
<title>Node3</title>
<g id="a_Node000003"><a xlink:href="mitm-mitigation_8cc.html#a0ddf1224851353fc92bfbff6f499fa97" target="_top" xlink:title="Main entry point for the simulation. Sets up network topology, installs security components,...">
<polygon fill="white" stroke="#666666" points="322,-405 281,-405 281,-386 322,-386 322,-405"/>
<text text-anchor="middle" x="301.5" y="-393" font-family="Helvetica,sans-Serif" font-size="10.00">main</text>
</a>
</g>
</g>
<!-- Node2&#45;&gt;Node3 -->
<g id="edge2_Node000002_Node000003" class="edge">
<title>Node2&#45;&gt;Node3</title>
<g id="a_edge2_Node000002_Node000003"><a xlink:title=" ">
<path fill="none" stroke="#63b8ff" d="M467.32,-367.33C420.68,-375.3 354.53,-386.61 322.05,-392.16"/>
<polygon fill="#63b8ff" stroke="#63b8ff" points="467.99,-370.77 477.26,-365.63 466.81,-363.87 467.99,-370.77"/>
</a>
</g>
</g>
<!-- Node5 -->
<g id="Node000005" class="node">
<title>Node5</title>
<g id="a_Node000005"><a xlink:href="classSecureSinkApp.html#a5ee6aadf29ff1a4560e160520bba0030" target="_top" xlink:title=" ">
<polygon fill="white" stroke="#666666" points="383,-191 220,-191 220,-172 383,-172 383,-191"/>
<text text-anchor="middle" x="301.5" y="-179" font-family="Helvetica,sans-Serif" font-size="10.00">SecureSinkApp::HandleAccept</text>
</a>
</g>
</g>
<!-- Node4&#45;&gt;Node5 -->
<g id="edge4_Node000004_Node000005" class="edge">
<title>Node4&#45;&gt;Node5</title>
<g id="a_edge4_Node000004_Node000005"><a xlink:title=" ">
<path fill="none" stroke="#63b8ff" d="M432.34,-181.5C416.08,-181.5 399.13,-181.5 383.06,-181.5"/>
<polygon fill="#63b8ff" stroke="#63b8ff" points="432.37,-185 442.37,-181.5 432.37,-178 432.37,-185"/>
</a>
</g>
</g>
<!-- Node6 -->
<g id="Node000006" class="node">
<title>Node6</title>
<g id="a_Node000006"><a xlink:href="classSecureSinkApp.html#ac45868eb53a9a2e9d12e46f355731811" target="_top" xlink:title=" ">
<polygon fill="white" stroke="#666666" points="173,-191 0,-191 0,-172 173,-172 173,-191"/>
<text text-anchor="middle" x="86.5" y="-179" font-family="Helvetica,sans-Serif" font-size="10.00">SecureSinkApp::StartApplication</text>
</a>
</g>
</g>
<!-- Node5&#45;&gt;Node6 -->
<g id="edge5_Node000005_Node000006" class="edge">
<title>Node5&#45;&gt;Node6</title>
<g id="a_edge5_Node000005_Node000006"><a xlink:title=" ">
<path fill="none" stroke="#63b8ff" d="M209.83,-181.5C197.65,-181.5 185.2,-181.5 173.11,-181.5"/>
<polygon fill="#63b8ff" stroke="#63b8ff" points="209.97,-185 219.97,-181.5 209.97,-178 209.97,-185"/>
</a>
</g>
</g>
<!-- Node8 -->
<g id="Node000008" class="node">
<title>Node8</title>
<g id="a_Node000008"><a xlink:href="classSecureSink.html#a5e00071e0d8327c46c34d2ffdbc386bc" target="_top" xlink:title=" ">
<polygon fill="white" stroke="#666666" points="373.5,-143 229.5,-143 229.5,-124 373.5,-124 373.5,-143"/>
<text text-anchor="middle" x="301.5" y="-131" font-family="Helvetica,sans-Serif" font-size="10.00">SecureSink::HandleAccept</text>
</a>
</g>
</g>
<!-- Node7&#45;&gt;Node8 -->
<g id="edge7_Node000007_Node000008" class="edge">
<title>Node7&#45;&gt;Node8</title>
<g id="a_edge7_Node000007_Node000008"><a xlink:title=" ">
<path fill="none" stroke="#63b8ff" d="M441.92,-133.5C419.7,-133.5 395.55,-133.5 373.7,-133.5"/>
<polygon fill="#63b8ff" stroke="#63b8ff" points="441.98,-137 451.98,-133.5 441.98,-130 441.98,-137"/>
</a>
</g>
</g>
<!-- Node9 -->
<g id="Node000009" class="node">
<title>Node9</title>
<g id="a_Node000009"><a xlink:href="classSecureSink.html#ad09b7203b04b80cb3a8c89eb9174fbd2" target="_top" xlink:title=" ">
<polygon fill="white" stroke="#666666" points="164,-143 9,-143 9,-124 164,-124 164,-143"/>
<text text-anchor="middle" x="86.5" y="-131" font-family="Helvetica,sans-Serif" font-size="10.00">SecureSink::StartApplication</text>
</a>
</g>
</g>
<!-- Node8&#45;&gt;Node9 -->
<g id="edge8_Node000008_Node000009" class="edge">
<title>Node8&#45;&gt;Node9</title>
<g id="a_edge8_Node000008_Node000009"><a xlink:title=" ">
<path fill="none" stroke="#63b8ff" d="M219.08,-133.5C201.04,-133.5 181.98,-133.5 164.14,-133.5"/>
<polygon fill="#63b8ff" stroke="#63b8ff" points="219.28,-137 229.28,-133.5 219.28,-130 219.28,-137"/>
</a>
</g>
</g>
<!-- Node10&#45;&gt;Node11 -->
<g id="edge10_Node000010_Node000011" class="edge">
<title>Node10&#45;&gt;Node11</title>
<g id="a_edge10_Node000010_Node000011"><a xlink:title=" ">
<path fill="none" stroke="#63b8ff" d="M653.7,-297.25C651,-298.83 648.42,-300.57 646,-302.5 617.1,-325.56 639.18,-354.79 610,-377.5 598.43,-386.51 583.52,-391.34 569.23,-393.85"/>
<polygon fill="#63b8ff" stroke="#63b8ff" points="655.26,-300.38 662.65,-292.79 652.14,-294.12 655.26,-300.38"/>
</a>
</g>
</g>
<!-- Node12 -->
<g id="Node000012" class="node">
<title>Node12</title>
<g id="a_Node000012"><a xlink:href="classSecureSensorApp.html#a05e3604df4cc65de733f672b33e33ee5" target="_top" xlink:title=" ">
<polygon fill="white" stroke="#666666" points="394,-311 209,-311 209,-292 394,-292 394,-311"/>
<text text-anchor="middle" x="301.5" y="-299" font-family="Helvetica,sans-Serif" font-size="10.00">SecureSensorApp::StartApplication</text>
</a>
</g>
</g>
<!-- Node10&#45;&gt;Node12 -->
<g id="edge12_Node000010_Node000012" class="edge">
<title>Node10&#45;&gt;Node12</title>
<g id="a_edge12_Node000010_Node000012"><a xlink:title=" ">
<path fill="none" stroke="#63b8ff" d="M652.79,-286.73C580.21,-289.79 471.21,-294.39 394.1,-297.64"/>
<polygon fill="#63b8ff" stroke="#63b8ff" points="652.94,-290.23 662.78,-286.31 652.64,-283.24 652.94,-290.23"/>
</a>
</g>
</g>
<!-- Node11&#45;&gt;Node3 -->
<g id="edge11_Node000011_Node000003" class="edge">
<title>Node11&#45;&gt;Node3</title>
<g id="a_edge11_Node000011_Node000003"><a xlink:title=" ">
<path fill="none" stroke="#63b8ff" d="M460.79,-395.5C414.76,-395.5 353.24,-395.5 322.19,-395.5"/>
<polygon fill="#63b8ff" stroke="#63b8ff" points="460.95,-399 470.95,-395.5 460.95,-392 460.95,-399"/>
</a>
</g>
</g>
<!-- Node13&#45;&gt;Node11 -->
<g id="edge14_Node000013_Node000011" class="edge">
<title>Node13&#45;&gt;Node11</title>
<g id="a_edge14_Node000013_Node000011"><a xlink:title=" ">
<path fill="none" stroke="#63b8ff" d="M668.48,-423.09C636.89,-417.18 598.86,-410.06 569.33,-404.54"/>
<polygon fill="#63b8ff" stroke="#63b8ff" points="668.02,-426.56 678.5,-424.96 669.31,-419.68 668.02,-426.56"/>
</a>
</g>
</g>
<!-- Node15&#45;&gt;Node4 -->
<g id="edge17_Node000015_Node000004" class="edge">
<title>Node15&#45;&gt;Node4</title>
<g id="a_edge17_Node000015_Node000004"><a xlink:title=" ">
<path fill="none" stroke="#63b8ff" d="M644.18,-193.91C628.74,-192.35 612.73,-190.74 597.56,-189.21"/>
<polygon fill="#63b8ff" stroke="#63b8ff" points="643.93,-197.4 654.23,-194.92 644.63,-190.43 643.93,-197.4"/>
</a>
</g>
</g>
<!-- Node15&#45;&gt;Node7 -->
<g id="edge18_Node000015_Node000007" class="edge">
<title>Node15&#45;&gt;Node7</title>
<g id="a_edge18_Node000015_Node000007"><a xlink:title=" ">
<path fill="none" stroke="#63b8ff" d="M663.95,-184.44C657.85,-182.52 651.79,-180.53 646,-178.5 629.64,-172.76 626.22,-169.61 610,-163.5 590.62,-156.21 568.56,-148.77 551.26,-143.12"/>
<polygon fill="#63b8ff" stroke="#63b8ff" points="662.94,-187.79 673.52,-187.37 664.99,-181.1 662.94,-187.79"/>
</a>
</g>
</g>
<!-- Node16&#45;&gt;Node4 -->
<g id="edge20_Node000016_Node000004" class="edge">
<title>Node16&#45;&gt;Node4</title>
<g id="a_edge20_Node000016_Node000004"><a xlink:title=" ">
<path fill="none" stroke="#63b8ff" d="M651.58,-167.72C633.98,-169.58 615.31,-171.55 597.75,-173.4"/>
<polygon fill="#63b8ff" stroke="#63b8ff" points="652.23,-171.17 661.81,-166.64 651.49,-164.21 652.23,-171.17"/>
</a>
</g>
</g>
<!-- Node16&#45;&gt;Node7 -->
<g id="edge21_Node000016_Node000007" class="edge">
<title>Node16&#45;&gt;Node7</title>
<g id="a_edge21_Node000016_Node000007"><a xlink:title=" ">
<path fill="none" stroke="#63b8ff" d="M651.72,-149.8C630.9,-147.2 608.56,-144.42 588.35,-141.9"/>
<polygon fill="#63b8ff" stroke="#63b8ff" points="651.45,-153.29 661.81,-151.06 652.32,-146.35 651.45,-153.29"/>
</a>
</g>
</g>
<!-- Node17&#45;&gt;Node4 -->
<g id="edge23_Node000017_Node000004" class="edge">
<title>Node17&#45;&gt;Node4</title>
<g id="a_edge23_Node000017_Node000004"><a xlink:title=" ">
<path fill="none" stroke="#63b8ff" d="M674.46,-134.32C664.93,-136.56 655.15,-139 646,-141.5 636.63,-144.06 584.29,-160.95 550.38,-171.95"/>
<polygon fill="#63b8ff" stroke="#63b8ff" points="675.3,-137.71 684.26,-132.05 673.72,-130.9 675.3,-137.71"/>
</a>
</g>
</g>
<!-- Node17&#45;&gt;Node7 -->
<g id="edge24_Node000017_Node000007" class="edge">
<title>Node17&#45;&gt;Node7</title>
<g id="a_edge24_Node000017_Node000007"><a xlink:title=" ">
<path fill="none" stroke="#63b8ff" d="M635.5,-127.46C619.58,-128.3 603.34,-129.16 588.28,-129.95"/>
<polygon fill="#63b8ff" stroke="#63b8ff" points="636.09,-130.93 645.9,-126.91 635.73,-123.94 636.09,-130.93"/>
</a>
</g>
</g>
<!-- Node18&#45;&gt;Node11 -->
<g id="edge28_Node000018_Node000011" class="edge">
<title>Node18&#45;&gt;Node11</title>
<g id="a_edge28_Node000018_Node000011"><a xlink:title=" ">
<path fill="none" stroke="#63b8ff" d="M703.61,-335.14C679.91,-347.98 643.53,-366.3 610,-377.5 596.99,-381.84 582.55,-385.31 569.14,-388"/>
<polygon fill="#63b8ff" stroke="#63b8ff" points="705.56,-338.06 712.64,-330.18 702.19,-331.93 705.56,-338.06"/>
</a>
</g>
</g>
<!-- Node19 -->
<g id="Node000019" class="node">
<title>Node19</title>
<g id="a_Node000019"><a xlink:href="classSecureSensorApp.html#abcf992d1e14b78f97e8755ee1cd7537a" target="_top" xlink:title="Encrypt and send sensor data using session key.">
<polygon fill="white" stroke="#666666" points="610,-330 430,-330 430,-311 610,-311 610,-330"/>
<text text-anchor="middle" x="520" y="-318" font-family="Helvetica,sans-Serif" font-size="10.00">SecureSensorApp::SendEncrypted</text>
</a>
</g>
</g>
<!-- Node18&#45;&gt;Node19 -->
<g id="edge26_Node000018_Node000019" class="edge">
<title>Node18&#45;&gt;Node19</title>
<g id="a_edge26_Node000018_Node000019"><a xlink:title=" ">
<path fill="none" stroke="#63b8ff" d="M652.95,-320.5C639.02,-320.5 624.38,-320.5 610.12,-320.5"/>
<polygon fill="#63b8ff" stroke="#63b8ff" points="652.96,-324 662.96,-320.5 652.96,-317 652.96,-324"/>
</a>
</g>
</g>
<!-- Node19&#45;&gt;Node12 -->
<g id="edge27_Node000019_Node000012" class="edge">
<title>Node19&#45;&gt;Node12</title>
<g id="a_edge27_Node000019_Node000012"><a xlink:title=" ">
<path fill="none" stroke="#63b8ff" d="M419.7,-311.79C411.16,-311.04 402.54,-310.28 394.05,-309.53"/>
<polygon fill="#63b8ff" stroke="#63b8ff" points="419.42,-315.27 429.69,-312.66 420.04,-308.3 419.42,-315.27"/>
</a>
</g>
</g>
<!-- Node20&#45;&gt;Node3 -->
<g id="edge30_Node000020_Node000003" class="edge">
<title>Node20&#45;&gt;Node3</title>
<g id="a_edge30_Node000020_Node000003"><a xlink:title=" ">
<path fill="none" stroke="#63b8ff" d="M472.88,-440.36C426.19,-428.06 356.17,-409.63 322.28,-400.71"/>
<polygon fill="#63b8ff" stroke="#63b8ff" points="472.2,-443.8 482.76,-442.96 473.98,-437.03 472.2,-443.8"/>
</a>
</g>
</g>
<!-- Node22 -->
<g id="Node000022" class="node">
<title>Node22</title>
<g id="a_Node000022"><a xlink:href="classAttackerApp.html#aa3374dfde1cd586dc6f31fb17302469e" target="_top" xlink:title=" ">
<polygon fill="white" stroke="#666666" points="600,-19 440,-19 440,0 600,0 600,-19"/>
<text text-anchor="middle" x="520" y="-7" font-family="Helvetica,sans-Serif" font-size="10.00">AttackerApp::StartApplication</text>
</a>
</g>
</g>
<!-- Node21&#45;&gt;Node22 -->
<g id="edge32_Node000021_Node000022" class="edge">
<title>Node21&#45;&gt;Node22</title>
<g id="a_edge32_Node000021_Node000022"><a xlink:title=" ">
<path fill="none" stroke="#63b8ff" d="M656.17,-9.5C638.04,-9.5 618.54,-9.5 600.15,-9.5"/>
<polygon fill="#63b8ff" stroke="#63b8ff" points="656.38,-13 666.38,-9.5 656.38,-6 656.38,-13"/>
</a>
</g>
</g>
</g>
</svg>

<g id="navigator" transform="translate(0 0)" fill="#404254">
  <rect fill="#f2f5e9" fill-opacity="0.5" stroke="#606060" stroke-width=".5" x="0" y="0" width="60" height="60"/>
  <use id="zoomplus" xlink:href="#zoomPlus" x="17" y="9" onmousedown="handleZoom(evt,'in')"/>
  <use id="zoomminus" xlink:href="#zoomMin" x="42" y="9" onmousedown="handleZoom(evt,'out')"/>
  <use id="reset" xlink:href="#resetDef" x="30" y="36" onmousedown="handleReset()"/>
   <use id="arrowup" xlink:href="#arrowUp" x="0" y="0" onmousedown="handlePan(0,-1)"/>
  <use id="arrowright" xlink:href="#arrowRight" x="0" y="0" onmousedown="handlePan(1,0)"/>
  <use id="arrowdown" xlink:href="#arrowDown" x="0" y="0" onmousedown="handlePan(0,1)"/>
  <use id="arrowleft" xlink:href="#arrowLeft" x="0" y="0" onmousedown="handlePan(-1,0)"/>
</g>
<svg viewBox="0 0 15 15" width="100%" height="30px" preserveAspectRatio="xMaxYMin meet">
 <g id="arrow_out" transform="scale(0.3 0.3)">
  <a xlink:href="classZtLogger_ab4743f29e35568cb7e4652d3b012061d_icgraph_org.svg" target="_base">
   <rect id="button" ry="5" rx="5" y="6" x="6" height="38" width="38"
        fill="#f2f5e9" fill-opacity="0.5" stroke="#606060" stroke-width="1.0"/>
   <path id="arrow"
     d="M 11.500037,31.436501 C 11.940474,20.09759 22.043105,11.32322 32.158766,21.979434 L 37.068811,17.246167 C 37.068811,17.246167 37.088388,32 37.088388,32 L 22.160133,31.978069 C 22.160133,31.978069 26.997745,27.140456 26.997745,27.140456 C 18.528582,18.264221 13.291696,25.230495 11.500037,31.436501 z"
     style="fill:#404040;"/>
  </a>
 </g>
</svg>

<style type='text/css'>
<![CDATA[
[data-mouse-over-selected='false'] { opacity: 0.7; }
[data-mouse-over-selected='true']  { opacity: 1.0; }
]]>
</style>
<script type="application/ecmascript"><![CDATA[
document.addEventListener('DOMContentLoaded', (event) => {
  highlightEdges();
  highlightAdjacentNodes();
});
]]></script>
</svg>
