<?xml version="1.0" encoding="UTF-8" standalone="no"?>
<!DOCTYPE svg PUBLIC "-//W3C//DTD SVG 1.1//EN"
 "http://www.w3.org/Graphics/SVG/1.1/DTD/svg11.dtd">
<!-- Generated by graphviz version 2.43.0 (0)
 -->
<!-- Title: TcpReceiver Pages: 1 -->
<svg width="115pt" height="217pt"
 viewBox="0.00 0.00 115.00 217.00" xmlns="http://www.w3.org/2000/svg" xmlns:xlink="http://www.w3.org/1999/xlink">

<svg id="main" version="1.1" xmlns="http://www.w3.org/2000/svg" xmlns:xlink="http://www.w3.org/1999/xlink" xml:space="preserve" onload="init(evt)">
<style type="text/css"><![CDATA[
.node, .edge {opacity: 0.7;}
.node.selected, .edge.selected {opacity: 1;}
.edge:hover path { stroke: red; }
.edge:hover polygon { stroke: red; fill: red; }
]]></style>
<script type="application/ecmascript" xlink:href="svg.min.js"/>
<svg id="graph" class="graph">
<g id="graph0" class="graph" transform="scale(1 1) rotate(0) translate(4 213)">
<title>TcpReceiver</title>
<!-- Node1 -->
<g id="Node000001" class="node">
<title>Node1</title>
<g id="a_Node000001"><a xlink:title="A simple TCP server application that receives and logs incoming messages.">
<polygon fill="#999999" stroke="transparent" points="107,-124 0,-124 0,0 107,0 107,-124"/>
<text text-anchor="start" x="24.5" y="-112" font-family="Helvetica,sans-Serif" font-size="10.00">TcpReceiver</text>
<text text-anchor="start" x="7" y="-97" font-family="Helvetica,sans-Serif" font-size="10.00">&#45;</text>
<text text-anchor="start" x="17.5" y="-97" font-family="Helvetica,sans-Serif" font-size="10.00">socket</text>
<text text-anchor="start" x="7" y="-82" font-family="Helvetica,sans-Serif" font-size="10.00">&#45;</text>
<text text-anchor="start" x="17.5" y="-82" font-family="Helvetica,sans-Serif" font-size="10.00">local</text>
<text text-anchor="start" x="4.5" y="-67" font-family="Helvetica,sans-Serif" font-size="10.00">+</text>
<text text-anchor="start" x="17.5" y="-67" font-family="Helvetica,sans-Serif" font-size="10.00">Setup()</text>
<text text-anchor="start" x="7" y="-52" font-family="Helvetica,sans-Serif" font-size="10.00">&#45;</text>
<text text-anchor="start" x="17.5" y="-52" font-family="Helvetica,sans-Serif" font-size="10.00">StartApplication()</text>
<text text-anchor="start" x="7" y="-37" font-family="Helvetica,sans-Serif" font-size="10.00">&#45;</text>
<text text-anchor="start" x="17.5" y="-37" font-family="Helvetica,sans-Serif" font-size="10.00">HandleAccept()</text>
<text text-anchor="start" x="7" y="-22" font-family="Helvetica,sans-Serif" font-size="10.00">&#45;</text>
<text text-anchor="start" x="17.5" y="-22" font-family="Helvetica,sans-Serif" font-size="10.00">HandleRead()</text>
<text text-anchor="start" x="7" y="-7" font-family="Helvetica,sans-Serif" font-size="10.00">&#45;</text>
<text text-anchor="start" x="17.5" y="-7" font-family="Helvetica,sans-Serif" font-size="10.00">StopApplication()</text>
<polygon fill="#666666" stroke="#666666" points="0.5,-107 0.5,-107 107.5,-107 107.5,-107 0.5,-107"/>
<polygon fill="#666666" stroke="#666666" points="0.5,-77 0.5,-77 15.5,-77 15.5,-77 0.5,-77"/>
<polygon fill="#666666" stroke="#666666" points="15.5,-77 15.5,-77 107.5,-77 107.5,-77 15.5,-77"/>
<polygon fill="none" stroke="#666666" points="0,0 0,-124 107,-124 107,0 0,0"/>
</a>
</g>
</g>
<!-- Node2 -->
<g id="Node000002" class="node">
<title>Node2</title>
<g id="a_Node000002"><a xlink:title=" ">
<polygon fill="white" stroke="transparent" points="86,-209 21,-209 21,-160 86,-160 86,-209"/>
<text text-anchor="start" x="26.5" y="-196.5" font-family="Helvetica,sans-Serif" font-size="10.00">Application</text>
<text text-anchor="start" x="52" y="-181.5" font-family="Helvetica,sans-Serif" font-size="10.00"> </text>
<text text-anchor="start" x="52" y="-166.5" font-family="Helvetica,sans-Serif" font-size="10.00"> </text>
<polygon fill="#666666" stroke="#666666" points="21.5,-191.5 21.5,-191.5 86.5,-191.5 86.5,-191.5 21.5,-191.5"/>
<polygon fill="#666666" stroke="#666666" points="21.5,-176.5 21.5,-176.5 86.5,-176.5 86.5,-176.5 21.5,-176.5"/>
<polygon fill="none" stroke="#666666" points="21,-160 21,-209 86,-209 86,-160 21,-160"/>
</a>
</g>
</g>
<!-- Node2&#45;&gt;Node1 -->
<g id="edge1_Node000001_Node000002" class="edge">
<title>Node2&#45;&gt;Node1</title>
<g id="a_edge1_Node000001_Node000002"><a xlink:title=" ">
<path fill="none" stroke="#63b8ff" d="M53.5,-149.94C53.5,-141.91 53.5,-133.08 53.5,-124.23"/>
<polygon fill="none" stroke="#63b8ff" points="50,-149.98 53.5,-159.98 57,-149.98 50,-149.98"/>
</a>
</g>
</g>
</g>
</svg>
</svg>

<style type='text/css'>
<![CDATA[
[data-mouse-over-selected='false'] { opacity: 0.7; }
[data-mouse-over-selected='true']  { opacity: 1.0; }
]]>
</style>
<script type="application/ecmascript"><![CDATA[
document.addEventListener('DOMContentLoaded', (event) => {
  highlightEdges();
  highlightAdjacentNodes();
});
]]></script>
</svg>
