<?xml version="1.0" encoding="UTF-8" standalone="no"?>
<!DOCTYPE svg PUBLIC "-//W3C//DTD SVG 1.1//EN"
 "http://www.w3.org/Graphics/SVG/1.1/DTD/svg11.dtd">
<!-- Generated by graphviz version 2.43.0 (0)
 -->
<!-- Title: ZtLogger::LogCertIssued Pages: 1 -->
<svg width="441pt" height="64pt"
 viewBox="0.00 0.00 441.00 64.00" xmlns="http://www.w3.org/2000/svg" xmlns:xlink="http://www.w3.org/1999/xlink">
<g id="graph0" class="graph" transform="scale(1 1) rotate(0) translate(4 60)">
<title>ZtLogger::LogCertIssued</title>
<!-- Node1 -->
<g id="Node000001" class="node">
<title>Node1</title>
<g id="a_Node000001"><a xlink:title="Logs a certificate issuance event.">
<polygon fill="#999999" stroke="#666666" points="433,-37 298,-37 298,-18 433,-18 433,-37"/>
<text text-anchor="middle" x="365.5" y="-25" font-family="Helvetica,sans-Serif" font-size="10.00">ZtLogger::LogCertIssued</text>
</a>
</g>
</g>
<!-- Node2 -->
<g id="Node000002" class="node">
<title>Node2</title>
<g id="a_Node000002"><a xlink:href="mitm-mitigation_8cc.html#a033167cc7a498741d454986f06be85cb" target="_top" xlink:title="Simulates a sensor device sending an encrypted payload to the gateway after policy and handshake vali...">
<polygon fill="white" stroke="#666666" points="218.5,-56 120.5,-56 120.5,-37 218.5,-37 218.5,-56"/>
<text text-anchor="middle" x="169.5" y="-44" font-family="Helvetica,sans-Serif" font-size="10.00">SendFromSensor</text>
</a>
</g>
</g>
<!-- Node1&#45;&gt;Node2 -->
<g id="edge1_Node000001_Node000002" class="edge">
<title>Node1&#45;&gt;Node2</title>
<g id="a_edge1_Node000001_Node000002"><a xlink:title=" ">
<path fill="none" stroke="#63b8ff" d="M287.55,-35.04C264.32,-37.31 239.49,-39.74 218.71,-41.78"/>
<polygon fill="#63b8ff" stroke="#63b8ff" points="288.13,-38.5 297.74,-34.04 287.44,-31.53 288.13,-38.5"/>
</a>
</g>
</g>
<!-- Node4 -->
<g id="Node000004" class="node">
<title>Node4</title>
<g id="a_Node000004"><a xlink:href="classSecureSensorApp.html#a05e3604df4cc65de733f672b33e33ee5" target="_top" xlink:title=" ">
<polygon fill="white" stroke="#666666" points="262,-19 77,-19 77,0 262,0 262,-19"/>
<text text-anchor="middle" x="169.5" y="-7" font-family="Helvetica,sans-Serif" font-size="10.00">SecureSensorApp::StartApplication</text>
</a>
</g>
</g>
<!-- Node1&#45;&gt;Node4 -->
<g id="edge3_Node000001_Node000004" class="edge">
<title>Node1&#45;&gt;Node4</title>
<g id="a_edge3_Node000001_Node000004"><a xlink:title=" ">
<path fill="none" stroke="#63b8ff" d="M287.62,-20.37C279.22,-19.59 270.61,-18.79 262.06,-18"/>
<polygon fill="#63b8ff" stroke="#63b8ff" points="287.46,-23.87 297.74,-21.31 288.1,-16.9 287.46,-23.87"/>
</a>
</g>
</g>
<!-- Node3 -->
<g id="Node000003" class="node">
<title>Node3</title>
<g id="a_Node000003"><a xlink:href="mitm-mitigation_8cc.html#a0ddf1224851353fc92bfbff6f499fa97" target="_top" xlink:title="Main entry point for the simulation. Sets up network topology, installs security components,...">
<polygon fill="white" stroke="#666666" points="41,-56 0,-56 0,-37 41,-37 41,-56"/>
<text text-anchor="middle" x="20.5" y="-44" font-family="Helvetica,sans-Serif" font-size="10.00">main</text>
</a>
</g>
</g>
<!-- Node2&#45;&gt;Node3 -->
<g id="edge2_Node000002_Node000003" class="edge">
<title>Node2&#45;&gt;Node3</title>
<g id="a_edge2_Node000002_Node000003"><a xlink:title=" ">
<path fill="none" stroke="#63b8ff" d="M110.05,-46.5C85.55,-46.5 58.73,-46.5 41.1,-46.5"/>
<polygon fill="#63b8ff" stroke="#63b8ff" points="110.37,-50 120.37,-46.5 110.37,-43 110.37,-50"/>
</a>
</g>
</g>
</g>
</svg>
