<?xml version="1.0" encoding="UTF-8" standalone="no"?>
<!DOCTYPE svg PUBLIC "-//W3C//DTD SVG 1.1//EN"
 "http://www.w3.org/Graphics/SVG/1.1/DTD/svg11.dtd">
<!-- Generated by graphviz version 2.43.0 (0)
 -->
<!-- Title: ZtLogger::LogDecryptionFailure Pages: 1 -->
<svg width="776pt" height="64pt"
 viewBox="0.00 0.00 776.00 64.00" xmlns="http://www.w3.org/2000/svg" xmlns:xlink="http://www.w3.org/1999/xlink">
<g id="graph0" class="graph" transform="scale(1 1) rotate(0) translate(4 60)">
<title>ZtLogger::LogDecryptionFailure</title>
<!-- Node1 -->
<g id="Node000001" class="node">
<title>Node1</title>
<g id="a_Node000001"><a xlink:title="Logs a decryption failure event.">
<polygon fill="#999999" stroke="#666666" points="768,-37 599,-37 599,-18 768,-18 768,-37"/>
<text text-anchor="middle" x="683.5" y="-25" font-family="Helvetica,sans-Serif" font-size="10.00">ZtLogger::LogDecryptionFailure</text>
</a>
</g>
</g>
<!-- Node2 -->
<g id="Node000002" class="node">
<title>Node2</title>
<g id="a_Node000002"><a xlink:href="classSecureSinkApp.html#a3a672bd05d4399036c2f7fe92c205962" target="_top" xlink:title="Handle incoming packets, validate certificate, and decrypt authorized data.">
<polygon fill="white" stroke="#666666" points="563,-56 408,-56 408,-37 563,-37 563,-56"/>
<text text-anchor="middle" x="485.5" y="-44" font-family="Helvetica,sans-Serif" font-size="10.00">SecureSinkApp::HandleRead</text>
</a>
</g>
</g>
<!-- Node1&#45;&gt;Node2 -->
<g id="edge1_Node000001_Node000002" class="edge">
<title>Node1&#45;&gt;Node2</title>
<g id="a_edge1_Node000001_Node000002"><a xlink:title=" ">
<path fill="none" stroke="#63b8ff" d="M588.75,-36.59C580.15,-37.42 571.51,-38.26 563.08,-39.08"/>
<polygon fill="#63b8ff" stroke="#63b8ff" points="589.19,-40.06 598.81,-35.61 588.52,-33.09 589.19,-40.06"/>
</a>
</g>
</g>
<!-- Node5 -->
<g id="Node000005" class="node">
<title>Node5</title>
<g id="a_Node000005"><a xlink:href="classSecureSink.html#a5987bbdb44f0b13e034968f6f836a61e" target="_top" xlink:title=" ">
<polygon fill="white" stroke="#666666" points="553.5,-19 417.5,-19 417.5,0 553.5,0 553.5,-19"/>
<text text-anchor="middle" x="485.5" y="-7" font-family="Helvetica,sans-Serif" font-size="10.00">SecureSink::HandleRead</text>
</a>
</g>
</g>
<!-- Node1&#45;&gt;Node5 -->
<g id="edge4_Node000001_Node000005" class="edge">
<title>Node1&#45;&gt;Node5</title>
<g id="a_edge4_Node000001_Node000005"><a xlink:title=" ">
<path fill="none" stroke="#63b8ff" d="M588.5,-18.87C576.73,-17.79 564.88,-16.7 553.63,-15.67"/>
<polygon fill="#63b8ff" stroke="#63b8ff" points="588.53,-22.38 598.81,-19.81 589.17,-15.41 588.53,-22.38"/>
</a>
</g>
</g>
<!-- Node3 -->
<g id="Node000003" class="node">
<title>Node3</title>
<g id="a_Node000003"><a xlink:href="classSecureSinkApp.html#a5ee6aadf29ff1a4560e160520bba0030" target="_top" xlink:title=" ">
<polygon fill="white" stroke="#666666" points="372,-56 209,-56 209,-37 372,-37 372,-56"/>
<text text-anchor="middle" x="290.5" y="-44" font-family="Helvetica,sans-Serif" font-size="10.00">SecureSinkApp::HandleAccept</text>
</a>
</g>
</g>
<!-- Node2&#45;&gt;Node3 -->
<g id="edge2_Node000002_Node000003" class="edge">
<title>Node2&#45;&gt;Node3</title>
<g id="a_edge2_Node000002_Node000003"><a xlink:title=" ">
<path fill="none" stroke="#63b8ff" d="M397.92,-46.5C389.32,-46.5 380.62,-46.5 372.08,-46.5"/>
<polygon fill="#63b8ff" stroke="#63b8ff" points="397.94,-50 407.94,-46.5 397.94,-43 397.94,-50"/>
</a>
</g>
</g>
<!-- Node4 -->
<g id="Node000004" class="node">
<title>Node4</title>
<g id="a_Node000004"><a xlink:href="classSecureSinkApp.html#ac45868eb53a9a2e9d12e46f355731811" target="_top" xlink:title=" ">
<polygon fill="white" stroke="#666666" points="173,-56 0,-56 0,-37 173,-37 173,-56"/>
<text text-anchor="middle" x="86.5" y="-44" font-family="Helvetica,sans-Serif" font-size="10.00">SecureSinkApp::StartApplication</text>
</a>
</g>
</g>
<!-- Node3&#45;&gt;Node4 -->
<g id="edge3_Node000003_Node000004" class="edge">
<title>Node3&#45;&gt;Node4</title>
<g id="a_edge3_Node000003_Node000004"><a xlink:title=" ">
<path fill="none" stroke="#63b8ff" d="M198.52,-46.5C190.04,-46.5 181.47,-46.5 173.04,-46.5"/>
<polygon fill="#63b8ff" stroke="#63b8ff" points="198.79,-50 208.79,-46.5 198.79,-43 198.79,-50"/>
</a>
</g>
</g>
<!-- Node6 -->
<g id="Node000006" class="node">
<title>Node6</title>
<g id="a_Node000006"><a xlink:href="classSecureSink.html#a5e00071e0d8327c46c34d2ffdbc386bc" target="_top" xlink:title=" ">
<polygon fill="white" stroke="#666666" points="362.5,-19 218.5,-19 218.5,0 362.5,0 362.5,-19"/>
<text text-anchor="middle" x="290.5" y="-7" font-family="Helvetica,sans-Serif" font-size="10.00">SecureSink::HandleAccept</text>
</a>
</g>
</g>
<!-- Node5&#45;&gt;Node6 -->
<g id="edge5_Node000005_Node000006" class="edge">
<title>Node5&#45;&gt;Node6</title>
<g id="a_edge5_Node000005_Node000006"><a xlink:title=" ">
<path fill="none" stroke="#63b8ff" d="M407.22,-9.5C392.54,-9.5 377.24,-9.5 362.76,-9.5"/>
<polygon fill="#63b8ff" stroke="#63b8ff" points="407.27,-13 417.27,-9.5 407.27,-6 407.27,-13"/>
</a>
</g>
</g>
<!-- Node7 -->
<g id="Node000007" class="node">
<title>Node7</title>
<g id="a_Node000007"><a xlink:href="classSecureSink.html#ad09b7203b04b80cb3a8c89eb9174fbd2" target="_top" xlink:title=" ">
<polygon fill="white" stroke="#666666" points="164,-19 9,-19 9,0 164,0 164,-19"/>
<text text-anchor="middle" x="86.5" y="-7" font-family="Helvetica,sans-Serif" font-size="10.00">SecureSink::StartApplication</text>
</a>
</g>
</g>
<!-- Node6&#45;&gt;Node7 -->
<g id="edge6_Node000006_Node000007" class="edge">
<title>Node6&#45;&gt;Node7</title>
<g id="a_edge6_Node000006_Node000007"><a xlink:title=" ">
<path fill="none" stroke="#63b8ff" d="M207.9,-9.5C193.49,-9.5 178.52,-9.5 164.25,-9.5"/>
<polygon fill="#63b8ff" stroke="#63b8ff" points="208.28,-13 218.28,-9.5 208.28,-6 208.28,-13"/>
</a>
</g>
</g>
</g>
</svg>
