<?xml version="1.0" encoding="UTF-8" standalone="no"?>
<!DOCTYPE svg PUBLIC "-//W3C//DTD SVG 1.1//EN"
 "http://www.w3.org/Graphics/SVG/1.1/DTD/svg11.dtd">
<!-- Generated by graphviz version 2.43.0 (0)
 -->
<!-- Title: SecureSensorApp::StartApplication Pages: 1 -->
<svg width="699pt" height="132pt"
 viewBox="0.00 0.00 699.00 131.50" xmlns="http://www.w3.org/2000/svg" xmlns:xlink="http://www.w3.org/1999/xlink">
<g id="graph0" class="graph" transform="scale(1 1) rotate(0) translate(4 127.5)">
<title>SecureSensorApp::StartApplication</title>
<!-- Node1 -->
<g id="Node000001" class="node">
<title>Node1</title>
<g id="a_Node000001"><a xlink:title=" ">
<polygon fill="#999999" stroke="#666666" points="185,-67.5 0,-67.5 0,-48.5 185,-48.5 185,-67.5"/>
<text text-anchor="middle" x="92.5" y="-55.5" font-family="Helvetica,sans-Serif" font-size="10.00">SecureSensorApp::StartApplication</text>
</a>
</g>
</g>
<!-- Node2 -->
<g id="Node000002" class="node">
<title>Node2</title>
<g id="a_Node000002"><a xlink:href="classZtLogger.html#a467e70148db6fc7fb134e1fa7496ca35" target="_top" xlink:title="Logs a certificate issuance event.">
<polygon fill="white" stroke="#666666" points="378.5,-123.5 243.5,-123.5 243.5,-104.5 378.5,-104.5 378.5,-123.5"/>
<text text-anchor="middle" x="311" y="-111.5" font-family="Helvetica,sans-Serif" font-size="10.00">ZtLogger::LogCertIssued</text>
</a>
</g>
</g>
<!-- Node1&#45;&gt;Node2 -->
<g id="edge1_Node000001_Node000002" class="edge">
<title>Node1&#45;&gt;Node2</title>
<g id="a_edge1_Node000001_Node000002"><a xlink:title=" ">
<path fill="none" stroke="#63b8ff" d="M130.72,-67.63C167.5,-77.14 223.86,-91.72 263.56,-101.99"/>
<polygon fill="#63b8ff" stroke="#63b8ff" points="262.71,-105.38 273.27,-104.5 264.46,-98.61 262.71,-105.38"/>
</a>
</g>
</g>
<!-- Node4 -->
<g id="Node000004" class="node">
<title>Node4</title>
<g id="a_Node000004"><a xlink:href="classSecureSensorApp.html#abcf992d1e14b78f97e8755ee1cd7537a" target="_top" xlink:title="Encrypt and send sensor data using session key.">
<polygon fill="white" stroke="#666666" points="401,-67.5 221,-67.5 221,-48.5 401,-48.5 401,-67.5"/>
<text text-anchor="middle" x="311" y="-55.5" font-family="Helvetica,sans-Serif" font-size="10.00">SecureSensorApp::SendEncrypted</text>
</a>
</g>
</g>
<!-- Node1&#45;&gt;Node4 -->
<g id="edge3_Node000001_Node000004" class="edge">
<title>Node1&#45;&gt;Node4</title>
<g id="a_edge3_Node000001_Node000004"><a xlink:title=" ">
<path fill="none" stroke="#63b8ff" d="M185,-58C193.55,-58 202.23,-58 210.84,-58"/>
<polygon fill="#63b8ff" stroke="#63b8ff" points="210.9,-61.5 220.9,-58 210.9,-54.5 210.9,-61.5"/>
</a>
</g>
</g>
<!-- Node8 -->
<g id="Node000008" class="node">
<title>Node8</title>
<g id="a_Node000008"><a xlink:href="classCertificateAuthority.html#af81edd447afd694376bb5e66d45bdd48" target="_top" xlink:title="Signs an identity certificate with node ID, role, and expiry.">
<polygon fill="white" stroke="#666666" points="367,-30 255,-30 255,0 367,0 367,-30"/>
<text text-anchor="start" x="263" y="-18" font-family="Helvetica,sans-Serif" font-size="10.00">CertificateAuthority</text>
<text text-anchor="middle" x="311" y="-7" font-family="Helvetica,sans-Serif" font-size="10.00">::SignIdentity</text>
</a>
</g>
</g>
<!-- Node1&#45;&gt;Node8 -->
<g id="edge8_Node000001_Node000008" class="edge">
<title>Node1&#45;&gt;Node8</title>
<g id="a_edge8_Node000001_Node000008"><a xlink:title=" ">
<path fill="none" stroke="#63b8ff" d="M141.55,-48.46C171.92,-42.43 211.56,-34.55 244.75,-27.96"/>
<polygon fill="#63b8ff" stroke="#63b8ff" points="245.7,-31.34 254.83,-25.96 244.34,-24.47 245.7,-31.34"/>
</a>
</g>
</g>
<!-- Node3 -->
<g id="Node000003" class="node">
<title>Node3</title>
<g id="a_Node000003"><a xlink:href="classZtLogger.html#ab4743f29e35568cb7e4652d3b012061d" target="_top" xlink:title="Logs a general message with a specified tag.">
<polygon fill="white" stroke="#666666" points="691,-77.5 608,-77.5 608,-58.5 691,-58.5 691,-77.5"/>
<text text-anchor="middle" x="649.5" y="-65.5" font-family="Helvetica,sans-Serif" font-size="10.00">ZtLogger::Log</text>
</a>
</g>
</g>
<!-- Node2&#45;&gt;Node3 -->
<g id="edge2_Node000002_Node000003" class="edge">
<title>Node2&#45;&gt;Node3</title>
<g id="a_edge2_Node000002_Node000003"><a xlink:title=" ">
<path fill="none" stroke="#63b8ff" d="M378.76,-119.19C431.91,-121.54 507.77,-120.89 572,-105 590.56,-100.41 609.94,-90.98 624.54,-82.79"/>
<polygon fill="#63b8ff" stroke="#63b8ff" points="626.51,-85.7 633.4,-77.65 622.99,-79.65 626.51,-85.7"/>
</a>
</g>
</g>
<!-- Node5 -->
<g id="Node000005" class="node">
<title>Node5</title>
<g id="a_Node000005"><a xlink:href="namespacens3.html#a15964bad59df770e70c1efa2be78b7fb" target="_top" xlink:title="Encrypts a plaintext string using AES&#45;CBC mode with a randomly generated IV.">
<polygon fill="white" stroke="#666666" points="562,-95.5 447,-95.5 447,-76.5 562,-76.5 562,-95.5"/>
<text text-anchor="middle" x="504.5" y="-83.5" font-family="Helvetica,sans-Serif" font-size="10.00">ns3::EncryptPayload</text>
</a>
</g>
</g>
<!-- Node4&#45;&gt;Node5 -->
<g id="edge4_Node000004_Node000005" class="edge">
<title>Node4&#45;&gt;Node5</title>
<g id="a_edge4_Node000004_Node000005"><a xlink:title=" ">
<path fill="none" stroke="#63b8ff" d="M377.1,-67.52C396.4,-70.34 417.55,-73.43 436.94,-76.27"/>
<polygon fill="#63b8ff" stroke="#63b8ff" points="436.5,-79.74 446.9,-77.72 437.51,-72.81 436.5,-79.74"/>
</a>
</g>
</g>
<!-- Node6 -->
<g id="Node000006" class="node">
<title>Node6</title>
<g id="a_Node000006"><a xlink:href="namespacens3.html#aa5c1b03e21921c7c1fabc7602f96b230" target="_top" xlink:title="Converts a hexadecimal string into a byte vector.">
<polygon fill="white" stroke="#666666" points="553.5,-58.5 455.5,-58.5 455.5,-39.5 553.5,-39.5 553.5,-58.5"/>
<text text-anchor="middle" x="504.5" y="-46.5" font-family="Helvetica,sans-Serif" font-size="10.00">ns3::HexToBytes</text>
</a>
</g>
</g>
<!-- Node4&#45;&gt;Node6 -->
<g id="edge5_Node000004_Node000006" class="edge">
<title>Node4&#45;&gt;Node6</title>
<g id="a_edge5_Node000004_Node000006"><a xlink:title=" ">
<path fill="none" stroke="#63b8ff" d="M401.02,-53.82C415.97,-53.11 431.13,-52.4 445.05,-51.75"/>
<polygon fill="#63b8ff" stroke="#63b8ff" points="445.6,-55.23 455.42,-51.26 445.27,-48.23 445.6,-55.23"/>
</a>
</g>
</g>
<!-- Node7 -->
<g id="Node000007" class="node">
<title>Node7</title>
<g id="a_Node000007"><a xlink:href="classZtLogger.html#ac3f4de629944eec6b0befaf1fcbdce7d" target="_top" xlink:title="Logs an encryption event with payload and IV.">
<polygon fill="white" stroke="#666666" points="572,-21.5 437,-21.5 437,-2.5 572,-2.5 572,-21.5"/>
<text text-anchor="middle" x="504.5" y="-9.5" font-family="Helvetica,sans-Serif" font-size="10.00">ZtLogger::LogEncryption</text>
</a>
</g>
</g>
<!-- Node4&#45;&gt;Node7 -->
<g id="edge6_Node000004_Node000007" class="edge">
<title>Node4&#45;&gt;Node7</title>
<g id="a_edge6_Node000004_Node000007"><a xlink:title=" ">
<path fill="none" stroke="#63b8ff" d="M358.75,-48.45C372.4,-45.55 387.32,-42.26 401,-39 420.18,-34.43 441.26,-28.95 459.3,-24.13"/>
<polygon fill="#63b8ff" stroke="#63b8ff" points="460.22,-27.51 468.97,-21.53 458.4,-20.75 460.22,-27.51"/>
</a>
</g>
</g>
<!-- Node7&#45;&gt;Node3 -->
<g id="edge7_Node000007_Node000003" class="edge">
<title>Node7&#45;&gt;Node3</title>
<g id="a_edge7_Node000007_Node000003"><a xlink:title=" ">
<path fill="none" stroke="#63b8ff" d="M546,-21.6C554.68,-24.03 563.72,-26.86 572,-30 589.4,-36.6 608.13,-45.87 622.7,-53.59"/>
<polygon fill="#63b8ff" stroke="#63b8ff" points="621.15,-56.74 631.62,-58.4 624.48,-50.58 621.15,-56.74"/>
</a>
</g>
</g>
</g>
</svg>
