<?xml version="1.0" encoding="UTF-8" standalone="no"?>
<!DOCTYPE svg PUBLIC "-//W3C//DTD SVG 1.1//EN"
 "http://www.w3.org/Graphics/SVG/1.1/DTD/svg11.dtd">
<!-- Generated by graphviz version 2.43.0 (0)
 -->
<!-- Title: ZtPolicyEngineWithCert Pages: 1 -->
<svg width="134pt" height="102pt"
 viewBox="0.00 0.00 134.00 102.00" xmlns="http://www.w3.org/2000/svg" xmlns:xlink="http://www.w3.org/1999/xlink">
<g id="graph0" class="graph" transform="scale(1 1) rotate(0) translate(4 98)">
<title>ZtPolicyEngineWithCert</title>
<!-- Node1 -->
<g id="Node000001" class="node">
<title>Node1</title>
<g id="a_Node000001"><a xlink:title="Simulates a Zero Trust policy engine that enforces access control using certificates.">
<polygon fill="#999999" stroke="transparent" points="126,-94 0,-94 0,0 126,0 126,-94"/>
<text text-anchor="start" x="5" y="-82" font-family="Helvetica,sans-Serif" font-size="10.00">ZtPolicyEngineWithCert</text>
<text text-anchor="start" x="11.5" y="-67" font-family="Helvetica,sans-Serif" font-size="10.00">&#45;</text>
<text text-anchor="start" x="27" y="-67" font-family="Helvetica,sans-Serif" font-size="10.00">caPublicKey</text>
<text text-anchor="start" x="11.5" y="-52" font-family="Helvetica,sans-Serif" font-size="10.00">&#45;</text>
<text text-anchor="start" x="27" y="-52" font-family="Helvetica,sans-Serif" font-size="10.00">revoke</text>
<text text-anchor="start" x="9" y="-37" font-family="Helvetica,sans-Serif" font-size="10.00">+</text>
<text text-anchor="start" x="27" y="-37" font-family="Helvetica,sans-Serif" font-size="10.00">SetCaPublicKey()</text>
<text text-anchor="start" x="9" y="-22" font-family="Helvetica,sans-Serif" font-size="10.00">+</text>
<text text-anchor="start" x="27" y="-22" font-family="Helvetica,sans-Serif" font-size="10.00">Revoke()</text>
<text text-anchor="start" x="9" y="-7" font-family="Helvetica,sans-Serif" font-size="10.00">+</text>
<text text-anchor="start" x="27" y="-7" font-family="Helvetica,sans-Serif" font-size="10.00">Authorize()</text>
<polygon fill="#666666" stroke="#666666" points="0,-77 0,-77 126,-77 126,-77 0,-77"/>
<polygon fill="#666666" stroke="#666666" points="0,-47 0,-47 25,-47 25,-47 0,-47"/>
<polygon fill="#666666" stroke="#666666" points="25,-47 25,-47 126,-47 126,-47 25,-47"/>
<polygon fill="none" stroke="#666666" points="0,0 0,-94 126,-94 126,0 0,0"/>
</a>
</g>
</g>
</g>
</svg>
