<?xml version="1.0" encoding="UTF-8" standalone="no"?>
<!DOCTYPE svg PUBLIC "-//W3C//DTD SVG 1.1//EN"
 "http://www.w3.org/Graphics/SVG/1.1/DTD/svg11.dtd">
<!-- Generated by graphviz version 2.43.0 (0)
 -->
<!-- Title: SecureSinkApp::StartApplication Pages: 1 -->
<svg width="895pt" height="225pt"
 viewBox="0.00 0.00 895.00 225.00" xmlns="http://www.w3.org/2000/svg" xmlns:xlink="http://www.w3.org/1999/xlink">
<g id="graph0" class="graph" transform="scale(1 1) rotate(0) translate(4 221)">
<title>SecureSinkApp::StartApplication</title>
<!-- Node1 -->
<g id="Node000001" class="node">
<title>Node1</title>
<g id="a_Node000001"><a xlink:title=" ">
<polygon fill="#999999" stroke="#666666" points="173,-120 0,-120 0,-101 173,-101 173,-120"/>
<text text-anchor="middle" x="86.5" y="-108" font-family="Helvetica,sans-Serif" font-size="10.00">SecureSinkApp::StartApplication</text>
</a>
</g>
</g>
<!-- Node2 -->
<g id="Node000002" class="node">
<title>Node2</title>
<g id="a_Node000002"><a xlink:href="classSecureSinkApp.html#a5ee6aadf29ff1a4560e160520bba0030" target="_top" xlink:title=" ">
<polygon fill="white" stroke="#666666" points="372,-120 209,-120 209,-101 372,-101 372,-120"/>
<text text-anchor="middle" x="290.5" y="-108" font-family="Helvetica,sans-Serif" font-size="10.00">SecureSinkApp::HandleAccept</text>
</a>
</g>
</g>
<!-- Node1&#45;&gt;Node2 -->
<g id="edge1_Node000001_Node000002" class="edge">
<title>Node1&#45;&gt;Node2</title>
<g id="a_edge1_Node000001_Node000002"><a xlink:title=" ">
<path fill="none" stroke="#63b8ff" d="M173.17,-110.5C181.58,-110.5 190.13,-110.5 198.59,-110.5"/>
<polygon fill="#63b8ff" stroke="#63b8ff" points="198.84,-114 208.84,-110.5 198.84,-107 198.84,-114"/>
</a>
</g>
</g>
<!-- Node3 -->
<g id="Node000003" class="node">
<title>Node3</title>
<g id="a_Node000003"><a xlink:href="classSecureSinkApp.html#a3a672bd05d4399036c2f7fe92c205962" target="_top" xlink:title="Handle incoming packets, validate certificate, and decrypt authorized data.">
<polygon fill="white" stroke="#666666" points="563,-120 408,-120 408,-101 563,-101 563,-120"/>
<text text-anchor="middle" x="485.5" y="-108" font-family="Helvetica,sans-Serif" font-size="10.00">SecureSinkApp::HandleRead</text>
</a>
</g>
</g>
<!-- Node2&#45;&gt;Node3 -->
<g id="edge2_Node000002_Node000003" class="edge">
<title>Node2&#45;&gt;Node3</title>
<g id="a_edge2_Node000002_Node000003"><a xlink:title=" ">
<path fill="none" stroke="#63b8ff" d="M372.23,-110.5C380.6,-110.5 389.14,-110.5 397.57,-110.5"/>
<polygon fill="#63b8ff" stroke="#63b8ff" points="397.8,-114 407.8,-110.5 397.8,-107 397.8,-114"/>
</a>
</g>
</g>
<!-- Node4 -->
<g id="Node000004" class="node">
<title>Node4</title>
<g id="a_Node000004"><a xlink:href="namespacens3.html#abcc9f927462e02351cf483e484c8eac0" target="_top" xlink:title="Decrypts a ciphertext string encrypted with EncryptPayload.">
<polygon fill="white" stroke="#666666" points="741.5,-217 625.5,-217 625.5,-198 741.5,-198 741.5,-217"/>
<text text-anchor="middle" x="683.5" y="-205" font-family="Helvetica,sans-Serif" font-size="10.00">ns3::DecryptPayload</text>
</a>
</g>
</g>
<!-- Node3&#45;&gt;Node4 -->
<g id="edge3_Node000003_Node000004" class="edge">
<title>Node3&#45;&gt;Node4</title>
<g id="a_edge3_Node000003_Node000004"><a xlink:title=" ">
<path fill="none" stroke="#63b8ff" d="M497.09,-120.19C516.05,-136.98 557.67,-171.43 599,-189.5 604.31,-191.82 609.94,-193.85 615.68,-195.63"/>
<polygon fill="#63b8ff" stroke="#63b8ff" points="614.81,-199.02 625.39,-198.39 616.73,-192.29 614.81,-199.02"/>
</a>
</g>
</g>
<!-- Node5 -->
<g id="Node000005" class="node">
<title>Node5</title>
<g id="a_Node000005"><a xlink:href="namespacens3.html#aa5c1b03e21921c7c1fabc7602f96b230" target="_top" xlink:title="Converts a hexadecimal string into a byte vector.">
<polygon fill="white" stroke="#666666" points="732.5,-180 634.5,-180 634.5,-161 732.5,-161 732.5,-180"/>
<text text-anchor="middle" x="683.5" y="-168" font-family="Helvetica,sans-Serif" font-size="10.00">ns3::HexToBytes</text>
</a>
</g>
</g>
<!-- Node3&#45;&gt;Node5 -->
<g id="edge4_Node000003_Node000005" class="edge">
<title>Node3&#45;&gt;Node5</title>
<g id="a_edge4_Node000003_Node000005"><a xlink:title=" ">
<path fill="none" stroke="#63b8ff" d="M515.56,-120.06C538.23,-127.46 570.55,-137.86 599,-146.5 611.75,-150.37 625.65,-154.43 638.39,-158.09"/>
<polygon fill="#63b8ff" stroke="#63b8ff" points="637.73,-161.54 648.31,-160.92 639.65,-154.81 637.73,-161.54"/>
</a>
</g>
</g>
<!-- Node6 -->
<g id="Node000006" class="node">
<title>Node6</title>
<g id="a_Node000006"><a xlink:href="classZtLogger.html#ab4743f29e35568cb7e4652d3b012061d" target="_top" xlink:title="Logs a general message with a specified tag.">
<polygon fill="white" stroke="#666666" points="887,-77 804,-77 804,-58 887,-58 887,-77"/>
<text text-anchor="middle" x="845.5" y="-65" font-family="Helvetica,sans-Serif" font-size="10.00">ZtLogger::Log</text>
</a>
</g>
</g>
<!-- Node3&#45;&gt;Node6 -->
<g id="edge5_Node000003_Node000006" class="edge">
<title>Node3&#45;&gt;Node6</title>
<g id="a_edge5_Node000003_Node000006"><a xlink:title=" ">
<path fill="none" stroke="#63b8ff" d="M541.9,-120.02C599.53,-127.87 691.82,-134.64 768,-113.5 789.02,-107.67 810.06,-94.34 824.74,-83.52"/>
<polygon fill="#63b8ff" stroke="#63b8ff" points="827.18,-86.06 833,-77.2 822.93,-80.5 827.18,-86.06"/>
</a>
</g>
</g>
<!-- Node7 -->
<g id="Node000007" class="node">
<title>Node7</title>
<g id="a_Node000007"><a xlink:href="classZtLogger.html#a7cb7af75ab16a0546537b47c0ca9c72c" target="_top" xlink:title="Logs the result of certificate validation.">
<polygon fill="white" stroke="#666666" points="759.5,-104.5 607.5,-104.5 607.5,-74.5 759.5,-74.5 759.5,-104.5"/>
<text text-anchor="start" x="615.5" y="-92.5" font-family="Helvetica,sans-Serif" font-size="10.00">ZtLogger::LogCertValidation</text>
<text text-anchor="middle" x="683.5" y="-81.5" font-family="Helvetica,sans-Serif" font-size="10.00">Result</text>
</a>
</g>
</g>
<!-- Node3&#45;&gt;Node7 -->
<g id="edge6_Node000003_Node000007" class="edge">
<title>Node3&#45;&gt;Node7</title>
<g id="a_edge6_Node000003_Node000007"><a xlink:title=" ">
<path fill="none" stroke="#63b8ff" d="M563.12,-102.29C574.22,-101.1 585.7,-99.87 596.96,-98.67"/>
<polygon fill="#63b8ff" stroke="#63b8ff" points="597.65,-102.11 607.22,-97.57 596.9,-95.15 597.65,-102.11"/>
</a>
</g>
</g>
<!-- Node8 -->
<g id="Node000008" class="node">
<title>Node8</title>
<g id="a_Node000008"><a xlink:href="classZtLogger.html#a707c469faa37ed9db73c2183097b6dfb" target="_top" xlink:title="Logs a successful decryption event.">
<polygon fill="white" stroke="#666666" points="752,-56 615,-56 615,-37 752,-37 752,-56"/>
<text text-anchor="middle" x="683.5" y="-44" font-family="Helvetica,sans-Serif" font-size="10.00">ZtLogger::LogDecryption</text>
</a>
</g>
</g>
<!-- Node3&#45;&gt;Node8 -->
<g id="edge8_Node000003_Node000008" class="edge">
<title>Node3&#45;&gt;Node8</title>
<g id="a_edge8_Node000003_Node000008"><a xlink:title=" ">
<path fill="none" stroke="#63b8ff" d="M507.71,-100.86C530.06,-90.97 566.47,-75.64 599,-65.5 607.16,-62.96 615.87,-60.6 624.47,-58.47"/>
<polygon fill="#63b8ff" stroke="#63b8ff" points="625.56,-61.81 634.47,-56.08 623.93,-55 625.56,-61.81"/>
</a>
</g>
</g>
<!-- Node9 -->
<g id="Node000009" class="node">
<title>Node9</title>
<g id="a_Node000009"><a xlink:href="classZtLogger.html#aacf37e88e6a7076e227056e8d64f9876" target="_top" xlink:title="Logs a decryption failure event.">
<polygon fill="white" stroke="#666666" points="768,-19 599,-19 599,0 768,0 768,-19"/>
<text text-anchor="middle" x="683.5" y="-7" font-family="Helvetica,sans-Serif" font-size="10.00">ZtLogger::LogDecryptionFailure</text>
</a>
</g>
</g>
<!-- Node3&#45;&gt;Node9 -->
<g id="edge10_Node000003_Node000009" class="edge">
<title>Node3&#45;&gt;Node9</title>
<g id="a_edge10_Node000003_Node000009"><a xlink:title=" ">
<path fill="none" stroke="#63b8ff" d="M496.74,-100.75C515.48,-83.47 557.2,-47.51 599,-28.5 604.46,-26.02 610.28,-23.84 616.2,-21.94"/>
<polygon fill="#63b8ff" stroke="#63b8ff" points="617.61,-25.18 626.22,-19 615.64,-18.46 617.61,-25.18"/>
</a>
</g>
</g>
<!-- Node7&#45;&gt;Node6 -->
<g id="edge7_Node000007_Node000006" class="edge">
<title>Node7&#45;&gt;Node6</title>
<g id="a_edge7_Node000007_Node000006"><a xlink:title=" ">
<path fill="none" stroke="#63b8ff" d="M759.81,-79.14C771.36,-77.56 783.04,-75.95 793.88,-74.46"/>
<polygon fill="#63b8ff" stroke="#63b8ff" points="794.56,-77.9 803.99,-73.07 793.61,-70.97 794.56,-77.9"/>
</a>
</g>
</g>
<!-- Node8&#45;&gt;Node6 -->
<g id="edge9_Node000008_Node000006" class="edge">
<title>Node8&#45;&gt;Node6</title>
<g id="a_edge9_Node000008_Node000006"><a xlink:title=" ">
<path fill="none" stroke="#63b8ff" d="M752.35,-55.41C766.2,-57.22 780.54,-59.11 793.67,-60.83"/>
<polygon fill="#63b8ff" stroke="#63b8ff" points="793.53,-64.34 803.9,-62.17 794.44,-57.4 793.53,-64.34"/>
</a>
</g>
</g>
<!-- Node9&#45;&gt;Node6 -->
<g id="edge11_Node000009_Node000006" class="edge">
<title>Node9&#45;&gt;Node6</title>
<g id="a_edge11_Node000009_Node000006"><a xlink:title=" ">
<path fill="none" stroke="#63b8ff" d="M735.86,-19.08C746.62,-21.67 757.8,-24.8 768,-28.5 785.94,-35 805.06,-44.75 819.69,-52.87"/>
<polygon fill="#63b8ff" stroke="#63b8ff" points="818.18,-56.04 828.61,-57.92 821.64,-49.95 818.18,-56.04"/>
</a>
</g>
</g>
</g>
</svg>
