<?xml version="1.0" encoding="UTF-8" standalone="no"?>
<!DOCTYPE svg PUBLIC "-//W3C//DTD SVG 1.1//EN"
 "http://www.w3.org/Graphics/SVG/1.1/DTD/svg11.dtd">
<!-- Generated by graphviz version 2.43.0 (0)
 -->
<!-- Title: SecureSensorApp Pages: 1 -->
<svg width="237pt" height="509pt"
 viewBox="0.00 0.00 236.50 509.00" xmlns="http://www.w3.org/2000/svg" xmlns:xlink="http://www.w3.org/1999/xlink">
<g id="graph0" class="graph" transform="scale(1 1) rotate(0) translate(4 505)">
<title>SecureSensorApp</title>
<!-- Node1 -->
<g id="Node000001" class="node">
<title>Node1</title>
<g id="a_Node000001"><a xlink:title="Secure TCP&#45;based sensor application that sends encrypted data after Zero Trust handshake and certific...">
<polygon fill="#999999" stroke="transparent" points="107,-349 0,-349 0,0 107,0 107,-349"/>
<text text-anchor="start" x="11.5" y="-336.5" font-family="Helvetica,sans-Serif" font-size="10.00">SecureSensorApp</text>
<text text-anchor="start" x="7" y="-321.5" font-family="Helvetica,sans-Serif" font-size="10.00">&#45;</text>
<text text-anchor="start" x="17.5" y="-321.5" font-family="Helvetica,sans-Serif" font-size="10.00">socket</text>
<text text-anchor="start" x="7" y="-306.5" font-family="Helvetica,sans-Serif" font-size="10.00">&#45;</text>
<text text-anchor="start" x="17.5" y="-306.5" font-family="Helvetica,sans-Serif" font-size="10.00">peer</text>
<text text-anchor="start" x="7" y="-291.5" font-family="Helvetica,sans-Serif" font-size="10.00">&#45;</text>
<text text-anchor="start" x="17.5" y="-291.5" font-family="Helvetica,sans-Serif" font-size="10.00">nid</text>
<text text-anchor="start" x="7" y="-276.5" font-family="Helvetica,sans-Serif" font-size="10.00">&#45;</text>
<text text-anchor="start" x="17.5" y="-276.5" font-family="Helvetica,sans-Serif" font-size="10.00">role</text>
<text text-anchor="start" x="7" y="-261.5" font-family="Helvetica,sans-Serif" font-size="10.00">&#45;</text>
<text text-anchor="start" x="17.5" y="-261.5" font-family="Helvetica,sans-Serif" font-size="10.00">sensorData</text>
<text text-anchor="start" x="7" y="-246.5" font-family="Helvetica,sans-Serif" font-size="10.00">&#45;</text>
<text text-anchor="start" x="17.5" y="-246.5" font-family="Helvetica,sans-Serif" font-size="10.00">zt</text>
<text text-anchor="start" x="7" y="-231.5" font-family="Helvetica,sans-Serif" font-size="10.00">&#45;</text>
<text text-anchor="start" x="17.5" y="-231.5" font-family="Helvetica,sans-Serif" font-size="10.00">handshake</text>
<text text-anchor="start" x="7" y="-216.5" font-family="Helvetica,sans-Serif" font-size="10.00">&#45;</text>
<text text-anchor="start" x="17.5" y="-216.5" font-family="Helvetica,sans-Serif" font-size="10.00">m_socket</text>
<text text-anchor="start" x="7" y="-201.5" font-family="Helvetica,sans-Serif" font-size="10.00">&#45;</text>
<text text-anchor="start" x="17.5" y="-201.5" font-family="Helvetica,sans-Serif" font-size="10.00">m_peer</text>
<text text-anchor="start" x="7" y="-186.5" font-family="Helvetica,sans-Serif" font-size="10.00">&#45;</text>
<text text-anchor="start" x="17.5" y="-186.5" font-family="Helvetica,sans-Serif" font-size="10.00">m_nodeId</text>
<text text-anchor="start" x="7" y="-171.5" font-family="Helvetica,sans-Serif" font-size="10.00">&#45;</text>
<text text-anchor="start" x="17.5" y="-171.5" font-family="Helvetica,sans-Serif" font-size="10.00">m_role</text>
<text text-anchor="start" x="7" y="-156.5" font-family="Helvetica,sans-Serif" font-size="10.00">&#45;</text>
<text text-anchor="start" x="17.5" y="-156.5" font-family="Helvetica,sans-Serif" font-size="10.00">m_payload</text>
<text text-anchor="start" x="7" y="-141.5" font-family="Helvetica,sans-Serif" font-size="10.00">&#45;</text>
<text text-anchor="start" x="17.5" y="-141.5" font-family="Helvetica,sans-Serif" font-size="10.00">m_policy</text>
<text text-anchor="start" x="7" y="-126.5" font-family="Helvetica,sans-Serif" font-size="10.00">&#45;</text>
<text text-anchor="start" x="17.5" y="-126.5" font-family="Helvetica,sans-Serif" font-size="10.00">m_handshake</text>
<text text-anchor="start" x="4.5" y="-111.5" font-family="Helvetica,sans-Serif" font-size="10.00">+</text>
<text text-anchor="start" x="17.5" y="-111.5" font-family="Helvetica,sans-Serif" font-size="10.00">Setup()</text>
<text text-anchor="start" x="4.5" y="-96.5" font-family="Helvetica,sans-Serif" font-size="10.00">+</text>
<text text-anchor="start" x="17.5" y="-96.5" font-family="Helvetica,sans-Serif" font-size="10.00">Setup()</text>
<text text-anchor="start" x="7" y="-81.5" font-family="Helvetica,sans-Serif" font-size="10.00">&#45;</text>
<text text-anchor="start" x="17.5" y="-81.5" font-family="Helvetica,sans-Serif" font-size="10.00">StartApplication()</text>
<text text-anchor="start" x="7" y="-66.5" font-family="Helvetica,sans-Serif" font-size="10.00">&#45;</text>
<text text-anchor="start" x="17.5" y="-66.5" font-family="Helvetica,sans-Serif" font-size="10.00">SendEncrypted()</text>
<text text-anchor="start" x="7" y="-51.5" font-family="Helvetica,sans-Serif" font-size="10.00">&#45;</text>
<text text-anchor="start" x="17.5" y="-51.5" font-family="Helvetica,sans-Serif" font-size="10.00">StopApplication()</text>
<text text-anchor="start" x="7" y="-36.5" font-family="Helvetica,sans-Serif" font-size="10.00">&#45;</text>
<text text-anchor="start" x="17.5" y="-36.5" font-family="Helvetica,sans-Serif" font-size="10.00">StartApplication()</text>
<text text-anchor="start" x="7" y="-21.5" font-family="Helvetica,sans-Serif" font-size="10.00">&#45;</text>
<text text-anchor="start" x="17.5" y="-21.5" font-family="Helvetica,sans-Serif" font-size="10.00">StopApplication()</text>
<text text-anchor="start" x="7" y="-6.5" font-family="Helvetica,sans-Serif" font-size="10.00">&#45;</text>
<text text-anchor="start" x="17.5" y="-6.5" font-family="Helvetica,sans-Serif" font-size="10.00">SendEncrypted()</text>
<polygon fill="#666666" stroke="#666666" points="0.5,-331.5 0.5,-331.5 107.5,-331.5 107.5,-331.5 0.5,-331.5"/>
<polygon fill="#666666" stroke="#666666" points="0.5,-121.5 0.5,-121.5 15.5,-121.5 15.5,-121.5 0.5,-121.5"/>
<polygon fill="#666666" stroke="#666666" points="15.5,-121.5 15.5,-121.5 107.5,-121.5 107.5,-121.5 15.5,-121.5"/>
<polygon fill="none" stroke="#666666" points="0,0 0,-349 107,-349 107,0 0,0"/>
</a>
</g>
</g>
<!-- Node2 -->
<g id="Node000002" class="node">
<title>Node2</title>
<g id="a_Node000002"><a xlink:title=" ">
<polygon fill="white" stroke="transparent" points="86,-478.5 21,-478.5 21,-429.5 86,-429.5 86,-478.5"/>
<text text-anchor="start" x="26.5" y="-466" font-family="Helvetica,sans-Serif" font-size="10.00">Application</text>
<text text-anchor="start" x="52" y="-451" font-family="Helvetica,sans-Serif" font-size="10.00"> </text>
<text text-anchor="start" x="52" y="-436" font-family="Helvetica,sans-Serif" font-size="10.00"> </text>
<polygon fill="#666666" stroke="#666666" points="21.5,-461 21.5,-461 86.5,-461 86.5,-461 21.5,-461"/>
<polygon fill="#666666" stroke="#666666" points="21.5,-446 21.5,-446 86.5,-446 86.5,-446 21.5,-446"/>
<polygon fill="none" stroke="#666666" points="21,-429.5 21,-478.5 86,-478.5 86,-429.5 21,-429.5"/>
</a>
</g>
</g>
<!-- Node2&#45;&gt;Node1 -->
<g id="edge1_Node000001_Node000002" class="edge">
<title>Node2&#45;&gt;Node1</title>
<g id="a_edge1_Node000001_Node000002"><a xlink:title=" ">
<path fill="none" stroke="#63b8ff" d="M48.91,-419.35C47.9,-400.68 47.25,-375.86 46.94,-349.21"/>
<polygon fill="none" stroke="#63b8ff" points="45.41,-419.57 49.52,-429.34 52.4,-419.14 45.41,-419.57"/>
</a>
</g>
</g>
<!-- Node2&#45;&gt;Node1 -->
<g id="edge2_Node000001_Node000002" class="edge">
<title>Node2&#45;&gt;Node1</title>
<g id="a_edge2_Node000001_Node000002"><a xlink:title=" ">
<path fill="none" stroke="#63b8ff" d="M58.09,-419.35C59.1,-400.68 59.75,-375.86 60.06,-349.21"/>
<polygon fill="none" stroke="#63b8ff" points="54.6,-419.14 57.48,-429.34 61.59,-419.57 54.6,-419.14"/>
</a>
</g>
</g>
<!-- Node3 -->
<g id="Node000003" class="node">
<title>Node3</title>
<g id="a_Node000003"><a xlink:href="classCertificateAuthority.html" target="_top" xlink:title="Issues and signs certificates for Zero Trust identity validation.">
<polygon fill="white" stroke="transparent" points="228.5,-501 104.5,-501 104.5,-407 228.5,-407 228.5,-501"/>
<text text-anchor="start" x="118.5" y="-489" font-family="Helvetica,sans-Serif" font-size="10.00">CertificateAuthority</text>
<text text-anchor="start" x="111" y="-474" font-family="Helvetica,sans-Serif" font-size="10.00">&#45;</text>
<text text-anchor="start" x="121.5" y="-474" font-family="Helvetica,sans-Serif" font-size="10.00">privateKey</text>
<text text-anchor="start" x="111" y="-459" font-family="Helvetica,sans-Serif" font-size="10.00">&#45;</text>
<text text-anchor="start" x="121.5" y="-459" font-family="Helvetica,sans-Serif" font-size="10.00">publicKey</text>
<text text-anchor="start" x="108.5" y="-444" font-family="Helvetica,sans-Serif" font-size="10.00">+</text>
<text text-anchor="start" x="121.5" y="-444" font-family="Helvetica,sans-Serif" font-size="10.00">CertificateAuthority()</text>
<text text-anchor="start" x="108.5" y="-429" font-family="Helvetica,sans-Serif" font-size="10.00">+</text>
<text text-anchor="start" x="121.5" y="-429" font-family="Helvetica,sans-Serif" font-size="10.00">SignIdentity()</text>
<text text-anchor="start" x="108.5" y="-414" font-family="Helvetica,sans-Serif" font-size="10.00">+</text>
<text text-anchor="start" x="121.5" y="-414" font-family="Helvetica,sans-Serif" font-size="10.00">GetPublicKey()</text>
<polygon fill="#666666" stroke="#666666" points="104.5,-484 104.5,-484 228.5,-484 228.5,-484 104.5,-484"/>
<polygon fill="#666666" stroke="#666666" points="104.5,-454 104.5,-454 119.5,-454 119.5,-454 104.5,-454"/>
<polygon fill="#666666" stroke="#666666" points="119.5,-454 119.5,-454 228.5,-454 228.5,-454 119.5,-454"/>
<polygon fill="none" stroke="#666666" points="104.5,-407 104.5,-501 228.5,-501 228.5,-407 104.5,-407"/>
</a>
</g>
</g>
<!-- Node3&#45;&gt;Node1 -->
<g id="edge3_Node000001_Node000003" class="edge">
<title>Node3&#45;&gt;Node1</title>
<g id="a_edge3_Node000001_Node000003"><a xlink:title=" ">
<path fill="none" stroke="#63b8ff" d="M147.71,-406.87C137.69,-382.26 124.76,-350.49 111.7,-318.43"/>
<polygon fill="none" stroke="#63b8ff" points="111.61,-318.21 105.64,-314.16 107.09,-307.09 113.05,-311.14 111.61,-318.21"/>
</a>
</g>
<text text-anchor="middle" x="154" y="-381" font-family="Helvetica,sans-Serif" font-size="10.00" fill="grey"> &#45;ca</text>
<text text-anchor="middle" x="154" y="-370" font-family="Helvetica,sans-Serif" font-size="10.00" fill="grey">&#45;m_ca</text>
</g>
</g>
</svg>
