<?xml version="1.0" encoding="UTF-8" standalone="no"?>
<!DOCTYPE svg PUBLIC "-//W3C//DTD SVG 1.1//EN"
 "http://www.w3.org/Graphics/SVG/1.1/DTD/svg11.dtd">
<!-- Generated by graphviz version 2.43.0 (0)
 -->
<!-- Title: SecureSink::HandleAccept Pages: 1 -->
<svg width="648pt" height="225pt"
 viewBox="0.00 0.00 648.00 225.00" xmlns="http://www.w3.org/2000/svg" xmlns:xlink="http://www.w3.org/1999/xlink">
<g id="graph0" class="graph" transform="scale(1 1) rotate(0) translate(4 221)">
<title>SecureSink::HandleAccept</title>
<!-- Node1 -->
<g id="Node000001" class="node">
<title>Node1</title>
<g id="a_Node000001"><a xlink:title=" ">
<polygon fill="#999999" stroke="#666666" points="144,-120 0,-120 0,-101 144,-101 144,-120"/>
<text text-anchor="middle" x="72" y="-108" font-family="Helvetica,sans-Serif" font-size="10.00">SecureSink::HandleAccept</text>
</a>
</g>
</g>
<!-- Node2 -->
<g id="Node000002" class="node">
<title>Node2</title>
<g id="a_Node000002"><a xlink:href="classSecureSink.html#a5987bbdb44f0b13e034968f6f836a61e" target="_top" xlink:title=" ">
<polygon fill="white" stroke="#666666" points="316,-120 180,-120 180,-101 316,-101 316,-120"/>
<text text-anchor="middle" x="248" y="-108" font-family="Helvetica,sans-Serif" font-size="10.00">SecureSink::HandleRead</text>
</a>
</g>
</g>
<!-- Node1&#45;&gt;Node2 -->
<g id="edge1_Node000001_Node000002" class="edge">
<title>Node1&#45;&gt;Node2</title>
<g id="a_edge1_Node000001_Node000002"><a xlink:title=" ">
<path fill="none" stroke="#63b8ff" d="M144.02,-110.5C152.53,-110.5 161.26,-110.5 169.85,-110.5"/>
<polygon fill="#63b8ff" stroke="#63b8ff" points="169.85,-114 179.85,-110.5 169.85,-107 169.85,-114"/>
</a>
</g>
</g>
<!-- Node3 -->
<g id="Node000003" class="node">
<title>Node3</title>
<g id="a_Node000003"><a xlink:href="namespacens3.html#abcc9f927462e02351cf483e484c8eac0" target="_top" xlink:title="Decrypts a ciphertext string encrypted with EncryptPayload.">
<polygon fill="white" stroke="#666666" points="494.5,-217 378.5,-217 378.5,-198 494.5,-198 494.5,-217"/>
<text text-anchor="middle" x="436.5" y="-205" font-family="Helvetica,sans-Serif" font-size="10.00">ns3::DecryptPayload</text>
</a>
</g>
</g>
<!-- Node2&#45;&gt;Node3 -->
<g id="edge2_Node000002_Node000003" class="edge">
<title>Node2&#45;&gt;Node3</title>
<g id="a_edge2_Node000002_Node000003"><a xlink:title=" ">
<path fill="none" stroke="#63b8ff" d="M258.53,-120.23C275.62,-137.08 313.34,-171.62 352,-189.5 357.26,-191.93 362.86,-194.04 368.57,-195.87"/>
<polygon fill="#63b8ff" stroke="#63b8ff" points="367.67,-199.26 378.25,-198.69 369.63,-192.53 367.67,-199.26"/>
</a>
</g>
</g>
<!-- Node4 -->
<g id="Node000004" class="node">
<title>Node4</title>
<g id="a_Node000004"><a xlink:href="namespacens3.html#aa5c1b03e21921c7c1fabc7602f96b230" target="_top" xlink:title="Converts a hexadecimal string into a byte vector.">
<polygon fill="white" stroke="#666666" points="485.5,-180 387.5,-180 387.5,-161 485.5,-161 485.5,-180"/>
<text text-anchor="middle" x="436.5" y="-168" font-family="Helvetica,sans-Serif" font-size="10.00">ns3::HexToBytes</text>
</a>
</g>
</g>
<!-- Node2&#45;&gt;Node4 -->
<g id="edge3_Node000002_Node000004" class="edge">
<title>Node2&#45;&gt;Node4</title>
<g id="a_edge3_Node000002_Node000004"><a xlink:title=" ">
<path fill="none" stroke="#63b8ff" d="M275.11,-120.08C295.85,-127.58 325.65,-138.11 352,-146.5 364.48,-150.47 378.09,-154.51 390.64,-158.11"/>
<polygon fill="#63b8ff" stroke="#63b8ff" points="389.85,-161.52 400.43,-160.89 391.77,-154.79 389.85,-161.52"/>
</a>
</g>
</g>
<!-- Node5 -->
<g id="Node000005" class="node">
<title>Node5</title>
<g id="a_Node000005"><a xlink:href="classZtLogger.html#ab4743f29e35568cb7e4652d3b012061d" target="_top" xlink:title="Logs a general message with a specified tag.">
<polygon fill="white" stroke="#666666" points="640,-77 557,-77 557,-58 640,-58 640,-77"/>
<text text-anchor="middle" x="598.5" y="-65" font-family="Helvetica,sans-Serif" font-size="10.00">ZtLogger::Log</text>
</a>
</g>
</g>
<!-- Node2&#45;&gt;Node5 -->
<g id="edge4_Node000002_Node000005" class="edge">
<title>Node2&#45;&gt;Node5</title>
<g id="a_edge4_Node000002_Node000005"><a xlink:title=" ">
<path fill="none" stroke="#63b8ff" d="M304.61,-120.01C360.42,-127.5 448.31,-133.67 521,-113.5 542.02,-107.67 563.06,-94.34 577.74,-83.52"/>
<polygon fill="#63b8ff" stroke="#63b8ff" points="580.18,-86.06 586,-77.2 575.93,-80.5 580.18,-86.06"/>
</a>
</g>
</g>
<!-- Node6 -->
<g id="Node000006" class="node">
<title>Node6</title>
<g id="a_Node000006"><a xlink:href="classZtLogger.html#a7cb7af75ab16a0546537b47c0ca9c72c" target="_top" xlink:title="Logs the result of certificate validation.">
<polygon fill="white" stroke="#666666" points="512.5,-104.5 360.5,-104.5 360.5,-74.5 512.5,-74.5 512.5,-104.5"/>
<text text-anchor="start" x="368.5" y="-92.5" font-family="Helvetica,sans-Serif" font-size="10.00">ZtLogger::LogCertValidation</text>
<text text-anchor="middle" x="436.5" y="-81.5" font-family="Helvetica,sans-Serif" font-size="10.00">Result</text>
</a>
</g>
</g>
<!-- Node2&#45;&gt;Node6 -->
<g id="edge5_Node000002_Node000006" class="edge">
<title>Node2&#45;&gt;Node6</title>
<g id="a_edge5_Node000002_Node000006"><a xlink:title=" ">
<path fill="none" stroke="#63b8ff" d="M316.07,-102.95C327.21,-101.69 338.9,-100.38 350.42,-99.08"/>
<polygon fill="#63b8ff" stroke="#63b8ff" points="350.94,-102.54 360.49,-97.95 350.16,-95.59 350.94,-102.54"/>
</a>
</g>
</g>
<!-- Node7 -->
<g id="Node000007" class="node">
<title>Node7</title>
<g id="a_Node000007"><a xlink:href="classZtLogger.html#a707c469faa37ed9db73c2183097b6dfb" target="_top" xlink:title="Logs a successful decryption event.">
<polygon fill="white" stroke="#666666" points="505,-56 368,-56 368,-37 505,-37 505,-56"/>
<text text-anchor="middle" x="436.5" y="-44" font-family="Helvetica,sans-Serif" font-size="10.00">ZtLogger::LogDecryption</text>
</a>
</g>
</g>
<!-- Node2&#45;&gt;Node7 -->
<g id="edge7_Node000002_Node000007" class="edge">
<title>Node2&#45;&gt;Node7</title>
<g id="a_edge7_Node000002_Node000007"><a xlink:title=" ">
<path fill="none" stroke="#63b8ff" d="M267.94,-100.93C288.29,-90.97 321.79,-75.44 352,-65.5 359.92,-62.9 368.37,-60.52 376.75,-58.4"/>
<polygon fill="#63b8ff" stroke="#63b8ff" points="377.62,-61.79 386.51,-56.03 375.96,-54.99 377.62,-61.79"/>
</a>
</g>
</g>
<!-- Node8 -->
<g id="Node000008" class="node">
<title>Node8</title>
<g id="a_Node000008"><a xlink:href="classZtLogger.html#aacf37e88e6a7076e227056e8d64f9876" target="_top" xlink:title="Logs a decryption failure event.">
<polygon fill="white" stroke="#666666" points="521,-19 352,-19 352,0 521,0 521,-19"/>
<text text-anchor="middle" x="436.5" y="-7" font-family="Helvetica,sans-Serif" font-size="10.00">ZtLogger::LogDecryptionFailure</text>
</a>
</g>
</g>
<!-- Node2&#45;&gt;Node8 -->
<g id="edge9_Node000002_Node000008" class="edge">
<title>Node2&#45;&gt;Node8</title>
<g id="a_edge9_Node000002_Node000008"><a xlink:title=" ">
<path fill="none" stroke="#63b8ff" d="M257.94,-100.98C274.68,-83.75 312.65,-47.41 352,-28.5 357.02,-26.08 362.37,-23.97 367.83,-22.12"/>
<polygon fill="#63b8ff" stroke="#63b8ff" points="369.22,-25.35 377.75,-19.06 367.16,-18.66 369.22,-25.35"/>
</a>
</g>
</g>
<!-- Node6&#45;&gt;Node5 -->
<g id="edge6_Node000006_Node000005" class="edge">
<title>Node6&#45;&gt;Node5</title>
<g id="a_edge6_Node000006_Node000005"><a xlink:title=" ">
<path fill="none" stroke="#63b8ff" d="M512.81,-79.14C524.36,-77.56 536.04,-75.95 546.88,-74.46"/>
<polygon fill="#63b8ff" stroke="#63b8ff" points="547.56,-77.9 556.99,-73.07 546.61,-70.97 547.56,-77.9"/>
</a>
</g>
</g>
<!-- Node7&#45;&gt;Node5 -->
<g id="edge8_Node000007_Node000005" class="edge">
<title>Node7&#45;&gt;Node5</title>
<g id="a_edge8_Node000007_Node000005"><a xlink:title=" ">
<path fill="none" stroke="#63b8ff" d="M505.35,-55.41C519.2,-57.22 533.54,-59.11 546.67,-60.83"/>
<polygon fill="#63b8ff" stroke="#63b8ff" points="546.53,-64.34 556.9,-62.17 547.44,-57.4 546.53,-64.34"/>
</a>
</g>
</g>
<!-- Node8&#45;&gt;Node5 -->
<g id="edge10_Node000008_Node000005" class="edge">
<title>Node8&#45;&gt;Node5</title>
<g id="a_edge10_Node000008_Node000005"><a xlink:title=" ">
<path fill="none" stroke="#63b8ff" d="M488.86,-19.08C499.62,-21.67 510.8,-24.8 521,-28.5 538.94,-35 558.06,-44.75 572.69,-52.87"/>
<polygon fill="#63b8ff" stroke="#63b8ff" points="571.18,-56.04 581.61,-57.92 574.64,-49.95 571.18,-56.04"/>
</a>
</g>
</g>
</g>
</svg>
