<?xml version="1.0" encoding="UTF-8" standalone="no"?>
<!DOCTYPE svg PUBLIC "-//W3C//DTD SVG 1.1//EN"
 "http://www.w3.org/Graphics/SVG/1.1/DTD/svg11.dtd">
<!-- Generated by graphviz version 2.43.0 (0)
 -->
<!-- Title: ZtLogger::LogEncryption Pages: 1 -->
<svg width="580pt" height="64pt"
 viewBox="0.00 0.00 580.00 64.00" xmlns="http://www.w3.org/2000/svg" xmlns:xlink="http://www.w3.org/1999/xlink">
<g id="graph0" class="graph" transform="scale(1 1) rotate(0) translate(4 60)">
<title>ZtLogger::LogEncryption</title>
<!-- Node1 -->
<g id="Node000001" class="node">
<title>Node1</title>
<g id="a_Node000001"><a xlink:title="Logs an encryption event with payload and IV.">
<polygon fill="#999999" stroke="#666666" points="572,-37 437,-37 437,-18 572,-18 572,-37"/>
<text text-anchor="middle" x="504.5" y="-25" font-family="Helvetica,sans-Serif" font-size="10.00">ZtLogger::LogEncryption</text>
</a>
</g>
</g>
<!-- Node2 -->
<g id="Node000002" class="node">
<title>Node2</title>
<g id="a_Node000002"><a xlink:href="classSecureSensorApp.html#abcf992d1e14b78f97e8755ee1cd7537a" target="_top" xlink:title="Encrypt and send sensor data using session key.">
<polygon fill="white" stroke="#666666" points="401,-56 221,-56 221,-37 401,-37 401,-56"/>
<text text-anchor="middle" x="311" y="-44" font-family="Helvetica,sans-Serif" font-size="10.00">SecureSensorApp::SendEncrypted</text>
</a>
</g>
</g>
<!-- Node1&#45;&gt;Node2 -->
<g id="edge1_Node000001_Node000002" class="edge">
<title>Node1&#45;&gt;Node2</title>
<g id="a_edge1_Node000001_Node000002"><a xlink:title=" ">
<path fill="none" stroke="#63b8ff" d="M426.64,-35.13C418.22,-35.96 409.59,-36.82 401.04,-37.67"/>
<polygon fill="#63b8ff" stroke="#63b8ff" points="427.19,-38.59 436.79,-34.12 426.49,-31.62 427.19,-38.59"/>
</a>
</g>
</g>
<!-- Node4 -->
<g id="Node000004" class="node">
<title>Node4</title>
<g id="a_Node000004"><a xlink:href="mitm-mitigation_8cc.html#a033167cc7a498741d454986f06be85cb" target="_top" xlink:title="Simulates a sensor device sending an encrypted payload to the gateway after policy and handshake vali...">
<polygon fill="white" stroke="#666666" points="360,-19 262,-19 262,0 360,0 360,-19"/>
<text text-anchor="middle" x="311" y="-7" font-family="Helvetica,sans-Serif" font-size="10.00">SendFromSensor</text>
</a>
</g>
</g>
<!-- Node1&#45;&gt;Node4 -->
<g id="edge3_Node000001_Node000004" class="edge">
<title>Node1&#45;&gt;Node4</title>
<g id="a_edge3_Node000001_Node000004"><a xlink:title=" ">
<path fill="none" stroke="#63b8ff" d="M426.59,-20.27C404.12,-18.16 380.21,-15.91 360.08,-14.02"/>
<polygon fill="#63b8ff" stroke="#63b8ff" points="426.51,-23.78 436.79,-21.23 427.16,-16.81 426.51,-23.78"/>
</a>
</g>
</g>
<!-- Node3 -->
<g id="Node000003" class="node">
<title>Node3</title>
<g id="a_Node000003"><a xlink:href="classSecureSensorApp.html#a05e3604df4cc65de733f672b33e33ee5" target="_top" xlink:title=" ">
<polygon fill="white" stroke="#666666" points="185,-56 0,-56 0,-37 185,-37 185,-56"/>
<text text-anchor="middle" x="92.5" y="-44" font-family="Helvetica,sans-Serif" font-size="10.00">SecureSensorApp::StartApplication</text>
</a>
</g>
</g>
<!-- Node2&#45;&gt;Node3 -->
<g id="edge2_Node000002_Node000003" class="edge">
<title>Node2&#45;&gt;Node3</title>
<g id="a_edge2_Node000002_Node000003"><a xlink:title=" ">
<path fill="none" stroke="#63b8ff" d="M210.43,-46.5C201.97,-46.5 193.44,-46.5 185.05,-46.5"/>
<polygon fill="#63b8ff" stroke="#63b8ff" points="210.69,-50 220.69,-46.5 210.69,-43 210.69,-50"/>
</a>
</g>
</g>
<!-- Node5 -->
<g id="Node000005" class="node">
<title>Node5</title>
<g id="a_Node000005"><a xlink:href="mitm-mitigation_8cc.html#a0ddf1224851353fc92bfbff6f499fa97" target="_top" xlink:title="Main entry point for the simulation. Sets up network topology, installs security components,...">
<polygon fill="white" stroke="#666666" points="113,-19 72,-19 72,0 113,0 113,-19"/>
<text text-anchor="middle" x="92.5" y="-7" font-family="Helvetica,sans-Serif" font-size="10.00">main</text>
</a>
</g>
</g>
<!-- Node4&#45;&gt;Node5 -->
<g id="edge4_Node000004_Node000005" class="edge">
<title>Node4&#45;&gt;Node5</title>
<g id="a_edge4_Node000004_Node000005"><a xlink:title=" ">
<path fill="none" stroke="#63b8ff" d="M251.79,-9.5C205.76,-9.5 144.24,-9.5 113.19,-9.5"/>
<polygon fill="#63b8ff" stroke="#63b8ff" points="251.95,-13 261.95,-9.5 251.95,-6 251.95,-13"/>
</a>
</g>
</g>
</g>
</svg>
