<?xml version="1.0" encoding="UTF-8" standalone="no"?>
<!DOCTYPE svg PUBLIC "-//W3C//DTD SVG 1.1//EN"
 "http://www.w3.org/Graphics/SVG/1.1/DTD/svg11.dtd">
<!-- Generated by graphviz version 2.43.0 (0)
 -->
<!-- Title: SecureSinkApp::HandleRead Pages: 1 -->
<svg width="487pt" height="225pt"
 viewBox="0.00 0.00 487.00 225.00" xmlns="http://www.w3.org/2000/svg" xmlns:xlink="http://www.w3.org/1999/xlink">
<g id="graph0" class="graph" transform="scale(1 1) rotate(0) translate(4 221)">
<title>SecureSinkApp::HandleRead</title>
<!-- Node1 -->
<g id="Node000001" class="node">
<title>Node1</title>
<g id="a_Node000001"><a xlink:title="Handle incoming packets, validate certificate, and decrypt authorized data.">
<polygon fill="#999999" stroke="#666666" points="155,-120 0,-120 0,-101 155,-101 155,-120"/>
<text text-anchor="middle" x="77.5" y="-108" font-family="Helvetica,sans-Serif" font-size="10.00">SecureSinkApp::HandleRead</text>
</a>
</g>
</g>
<!-- Node2 -->
<g id="Node000002" class="node">
<title>Node2</title>
<g id="a_Node000002"><a xlink:href="namespacens3.html#abcc9f927462e02351cf483e484c8eac0" target="_top" xlink:title="Decrypts a ciphertext string encrypted with EncryptPayload.">
<polygon fill="white" stroke="#666666" points="333.5,-217 217.5,-217 217.5,-198 333.5,-198 333.5,-217"/>
<text text-anchor="middle" x="275.5" y="-205" font-family="Helvetica,sans-Serif" font-size="10.00">ns3::DecryptPayload</text>
</a>
</g>
</g>
<!-- Node1&#45;&gt;Node2 -->
<g id="edge1_Node000001_Node000002" class="edge">
<title>Node1&#45;&gt;Node2</title>
<g id="a_edge1_Node000001_Node000002"><a xlink:title=" ">
<path fill="none" stroke="#63b8ff" d="M89.09,-120.19C108.05,-136.98 149.67,-171.43 191,-189.5 196.31,-191.82 201.94,-193.85 207.68,-195.63"/>
<polygon fill="#63b8ff" stroke="#63b8ff" points="206.81,-199.02 217.39,-198.39 208.73,-192.29 206.81,-199.02"/>
</a>
</g>
</g>
<!-- Node3 -->
<g id="Node000003" class="node">
<title>Node3</title>
<g id="a_Node000003"><a xlink:href="namespacens3.html#aa5c1b03e21921c7c1fabc7602f96b230" target="_top" xlink:title="Converts a hexadecimal string into a byte vector.">
<polygon fill="white" stroke="#666666" points="324.5,-180 226.5,-180 226.5,-161 324.5,-161 324.5,-180"/>
<text text-anchor="middle" x="275.5" y="-168" font-family="Helvetica,sans-Serif" font-size="10.00">ns3::HexToBytes</text>
</a>
</g>
</g>
<!-- Node1&#45;&gt;Node3 -->
<g id="edge2_Node000001_Node000003" class="edge">
<title>Node1&#45;&gt;Node3</title>
<g id="a_edge2_Node000001_Node000003"><a xlink:title=" ">
<path fill="none" stroke="#63b8ff" d="M107.56,-120.06C130.23,-127.46 162.55,-137.86 191,-146.5 203.75,-150.37 217.65,-154.43 230.39,-158.09"/>
<polygon fill="#63b8ff" stroke="#63b8ff" points="229.73,-161.54 240.31,-160.92 231.65,-154.81 229.73,-161.54"/>
</a>
</g>
</g>
<!-- Node4 -->
<g id="Node000004" class="node">
<title>Node4</title>
<g id="a_Node000004"><a xlink:href="classZtLogger.html#ab4743f29e35568cb7e4652d3b012061d" target="_top" xlink:title="Logs a general message with a specified tag.">
<polygon fill="white" stroke="#666666" points="479,-77 396,-77 396,-58 479,-58 479,-77"/>
<text text-anchor="middle" x="437.5" y="-65" font-family="Helvetica,sans-Serif" font-size="10.00">ZtLogger::Log</text>
</a>
</g>
</g>
<!-- Node1&#45;&gt;Node4 -->
<g id="edge3_Node000001_Node000004" class="edge">
<title>Node1&#45;&gt;Node4</title>
<g id="a_edge3_Node000001_Node000004"><a xlink:title=" ">
<path fill="none" stroke="#63b8ff" d="M133.9,-120.02C191.53,-127.87 283.82,-134.64 360,-113.5 381.02,-107.67 402.06,-94.34 416.74,-83.52"/>
<polygon fill="#63b8ff" stroke="#63b8ff" points="419.18,-86.06 425,-77.2 414.93,-80.5 419.18,-86.06"/>
</a>
</g>
</g>
<!-- Node5 -->
<g id="Node000005" class="node">
<title>Node5</title>
<g id="a_Node000005"><a xlink:href="classZtLogger.html#a7cb7af75ab16a0546537b47c0ca9c72c" target="_top" xlink:title="Logs the result of certificate validation.">
<polygon fill="white" stroke="#666666" points="351.5,-104.5 199.5,-104.5 199.5,-74.5 351.5,-74.5 351.5,-104.5"/>
<text text-anchor="start" x="207.5" y="-92.5" font-family="Helvetica,sans-Serif" font-size="10.00">ZtLogger::LogCertValidation</text>
<text text-anchor="middle" x="275.5" y="-81.5" font-family="Helvetica,sans-Serif" font-size="10.00">Result</text>
</a>
</g>
</g>
<!-- Node1&#45;&gt;Node5 -->
<g id="edge4_Node000001_Node000005" class="edge">
<title>Node1&#45;&gt;Node5</title>
<g id="a_edge4_Node000001_Node000005"><a xlink:title=" ">
<path fill="none" stroke="#63b8ff" d="M155.12,-102.29C166.22,-101.1 177.7,-99.87 188.96,-98.67"/>
<polygon fill="#63b8ff" stroke="#63b8ff" points="189.65,-102.11 199.22,-97.57 188.9,-95.15 189.65,-102.11"/>
</a>
</g>
</g>
<!-- Node6 -->
<g id="Node000006" class="node">
<title>Node6</title>
<g id="a_Node000006"><a xlink:href="classZtLogger.html#a707c469faa37ed9db73c2183097b6dfb" target="_top" xlink:title="Logs a successful decryption event.">
<polygon fill="white" stroke="#666666" points="344,-56 207,-56 207,-37 344,-37 344,-56"/>
<text text-anchor="middle" x="275.5" y="-44" font-family="Helvetica,sans-Serif" font-size="10.00">ZtLogger::LogDecryption</text>
</a>
</g>
</g>
<!-- Node1&#45;&gt;Node6 -->
<g id="edge6_Node000001_Node000006" class="edge">
<title>Node1&#45;&gt;Node6</title>
<g id="a_edge6_Node000001_Node000006"><a xlink:title=" ">
<path fill="none" stroke="#63b8ff" d="M99.71,-100.86C122.06,-90.97 158.47,-75.64 191,-65.5 199.16,-62.96 207.87,-60.6 216.47,-58.47"/>
<polygon fill="#63b8ff" stroke="#63b8ff" points="217.56,-61.81 226.47,-56.08 215.93,-55 217.56,-61.81"/>
</a>
</g>
</g>
<!-- Node7 -->
<g id="Node000007" class="node">
<title>Node7</title>
<g id="a_Node000007"><a xlink:href="classZtLogger.html#aacf37e88e6a7076e227056e8d64f9876" target="_top" xlink:title="Logs a decryption failure event.">
<polygon fill="white" stroke="#666666" points="360,-19 191,-19 191,0 360,0 360,-19"/>
<text text-anchor="middle" x="275.5" y="-7" font-family="Helvetica,sans-Serif" font-size="10.00">ZtLogger::LogDecryptionFailure</text>
</a>
</g>
</g>
<!-- Node1&#45;&gt;Node7 -->
<g id="edge8_Node000001_Node000007" class="edge">
<title>Node1&#45;&gt;Node7</title>
<g id="a_edge8_Node000001_Node000007"><a xlink:title=" ">
<path fill="none" stroke="#63b8ff" d="M88.74,-100.75C107.48,-83.47 149.2,-47.51 191,-28.5 196.46,-26.02 202.28,-23.84 208.2,-21.94"/>
<polygon fill="#63b8ff" stroke="#63b8ff" points="209.61,-25.18 218.22,-19 207.64,-18.46 209.61,-25.18"/>
</a>
</g>
</g>
<!-- Node5&#45;&gt;Node4 -->
<g id="edge5_Node000005_Node000004" class="edge">
<title>Node5&#45;&gt;Node4</title>
<g id="a_edge5_Node000005_Node000004"><a xlink:title=" ">
<path fill="none" stroke="#63b8ff" d="M351.81,-79.14C363.36,-77.56 375.04,-75.95 385.88,-74.46"/>
<polygon fill="#63b8ff" stroke="#63b8ff" points="386.56,-77.9 395.99,-73.07 385.61,-70.97 386.56,-77.9"/>
</a>
</g>
</g>
<!-- Node6&#45;&gt;Node4 -->
<g id="edge7_Node000006_Node000004" class="edge">
<title>Node6&#45;&gt;Node4</title>
<g id="a_edge7_Node000006_Node000004"><a xlink:title=" ">
<path fill="none" stroke="#63b8ff" d="M344.35,-55.41C358.2,-57.22 372.54,-59.11 385.67,-60.83"/>
<polygon fill="#63b8ff" stroke="#63b8ff" points="385.53,-64.34 395.9,-62.17 386.44,-57.4 385.53,-64.34"/>
</a>
</g>
</g>
<!-- Node7&#45;&gt;Node4 -->
<g id="edge9_Node000007_Node000004" class="edge">
<title>Node7&#45;&gt;Node4</title>
<g id="a_edge9_Node000007_Node000004"><a xlink:title=" ">
<path fill="none" stroke="#63b8ff" d="M327.86,-19.08C338.62,-21.67 349.8,-24.8 360,-28.5 377.94,-35 397.06,-44.75 411.69,-52.87"/>
<polygon fill="#63b8ff" stroke="#63b8ff" points="410.18,-56.04 420.61,-57.92 413.64,-49.95 410.18,-56.04"/>
</a>
</g>
</g>
</g>
</svg>
