<?xml version="1.0" encoding="UTF-8" standalone="no"?>
<!DOCTYPE svg PUBLIC "-//W3C//DTD SVG 1.1//EN"
 "http://www.w3.org/Graphics/SVG/1.1/DTD/svg11.dtd">
<!-- Generated by graphviz version 2.43.0 (0)
 -->
<!-- Title: SecureSink::HandleRead Pages: 1 -->
<svg width="468pt" height="225pt"
 viewBox="0.00 0.00 468.00 225.00" xmlns="http://www.w3.org/2000/svg" xmlns:xlink="http://www.w3.org/1999/xlink">
<g id="graph0" class="graph" transform="scale(1 1) rotate(0) translate(4 221)">
<title>SecureSink::HandleRead</title>
<!-- Node1 -->
<g id="Node000001" class="node">
<title>Node1</title>
<g id="a_Node000001"><a xlink:title=" ">
<polygon fill="#999999" stroke="#666666" points="136,-120 0,-120 0,-101 136,-101 136,-120"/>
<text text-anchor="middle" x="68" y="-108" font-family="Helvetica,sans-Serif" font-size="10.00">SecureSink::HandleRead</text>
</a>
</g>
</g>
<!-- Node2 -->
<g id="Node000002" class="node">
<title>Node2</title>
<g id="a_Node000002"><a xlink:href="namespacens3.html#abcc9f927462e02351cf483e484c8eac0" target="_top" xlink:title="Decrypts a ciphertext string encrypted with EncryptPayload.">
<polygon fill="white" stroke="#666666" points="314.5,-217 198.5,-217 198.5,-198 314.5,-198 314.5,-217"/>
<text text-anchor="middle" x="256.5" y="-205" font-family="Helvetica,sans-Serif" font-size="10.00">ns3::DecryptPayload</text>
</a>
</g>
</g>
<!-- Node1&#45;&gt;Node2 -->
<g id="edge1_Node000001_Node000002" class="edge">
<title>Node1&#45;&gt;Node2</title>
<g id="a_edge1_Node000001_Node000002"><a xlink:title=" ">
<path fill="none" stroke="#63b8ff" d="M78.53,-120.23C95.62,-137.08 133.34,-171.62 172,-189.5 177.26,-191.93 182.86,-194.04 188.57,-195.87"/>
<polygon fill="#63b8ff" stroke="#63b8ff" points="187.67,-199.26 198.25,-198.69 189.63,-192.53 187.67,-199.26"/>
</a>
</g>
</g>
<!-- Node3 -->
<g id="Node000003" class="node">
<title>Node3</title>
<g id="a_Node000003"><a xlink:href="namespacens3.html#aa5c1b03e21921c7c1fabc7602f96b230" target="_top" xlink:title="Converts a hexadecimal string into a byte vector.">
<polygon fill="white" stroke="#666666" points="305.5,-180 207.5,-180 207.5,-161 305.5,-161 305.5,-180"/>
<text text-anchor="middle" x="256.5" y="-168" font-family="Helvetica,sans-Serif" font-size="10.00">ns3::HexToBytes</text>
</a>
</g>
</g>
<!-- Node1&#45;&gt;Node3 -->
<g id="edge2_Node000001_Node000003" class="edge">
<title>Node1&#45;&gt;Node3</title>
<g id="a_edge2_Node000001_Node000003"><a xlink:title=" ">
<path fill="none" stroke="#63b8ff" d="M95.11,-120.08C115.85,-127.58 145.65,-138.11 172,-146.5 184.48,-150.47 198.09,-154.51 210.64,-158.11"/>
<polygon fill="#63b8ff" stroke="#63b8ff" points="209.85,-161.52 220.43,-160.89 211.77,-154.79 209.85,-161.52"/>
</a>
</g>
</g>
<!-- Node4 -->
<g id="Node000004" class="node">
<title>Node4</title>
<g id="a_Node000004"><a xlink:href="classZtLogger.html#ab4743f29e35568cb7e4652d3b012061d" target="_top" xlink:title="Logs a general message with a specified tag.">
<polygon fill="white" stroke="#666666" points="460,-77 377,-77 377,-58 460,-58 460,-77"/>
<text text-anchor="middle" x="418.5" y="-65" font-family="Helvetica,sans-Serif" font-size="10.00">ZtLogger::Log</text>
</a>
</g>
</g>
<!-- Node1&#45;&gt;Node4 -->
<g id="edge3_Node000001_Node000004" class="edge">
<title>Node1&#45;&gt;Node4</title>
<g id="a_edge3_Node000001_Node000004"><a xlink:title=" ">
<path fill="none" stroke="#63b8ff" d="M124.61,-120.01C180.42,-127.5 268.31,-133.67 341,-113.5 362.02,-107.67 383.06,-94.34 397.74,-83.52"/>
<polygon fill="#63b8ff" stroke="#63b8ff" points="400.18,-86.06 406,-77.2 395.93,-80.5 400.18,-86.06"/>
</a>
</g>
</g>
<!-- Node5 -->
<g id="Node000005" class="node">
<title>Node5</title>
<g id="a_Node000005"><a xlink:href="classZtLogger.html#a7cb7af75ab16a0546537b47c0ca9c72c" target="_top" xlink:title="Logs the result of certificate validation.">
<polygon fill="white" stroke="#666666" points="332.5,-104.5 180.5,-104.5 180.5,-74.5 332.5,-74.5 332.5,-104.5"/>
<text text-anchor="start" x="188.5" y="-92.5" font-family="Helvetica,sans-Serif" font-size="10.00">ZtLogger::LogCertValidation</text>
<text text-anchor="middle" x="256.5" y="-81.5" font-family="Helvetica,sans-Serif" font-size="10.00">Result</text>
</a>
</g>
</g>
<!-- Node1&#45;&gt;Node5 -->
<g id="edge4_Node000001_Node000005" class="edge">
<title>Node1&#45;&gt;Node5</title>
<g id="a_edge4_Node000001_Node000005"><a xlink:title=" ">
<path fill="none" stroke="#63b8ff" d="M136.07,-102.95C147.21,-101.69 158.9,-100.38 170.42,-99.08"/>
<polygon fill="#63b8ff" stroke="#63b8ff" points="170.94,-102.54 180.49,-97.95 170.16,-95.59 170.94,-102.54"/>
</a>
</g>
</g>
<!-- Node6 -->
<g id="Node000006" class="node">
<title>Node6</title>
<g id="a_Node000006"><a xlink:href="classZtLogger.html#a707c469faa37ed9db73c2183097b6dfb" target="_top" xlink:title="Logs a successful decryption event.">
<polygon fill="white" stroke="#666666" points="325,-56 188,-56 188,-37 325,-37 325,-56"/>
<text text-anchor="middle" x="256.5" y="-44" font-family="Helvetica,sans-Serif" font-size="10.00">ZtLogger::LogDecryption</text>
</a>
</g>
</g>
<!-- Node1&#45;&gt;Node6 -->
<g id="edge6_Node000001_Node000006" class="edge">
<title>Node1&#45;&gt;Node6</title>
<g id="a_edge6_Node000001_Node000006"><a xlink:title=" ">
<path fill="none" stroke="#63b8ff" d="M87.94,-100.93C108.29,-90.97 141.79,-75.44 172,-65.5 179.92,-62.9 188.37,-60.52 196.75,-58.4"/>
<polygon fill="#63b8ff" stroke="#63b8ff" points="197.62,-61.79 206.51,-56.03 195.96,-54.99 197.62,-61.79"/>
</a>
</g>
</g>
<!-- Node7 -->
<g id="Node000007" class="node">
<title>Node7</title>
<g id="a_Node000007"><a xlink:href="classZtLogger.html#aacf37e88e6a7076e227056e8d64f9876" target="_top" xlink:title="Logs a decryption failure event.">
<polygon fill="white" stroke="#666666" points="341,-19 172,-19 172,0 341,0 341,-19"/>
<text text-anchor="middle" x="256.5" y="-7" font-family="Helvetica,sans-Serif" font-size="10.00">ZtLogger::LogDecryptionFailure</text>
</a>
</g>
</g>
<!-- Node1&#45;&gt;Node7 -->
<g id="edge8_Node000001_Node000007" class="edge">
<title>Node1&#45;&gt;Node7</title>
<g id="a_edge8_Node000001_Node000007"><a xlink:title=" ">
<path fill="none" stroke="#63b8ff" d="M77.94,-100.98C94.68,-83.75 132.65,-47.41 172,-28.5 177.02,-26.08 182.37,-23.97 187.83,-22.12"/>
<polygon fill="#63b8ff" stroke="#63b8ff" points="189.22,-25.35 197.75,-19.06 187.16,-18.66 189.22,-25.35"/>
</a>
</g>
</g>
<!-- Node5&#45;&gt;Node4 -->
<g id="edge5_Node000005_Node000004" class="edge">
<title>Node5&#45;&gt;Node4</title>
<g id="a_edge5_Node000005_Node000004"><a xlink:title=" ">
<path fill="none" stroke="#63b8ff" d="M332.81,-79.14C344.36,-77.56 356.04,-75.95 366.88,-74.46"/>
<polygon fill="#63b8ff" stroke="#63b8ff" points="367.56,-77.9 376.99,-73.07 366.61,-70.97 367.56,-77.9"/>
</a>
</g>
</g>
<!-- Node6&#45;&gt;Node4 -->
<g id="edge7_Node000006_Node000004" class="edge">
<title>Node6&#45;&gt;Node4</title>
<g id="a_edge7_Node000006_Node000004"><a xlink:title=" ">
<path fill="none" stroke="#63b8ff" d="M325.35,-55.41C339.2,-57.22 353.54,-59.11 366.67,-60.83"/>
<polygon fill="#63b8ff" stroke="#63b8ff" points="366.53,-64.34 376.9,-62.17 367.44,-57.4 366.53,-64.34"/>
</a>
</g>
</g>
<!-- Node7&#45;&gt;Node4 -->
<g id="edge9_Node000007_Node000004" class="edge">
<title>Node7&#45;&gt;Node4</title>
<g id="a_edge9_Node000007_Node000004"><a xlink:title=" ">
<path fill="none" stroke="#63b8ff" d="M308.86,-19.08C319.62,-21.67 330.8,-24.8 341,-28.5 358.94,-35 378.06,-44.75 392.69,-52.87"/>
<polygon fill="#63b8ff" stroke="#63b8ff" points="391.18,-56.04 401.61,-57.92 394.64,-49.95 391.18,-56.04"/>
</a>
</g>
</g>
</g>
</svg>
