<?xml version="1.0" encoding="UTF-8" standalone="no"?>
<!DOCTYPE svg PUBLIC "-//W3C//DTD SVG 1.1//EN"
 "http://www.w3.org/Graphics/SVG/1.1/DTD/svg11.dtd">
<!-- Generated by graphviz version 2.43.0 (0)
 -->
<!-- Title: SecureSink::StartApplication Pages: 1 -->
<!--zoomable 225 -->

<svg id="main" version="1.1" xmlns="http://www.w3.org/2000/svg" xmlns:xlink="http://www.w3.org/1999/xlink" xml:space="preserve" onload="init(evt)">
<style type="text/css"><![CDATA[
.node, .edge {opacity: 0.7;}
.node.selected, .edge.selected {opacity: 1;}
.edge:hover path { stroke: red; }
.edge:hover polygon { stroke: red; fill: red; }
]]></style>

<defs>
  <circle id="rim" cx="0" cy="0" r="7"/>
  <circle id="rim2" cx="0" cy="0" r="3.5"/>
  <g id="zoomPlus">
    <use xlink:href="#rim" fill="#404040"><set attributeName="fill" to="#808080" begin="zoomplus.mouseover" end="zoomplus.mouseout"/></use>
    <path d="M-4,0h8M0,-4v8" fill="none" stroke="white" stroke-width="1.5" pointer-events="none"/>
  </g>
  <g id="zoomMin">
    <use xlink:href="#rim" fill="#404040"><set attributeName="fill" to="#808080" begin="zoomminus.mouseover" end="zoomminus.mouseout"/></use>
    <path d="M-4,0h8" fill="none" stroke="white" stroke-width="1.5" pointer-events="none"/>
  </g>
  <g id="arrowUp" transform="translate(30 24)">
    <use xlink:href="#rim"/>
    <path pointer-events="none" fill="none" stroke="white" stroke-width="1.5" d="M0,-3.0v7 M-2.5,-0.5L0,-3.0L2.5,-0.5"/>
  </g>
  <g id="arrowRight" transform="rotate(90) translate(36 -43)">
    <use xlink:href="#rim"/>
    <path pointer-events="none" fill="none" stroke="white" stroke-width="1.5" d="M0,-3.0v7 M-2.5,-0.5L0,-3.0L2.5,-0.5"/>
  </g>
  <g id="arrowDown" transform="rotate(180) translate(-30 -48)">
    <use xlink:href="#rim"/>
    <path pointer-events="none" fill="none" stroke="white" stroke-width="1.5" d="M0,-3.0v7 M-2.5,-0.5L0,-3.0L2.5,-0.5"/>
  </g>
  <g id="arrowLeft" transform="rotate(270) translate(-36 17)">
    <use xlink:href="#rim"/>
    <path pointer-events="none" fill="none" stroke="white" stroke-width="1.5" d="M0,-3.0v7 M-2.5,-0.5L0,-3.0L2.5,-0.5"/>
  </g>
  <g id="resetDef">
    <use xlink:href="#rim2" fill="#404040"><set attributeName="fill" to="#808080" begin="reset.mouseover" end="reset.mouseout"/></use>
  </g>
</defs>
<script type="application/ecmascript">
var viewWidth = 839;
var viewHeight = 225;
var sectionId = 'dynsection-6';
</script>
<script type="application/ecmascript" xlink:href="svg.min.js"/>
<svg id="graph" class="graph">
<g id="viewport">
<title>SecureSink::StartApplication</title>
<!-- Node1 -->
<g id="Node000001" class="node">
<title>Node1</title>
<g id="a_Node000001"><a xlink:title=" ">
<polygon fill="#999999" stroke="#666666" points="155,-120 0,-120 0,-101 155,-101 155,-120"/>
<text text-anchor="middle" x="77.5" y="-108" font-family="Helvetica,sans-Serif" font-size="10.00">SecureSink::StartApplication</text>
</a>
</g>
</g>
<!-- Node2 -->
<g id="Node000002" class="node">
<title>Node2</title>
<g id="a_Node000002"><a xlink:href="classSecureSink.html#a5e00071e0d8327c46c34d2ffdbc386bc" target="_top" xlink:title=" ">
<polygon fill="white" stroke="#666666" points="335,-120 191,-120 191,-101 335,-101 335,-120"/>
<text text-anchor="middle" x="263" y="-108" font-family="Helvetica,sans-Serif" font-size="10.00">SecureSink::HandleAccept</text>
</a>
</g>
</g>
<!-- Node1&#45;&gt;Node2 -->
<g id="edge1_Node000001_Node000002" class="edge">
<title>Node1&#45;&gt;Node2</title>
<g id="a_edge1_Node000001_Node000002"><a xlink:title=" ">
<path fill="none" stroke="#63b8ff" d="M155.26,-110.5C163.64,-110.5 172.19,-110.5 180.62,-110.5"/>
<polygon fill="#63b8ff" stroke="#63b8ff" points="180.82,-114 190.82,-110.5 180.82,-107 180.82,-114"/>
</a>
</g>
</g>
<!-- Node3 -->
<g id="Node000003" class="node">
<title>Node3</title>
<g id="a_Node000003"><a xlink:href="classSecureSink.html#a5987bbdb44f0b13e034968f6f836a61e" target="_top" xlink:title=" ">
<polygon fill="white" stroke="#666666" points="507,-120 371,-120 371,-101 507,-101 507,-120"/>
<text text-anchor="middle" x="439" y="-108" font-family="Helvetica,sans-Serif" font-size="10.00">SecureSink::HandleRead</text>
</a>
</g>
</g>
<!-- Node2&#45;&gt;Node3 -->
<g id="edge2_Node000002_Node000003" class="edge">
<title>Node2&#45;&gt;Node3</title>
<g id="a_edge2_Node000002_Node000003"><a xlink:title=" ">
<path fill="none" stroke="#63b8ff" d="M335.02,-110.5C343.53,-110.5 352.26,-110.5 360.85,-110.5"/>
<polygon fill="#63b8ff" stroke="#63b8ff" points="360.85,-114 370.85,-110.5 360.85,-107 360.85,-114"/>
</a>
</g>
</g>
<!-- Node4 -->
<g id="Node000004" class="node">
<title>Node4</title>
<g id="a_Node000004"><a xlink:href="namespacens3.html#abcc9f927462e02351cf483e484c8eac0" target="_top" xlink:title="Decrypts a ciphertext string encrypted with EncryptPayload.">
<polygon fill="white" stroke="#666666" points="685.5,-217 569.5,-217 569.5,-198 685.5,-198 685.5,-217"/>
<text text-anchor="middle" x="627.5" y="-205" font-family="Helvetica,sans-Serif" font-size="10.00">ns3::DecryptPayload</text>
</a>
</g>
</g>
<!-- Node3&#45;&gt;Node4 -->
<g id="edge3_Node000003_Node000004" class="edge">
<title>Node3&#45;&gt;Node4</title>
<g id="a_edge3_Node000003_Node000004"><a xlink:title=" ">
<path fill="none" stroke="#63b8ff" d="M449.53,-120.23C466.62,-137.08 504.34,-171.62 543,-189.5 548.26,-191.93 553.86,-194.04 559.57,-195.87"/>
<polygon fill="#63b8ff" stroke="#63b8ff" points="558.67,-199.26 569.25,-198.69 560.63,-192.53 558.67,-199.26"/>
</a>
</g>
</g>
<!-- Node5 -->
<g id="Node000005" class="node">
<title>Node5</title>
<g id="a_Node000005"><a xlink:href="namespacens3.html#aa5c1b03e21921c7c1fabc7602f96b230" target="_top" xlink:title="Converts a hexadecimal string into a byte vector.">
<polygon fill="white" stroke="#666666" points="676.5,-180 578.5,-180 578.5,-161 676.5,-161 676.5,-180"/>
<text text-anchor="middle" x="627.5" y="-168" font-family="Helvetica,sans-Serif" font-size="10.00">ns3::HexToBytes</text>
</a>
</g>
</g>
<!-- Node3&#45;&gt;Node5 -->
<g id="edge4_Node000003_Node000005" class="edge">
<title>Node3&#45;&gt;Node5</title>
<g id="a_edge4_Node000003_Node000005"><a xlink:title=" ">
<path fill="none" stroke="#63b8ff" d="M466.11,-120.08C486.85,-127.58 516.65,-138.11 543,-146.5 555.48,-150.47 569.09,-154.51 581.64,-158.11"/>
<polygon fill="#63b8ff" stroke="#63b8ff" points="580.85,-161.52 591.43,-160.89 582.77,-154.79 580.85,-161.52"/>
</a>
</g>
</g>
<!-- Node6 -->
<g id="Node000006" class="node">
<title>Node6</title>
<g id="a_Node000006"><a xlink:href="classZtLogger.html#ab4743f29e35568cb7e4652d3b012061d" target="_top" xlink:title="Logs a general message with a specified tag.">
<polygon fill="white" stroke="#666666" points="831,-77 748,-77 748,-58 831,-58 831,-77"/>
<text text-anchor="middle" x="789.5" y="-65" font-family="Helvetica,sans-Serif" font-size="10.00">ZtLogger::Log</text>
</a>
</g>
</g>
<!-- Node3&#45;&gt;Node6 -->
<g id="edge5_Node000003_Node000006" class="edge">
<title>Node3&#45;&gt;Node6</title>
<g id="a_edge5_Node000003_Node000006"><a xlink:title=" ">
<path fill="none" stroke="#63b8ff" d="M495.61,-120.01C551.42,-127.5 639.31,-133.67 712,-113.5 733.02,-107.67 754.06,-94.34 768.74,-83.52"/>
<polygon fill="#63b8ff" stroke="#63b8ff" points="771.18,-86.06 777,-77.2 766.93,-80.5 771.18,-86.06"/>
</a>
</g>
</g>
<!-- Node7 -->
<g id="Node000007" class="node">
<title>Node7</title>
<g id="a_Node000007"><a xlink:href="classZtLogger.html#a7cb7af75ab16a0546537b47c0ca9c72c" target="_top" xlink:title="Logs the result of certificate validation.">
<polygon fill="white" stroke="#666666" points="703.5,-104.5 551.5,-104.5 551.5,-74.5 703.5,-74.5 703.5,-104.5"/>
<text text-anchor="start" x="559.5" y="-92.5" font-family="Helvetica,sans-Serif" font-size="10.00">ZtLogger::LogCertValidation</text>
<text text-anchor="middle" x="627.5" y="-81.5" font-family="Helvetica,sans-Serif" font-size="10.00">Result</text>
</a>
</g>
</g>
<!-- Node3&#45;&gt;Node7 -->
<g id="edge6_Node000003_Node000007" class="edge">
<title>Node3&#45;&gt;Node7</title>
<g id="a_edge6_Node000003_Node000007"><a xlink:title=" ">
<path fill="none" stroke="#63b8ff" d="M507.07,-102.95C518.21,-101.69 529.9,-100.38 541.42,-99.08"/>
<polygon fill="#63b8ff" stroke="#63b8ff" points="541.94,-102.54 551.49,-97.95 541.16,-95.59 541.94,-102.54"/>
</a>
</g>
</g>
<!-- Node8 -->
<g id="Node000008" class="node">
<title>Node8</title>
<g id="a_Node000008"><a xlink:href="classZtLogger.html#a707c469faa37ed9db73c2183097b6dfb" target="_top" xlink:title="Logs a successful decryption event.">
<polygon fill="white" stroke="#666666" points="696,-56 559,-56 559,-37 696,-37 696,-56"/>
<text text-anchor="middle" x="627.5" y="-44" font-family="Helvetica,sans-Serif" font-size="10.00">ZtLogger::LogDecryption</text>
</a>
</g>
</g>
<!-- Node3&#45;&gt;Node8 -->
<g id="edge8_Node000003_Node000008" class="edge">
<title>Node3&#45;&gt;Node8</title>
<g id="a_edge8_Node000003_Node000008"><a xlink:title=" ">
<path fill="none" stroke="#63b8ff" d="M458.94,-100.93C479.29,-90.97 512.79,-75.44 543,-65.5 550.92,-62.9 559.37,-60.52 567.75,-58.4"/>
<polygon fill="#63b8ff" stroke="#63b8ff" points="568.62,-61.79 577.51,-56.03 566.96,-54.99 568.62,-61.79"/>
</a>
</g>
</g>
<!-- Node9 -->
<g id="Node000009" class="node">
<title>Node9</title>
<g id="a_Node000009"><a xlink:href="classZtLogger.html#aacf37e88e6a7076e227056e8d64f9876" target="_top" xlink:title="Logs a decryption failure event.">
<polygon fill="white" stroke="#666666" points="712,-19 543,-19 543,0 712,0 712,-19"/>
<text text-anchor="middle" x="627.5" y="-7" font-family="Helvetica,sans-Serif" font-size="10.00">ZtLogger::LogDecryptionFailure</text>
</a>
</g>
</g>
<!-- Node3&#45;&gt;Node9 -->
<g id="edge10_Node000003_Node000009" class="edge">
<title>Node3&#45;&gt;Node9</title>
<g id="a_edge10_Node000003_Node000009"><a xlink:title=" ">
<path fill="none" stroke="#63b8ff" d="M448.94,-100.98C465.68,-83.75 503.65,-47.41 543,-28.5 548.02,-26.08 553.37,-23.97 558.83,-22.12"/>
<polygon fill="#63b8ff" stroke="#63b8ff" points="560.22,-25.35 568.75,-19.06 558.16,-18.66 560.22,-25.35"/>
</a>
</g>
</g>
<!-- Node7&#45;&gt;Node6 -->
<g id="edge7_Node000007_Node000006" class="edge">
<title>Node7&#45;&gt;Node6</title>
<g id="a_edge7_Node000007_Node000006"><a xlink:title=" ">
<path fill="none" stroke="#63b8ff" d="M703.81,-79.14C715.36,-77.56 727.04,-75.95 737.88,-74.46"/>
<polygon fill="#63b8ff" stroke="#63b8ff" points="738.56,-77.9 747.99,-73.07 737.61,-70.97 738.56,-77.9"/>
</a>
</g>
</g>
<!-- Node8&#45;&gt;Node6 -->
<g id="edge9_Node000008_Node000006" class="edge">
<title>Node8&#45;&gt;Node6</title>
<g id="a_edge9_Node000008_Node000006"><a xlink:title=" ">
<path fill="none" stroke="#63b8ff" d="M696.35,-55.41C710.2,-57.22 724.54,-59.11 737.67,-60.83"/>
<polygon fill="#63b8ff" stroke="#63b8ff" points="737.53,-64.34 747.9,-62.17 738.44,-57.4 737.53,-64.34"/>
</a>
</g>
</g>
<!-- Node9&#45;&gt;Node6 -->
<g id="edge11_Node000009_Node000006" class="edge">
<title>Node9&#45;&gt;Node6</title>
<g id="a_edge11_Node000009_Node000006"><a xlink:title=" ">
<path fill="none" stroke="#63b8ff" d="M679.86,-19.08C690.62,-21.67 701.8,-24.8 712,-28.5 729.94,-35 749.06,-44.75 763.69,-52.87"/>
<polygon fill="#63b8ff" stroke="#63b8ff" points="762.18,-56.04 772.61,-57.92 765.64,-49.95 762.18,-56.04"/>
</a>
</g>
</g>
</g>
</svg>

<g id="navigator" transform="translate(0 0)" fill="#404254">
  <rect fill="#f2f5e9" fill-opacity="0.5" stroke="#606060" stroke-width=".5" x="0" y="0" width="60" height="60"/>
  <use id="zoomplus" xlink:href="#zoomPlus" x="17" y="9" onmousedown="handleZoom(evt,'in')"/>
  <use id="zoomminus" xlink:href="#zoomMin" x="42" y="9" onmousedown="handleZoom(evt,'out')"/>
  <use id="reset" xlink:href="#resetDef" x="30" y="36" onmousedown="handleReset()"/>
   <use id="arrowup" xlink:href="#arrowUp" x="0" y="0" onmousedown="handlePan(0,-1)"/>
  <use id="arrowright" xlink:href="#arrowRight" x="0" y="0" onmousedown="handlePan(1,0)"/>
  <use id="arrowdown" xlink:href="#arrowDown" x="0" y="0" onmousedown="handlePan(0,1)"/>
  <use id="arrowleft" xlink:href="#arrowLeft" x="0" y="0" onmousedown="handlePan(-1,0)"/>
</g>
<svg viewBox="0 0 15 15" width="100%" height="30px" preserveAspectRatio="xMaxYMin meet">
 <g id="arrow_out" transform="scale(0.3 0.3)">
  <a xlink:href="classSecureSink_ad09b7203b04b80cb3a8c89eb9174fbd2_cgraph_org.svg" target="_base">
   <rect id="button" ry="5" rx="5" y="6" x="6" height="38" width="38"
        fill="#f2f5e9" fill-opacity="0.5" stroke="#606060" stroke-width="1.0"/>
   <path id="arrow"
     d="M 11.500037,31.436501 C 11.940474,20.09759 22.043105,11.32322 32.158766,21.979434 L 37.068811,17.246167 C 37.068811,17.246167 37.088388,32 37.088388,32 L 22.160133,31.978069 C 22.160133,31.978069 26.997745,27.140456 26.997745,27.140456 C 18.528582,18.264221 13.291696,25.230495 11.500037,31.436501 z"
     style="fill:#404040;"/>
  </a>
 </g>
</svg>

<style type='text/css'>
<![CDATA[
[data-mouse-over-selected='false'] { opacity: 0.7; }
[data-mouse-over-selected='true']  { opacity: 1.0; }
]]>
</style>
<script type="application/ecmascript"><![CDATA[
document.addEventListener('DOMContentLoaded', (event) => {
  highlightEdges();
  highlightAdjacentNodes();
});
]]></script>
</svg>
