<?xml version="1.0" encoding="UTF-8" standalone="no"?>
<!DOCTYPE svg PUBLIC "-//W3C//DTD SVG 1.1//EN"
 "http://www.w3.org/Graphics/SVG/1.1/DTD/svg11.dtd">
<!-- Generated by graphviz version 2.43.0 (0)
 -->
<!-- Title: SecureSinkApp::HandleAccept Pages: 1 -->
<svg width="686pt" height="225pt"
 viewBox="0.00 0.00 686.00 225.00" xmlns="http://www.w3.org/2000/svg" xmlns:xlink="http://www.w3.org/1999/xlink">
<g id="graph0" class="graph" transform="scale(1 1) rotate(0) translate(4 221)">
<title>SecureSinkApp::HandleAccept</title>
<!-- Node1 -->
<g id="Node000001" class="node">
<title>Node1</title>
<g id="a_Node000001"><a xlink:title=" ">
<polygon fill="#999999" stroke="#666666" points="163,-120 0,-120 0,-101 163,-101 163,-120"/>
<text text-anchor="middle" x="81.5" y="-108" font-family="Helvetica,sans-Serif" font-size="10.00">SecureSinkApp::HandleAccept</text>
</a>
</g>
</g>
<!-- Node2 -->
<g id="Node000002" class="node">
<title>Node2</title>
<g id="a_Node000002"><a xlink:href="classSecureSinkApp.html#a3a672bd05d4399036c2f7fe92c205962" target="_top" xlink:title="Handle incoming packets, validate certificate, and decrypt authorized data.">
<polygon fill="white" stroke="#666666" points="354,-120 199,-120 199,-101 354,-101 354,-120"/>
<text text-anchor="middle" x="276.5" y="-108" font-family="Helvetica,sans-Serif" font-size="10.00">SecureSinkApp::HandleRead</text>
</a>
</g>
</g>
<!-- Node1&#45;&gt;Node2 -->
<g id="edge1_Node000001_Node000002" class="edge">
<title>Node1&#45;&gt;Node2</title>
<g id="a_edge1_Node000001_Node000002"><a xlink:title=" ">
<path fill="none" stroke="#63b8ff" d="M163.23,-110.5C171.6,-110.5 180.14,-110.5 188.57,-110.5"/>
<polygon fill="#63b8ff" stroke="#63b8ff" points="188.8,-114 198.8,-110.5 188.8,-107 188.8,-114"/>
</a>
</g>
</g>
<!-- Node3 -->
<g id="Node000003" class="node">
<title>Node3</title>
<g id="a_Node000003"><a xlink:href="namespacens3.html#abcc9f927462e02351cf483e484c8eac0" target="_top" xlink:title="Decrypts a ciphertext string encrypted with EncryptPayload.">
<polygon fill="white" stroke="#666666" points="532.5,-217 416.5,-217 416.5,-198 532.5,-198 532.5,-217"/>
<text text-anchor="middle" x="474.5" y="-205" font-family="Helvetica,sans-Serif" font-size="10.00">ns3::DecryptPayload</text>
</a>
</g>
</g>
<!-- Node2&#45;&gt;Node3 -->
<g id="edge2_Node000002_Node000003" class="edge">
<title>Node2&#45;&gt;Node3</title>
<g id="a_edge2_Node000002_Node000003"><a xlink:title=" ">
<path fill="none" stroke="#63b8ff" d="M288.09,-120.19C307.05,-136.98 348.67,-171.43 390,-189.5 395.31,-191.82 400.94,-193.85 406.68,-195.63"/>
<polygon fill="#63b8ff" stroke="#63b8ff" points="405.81,-199.02 416.39,-198.39 407.73,-192.29 405.81,-199.02"/>
</a>
</g>
</g>
<!-- Node4 -->
<g id="Node000004" class="node">
<title>Node4</title>
<g id="a_Node000004"><a xlink:href="namespacens3.html#aa5c1b03e21921c7c1fabc7602f96b230" target="_top" xlink:title="Converts a hexadecimal string into a byte vector.">
<polygon fill="white" stroke="#666666" points="523.5,-180 425.5,-180 425.5,-161 523.5,-161 523.5,-180"/>
<text text-anchor="middle" x="474.5" y="-168" font-family="Helvetica,sans-Serif" font-size="10.00">ns3::HexToBytes</text>
</a>
</g>
</g>
<!-- Node2&#45;&gt;Node4 -->
<g id="edge3_Node000002_Node000004" class="edge">
<title>Node2&#45;&gt;Node4</title>
<g id="a_edge3_Node000002_Node000004"><a xlink:title=" ">
<path fill="none" stroke="#63b8ff" d="M306.56,-120.06C329.23,-127.46 361.55,-137.86 390,-146.5 402.75,-150.37 416.65,-154.43 429.39,-158.09"/>
<polygon fill="#63b8ff" stroke="#63b8ff" points="428.73,-161.54 439.31,-160.92 430.65,-154.81 428.73,-161.54"/>
</a>
</g>
</g>
<!-- Node5 -->
<g id="Node000005" class="node">
<title>Node5</title>
<g id="a_Node000005"><a xlink:href="classZtLogger.html#ab4743f29e35568cb7e4652d3b012061d" target="_top" xlink:title="Logs a general message with a specified tag.">
<polygon fill="white" stroke="#666666" points="678,-77 595,-77 595,-58 678,-58 678,-77"/>
<text text-anchor="middle" x="636.5" y="-65" font-family="Helvetica,sans-Serif" font-size="10.00">ZtLogger::Log</text>
</a>
</g>
</g>
<!-- Node2&#45;&gt;Node5 -->
<g id="edge4_Node000002_Node000005" class="edge">
<title>Node2&#45;&gt;Node5</title>
<g id="a_edge4_Node000002_Node000005"><a xlink:title=" ">
<path fill="none" stroke="#63b8ff" d="M332.9,-120.02C390.53,-127.87 482.82,-134.64 559,-113.5 580.02,-107.67 601.06,-94.34 615.74,-83.52"/>
<polygon fill="#63b8ff" stroke="#63b8ff" points="618.18,-86.06 624,-77.2 613.93,-80.5 618.18,-86.06"/>
</a>
</g>
</g>
<!-- Node6 -->
<g id="Node000006" class="node">
<title>Node6</title>
<g id="a_Node000006"><a xlink:href="classZtLogger.html#a7cb7af75ab16a0546537b47c0ca9c72c" target="_top" xlink:title="Logs the result of certificate validation.">
<polygon fill="white" stroke="#666666" points="550.5,-104.5 398.5,-104.5 398.5,-74.5 550.5,-74.5 550.5,-104.5"/>
<text text-anchor="start" x="406.5" y="-92.5" font-family="Helvetica,sans-Serif" font-size="10.00">ZtLogger::LogCertValidation</text>
<text text-anchor="middle" x="474.5" y="-81.5" font-family="Helvetica,sans-Serif" font-size="10.00">Result</text>
</a>
</g>
</g>
<!-- Node2&#45;&gt;Node6 -->
<g id="edge5_Node000002_Node000006" class="edge">
<title>Node2&#45;&gt;Node6</title>
<g id="a_edge5_Node000002_Node000006"><a xlink:title=" ">
<path fill="none" stroke="#63b8ff" d="M354.12,-102.29C365.22,-101.1 376.7,-99.87 387.96,-98.67"/>
<polygon fill="#63b8ff" stroke="#63b8ff" points="388.65,-102.11 398.22,-97.57 387.9,-95.15 388.65,-102.11"/>
</a>
</g>
</g>
<!-- Node7 -->
<g id="Node000007" class="node">
<title>Node7</title>
<g id="a_Node000007"><a xlink:href="classZtLogger.html#a707c469faa37ed9db73c2183097b6dfb" target="_top" xlink:title="Logs a successful decryption event.">
<polygon fill="white" stroke="#666666" points="543,-56 406,-56 406,-37 543,-37 543,-56"/>
<text text-anchor="middle" x="474.5" y="-44" font-family="Helvetica,sans-Serif" font-size="10.00">ZtLogger::LogDecryption</text>
</a>
</g>
</g>
<!-- Node2&#45;&gt;Node7 -->
<g id="edge7_Node000002_Node000007" class="edge">
<title>Node2&#45;&gt;Node7</title>
<g id="a_edge7_Node000002_Node000007"><a xlink:title=" ">
<path fill="none" stroke="#63b8ff" d="M298.71,-100.86C321.06,-90.97 357.47,-75.64 390,-65.5 398.16,-62.96 406.87,-60.6 415.47,-58.47"/>
<polygon fill="#63b8ff" stroke="#63b8ff" points="416.56,-61.81 425.47,-56.08 414.93,-55 416.56,-61.81"/>
</a>
</g>
</g>
<!-- Node8 -->
<g id="Node000008" class="node">
<title>Node8</title>
<g id="a_Node000008"><a xlink:href="classZtLogger.html#aacf37e88e6a7076e227056e8d64f9876" target="_top" xlink:title="Logs a decryption failure event.">
<polygon fill="white" stroke="#666666" points="559,-19 390,-19 390,0 559,0 559,-19"/>
<text text-anchor="middle" x="474.5" y="-7" font-family="Helvetica,sans-Serif" font-size="10.00">ZtLogger::LogDecryptionFailure</text>
</a>
</g>
</g>
<!-- Node2&#45;&gt;Node8 -->
<g id="edge9_Node000002_Node000008" class="edge">
<title>Node2&#45;&gt;Node8</title>
<g id="a_edge9_Node000002_Node000008"><a xlink:title=" ">
<path fill="none" stroke="#63b8ff" d="M287.74,-100.75C306.48,-83.47 348.2,-47.51 390,-28.5 395.46,-26.02 401.28,-23.84 407.2,-21.94"/>
<polygon fill="#63b8ff" stroke="#63b8ff" points="408.61,-25.18 417.22,-19 406.64,-18.46 408.61,-25.18"/>
</a>
</g>
</g>
<!-- Node6&#45;&gt;Node5 -->
<g id="edge6_Node000006_Node000005" class="edge">
<title>Node6&#45;&gt;Node5</title>
<g id="a_edge6_Node000006_Node000005"><a xlink:title=" ">
<path fill="none" stroke="#63b8ff" d="M550.81,-79.14C562.36,-77.56 574.04,-75.95 584.88,-74.46"/>
<polygon fill="#63b8ff" stroke="#63b8ff" points="585.56,-77.9 594.99,-73.07 584.61,-70.97 585.56,-77.9"/>
</a>
</g>
</g>
<!-- Node7&#45;&gt;Node5 -->
<g id="edge8_Node000007_Node000005" class="edge">
<title>Node7&#45;&gt;Node5</title>
<g id="a_edge8_Node000007_Node000005"><a xlink:title=" ">
<path fill="none" stroke="#63b8ff" d="M543.35,-55.41C557.2,-57.22 571.54,-59.11 584.67,-60.83"/>
<polygon fill="#63b8ff" stroke="#63b8ff" points="584.53,-64.34 594.9,-62.17 585.44,-57.4 584.53,-64.34"/>
</a>
</g>
</g>
<!-- Node8&#45;&gt;Node5 -->
<g id="edge10_Node000008_Node000005" class="edge">
<title>Node8&#45;&gt;Node5</title>
<g id="a_edge10_Node000008_Node000005"><a xlink:title=" ">
<path fill="none" stroke="#63b8ff" d="M526.86,-19.08C537.62,-21.67 548.8,-24.8 559,-28.5 576.94,-35 596.06,-44.75 610.69,-52.87"/>
<polygon fill="#63b8ff" stroke="#63b8ff" points="609.18,-56.04 619.61,-57.92 612.64,-49.95 609.18,-56.04"/>
</a>
</g>
</g>
</g>
</svg>
