<?xml version="1.0" encoding="UTF-8" standalone="no"?>
<!DOCTYPE svg PUBLIC "-//W3C//DTD SVG 1.1//EN"
 "http://www.w3.org/Graphics/SVG/1.1/DTD/svg11.dtd">
<!-- Generated by graphviz version 2.43.0 (0)
 -->
<!-- Title: BasicSink::HandleRead Pages: 1 -->
<svg width="494pt" height="27pt"
 viewBox="0.00 0.00 494.00 27.00" xmlns="http://www.w3.org/2000/svg" xmlns:xlink="http://www.w3.org/1999/xlink">
<g id="graph0" class="graph" transform="scale(1 1) rotate(0) translate(4 23)">
<title>BasicSink::HandleRead</title>
<!-- Node1 -->
<g id="Node000001" class="node">
<title>Node1</title>
<g id="a_Node000001"><a xlink:title="Reads data from connected clients and logs the content.">
<polygon fill="#999999" stroke="#666666" points="486,-19 357,-19 357,0 486,0 486,-19"/>
<text text-anchor="middle" x="421.5" y="-7" font-family="Helvetica,sans-Serif" font-size="10.00">BasicSink::HandleRead</text>
</a>
</g>
</g>
<!-- Node2 -->
<g id="Node000002" class="node">
<title>Node2</title>
<g id="a_Node000002"><a xlink:href="classBasicSink.html#a91395a7d33cae2ac431b52d2427ee27c" target="_top" xlink:title="Handles incoming connections.">
<polygon fill="white" stroke="#666666" points="321,-19 184,-19 184,0 321,0 321,-19"/>
<text text-anchor="middle" x="252.5" y="-7" font-family="Helvetica,sans-Serif" font-size="10.00">BasicSink::HandleAccept</text>
</a>
</g>
</g>
<!-- Node1&#45;&gt;Node2 -->
<g id="edge1_Node000001_Node000002" class="edge">
<title>Node1&#45;&gt;Node2</title>
<g id="a_edge1_Node000001_Node000002"><a xlink:title=" ">
<path fill="none" stroke="#63b8ff" d="M346.62,-9.5C338.13,-9.5 329.51,-9.5 321.1,-9.5"/>
<polygon fill="#63b8ff" stroke="#63b8ff" points="346.89,-13 356.89,-9.5 346.89,-6 346.89,-13"/>
</a>
</g>
</g>
<!-- Node3 -->
<g id="Node000003" class="node">
<title>Node3</title>
<g id="a_Node000003"><a xlink:href="classBasicSink.html#ab0e1e160e166351342628a3ed4cb5a7b" target="_top" xlink:title="Called at application start.">
<polygon fill="white" stroke="#666666" points="148,-19 0,-19 0,0 148,0 148,-19"/>
<text text-anchor="middle" x="74" y="-7" font-family="Helvetica,sans-Serif" font-size="10.00">BasicSink::StartApplication</text>
</a>
</g>
</g>
<!-- Node2&#45;&gt;Node3 -->
<g id="edge2_Node000002_Node000003" class="edge">
<title>Node2&#45;&gt;Node3</title>
<g id="a_edge2_Node000002_Node000003"><a xlink:title=" ">
<path fill="none" stroke="#63b8ff" d="M173.54,-9.5C165.09,-9.5 156.52,-9.5 148.13,-9.5"/>
<polygon fill="#63b8ff" stroke="#63b8ff" points="173.77,-13 183.77,-9.5 173.77,-6 173.77,-13"/>
</a>
</g>
</g>
</g>
</svg>
