<?xml version="1.0" encoding="UTF-8" standalone="no"?>
<!DOCTYPE svg PUBLIC "-//W3C//DTD SVG 1.1//EN"
 "http://www.w3.org/Graphics/SVG/1.1/DTD/svg11.dtd">
<!-- Generated by graphviz version 2.43.0 (0)
 -->
<!-- Title: Graphical Class Hierarchy Pages: 1 -->
<svg width="216pt" height="249pt"
 viewBox="0.00 0.00 216.00 249.00" xmlns="http://www.w3.org/2000/svg" xmlns:xlink="http://www.w3.org/1999/xlink">
<g id="graph0" class="graph" transform="scale(1 1) rotate(0) translate(4 245)">
<title>Graphical Class Hierarchy</title>
<!-- Node0 -->
<g id="Node000000" class="node">
<title>Node0</title>
<g id="a_Node000000"><a xlink:title=" ">
<polygon fill="#e0e0e0" stroke="#999999" points="71,-130 0,-130 0,-111 71,-111 71,-130"/>
<text text-anchor="middle" x="35.5" y="-118" font-family="Helvetica,sans-Serif" font-size="10.00">Application</text>
</a>
</g>
</g>
<!-- Node1 -->
<g id="Node000001" class="node">
<title>Node1</title>
<g id="a_Node000001"><a xlink:href="classAttackerApp.html" target="_top" xlink:title="Simulates an unauthorized device attempting to inject malicious payload.">
<polygon fill="white" stroke="#666666" points="195.5,-241 119.5,-241 119.5,-222 195.5,-222 195.5,-241"/>
<text text-anchor="middle" x="157.5" y="-229" font-family="Helvetica,sans-Serif" font-size="10.00">AttackerApp</text>
</a>
</g>
</g>
<!-- Node0&#45;&gt;Node1 -->
<g id="edge1_Node000000_Node000001" class="edge">
<title>Node0&#45;&gt;Node1</title>
<g id="a_edge1_Node000000_Node000001"><a xlink:title=" ">
<path fill="none" stroke="#63b8ff" d="M46.16,-138.95C57.94,-159.77 79.69,-193.36 107,-213.5 111.56,-216.87 116.82,-219.66 122.16,-221.95"/>
<polygon fill="#63b8ff" stroke="#63b8ff" points="49.2,-137.21 41.34,-130.12 43.06,-140.57 49.2,-137.21"/>
</a>
</g>
</g>
<!-- Node2 -->
<g id="Node000002" class="node">
<title>Node2</title>
<g id="a_Node000002"><a xlink:href="classBasicSink.html" target="_top" xlink:title="A simple TCP server that logs incoming messages.">
<polygon fill="white" stroke="#666666" points="189.5,-204 125.5,-204 125.5,-185 189.5,-185 189.5,-204"/>
<text text-anchor="middle" x="157.5" y="-192" font-family="Helvetica,sans-Serif" font-size="10.00">BasicSink</text>
</a>
</g>
</g>
<!-- Node0&#45;&gt;Node2 -->
<g id="edge2_Node000000_Node000002" class="edge">
<title>Node0&#45;&gt;Node2</title>
<g id="a_edge2_Node000000_Node000002"><a xlink:title=" ">
<path fill="none" stroke="#63b8ff" d="M54.34,-137.37C67.94,-149.52 87.57,-165.63 107,-176.5 112.75,-179.71 119.18,-182.54 125.45,-184.95"/>
<polygon fill="#63b8ff" stroke="#63b8ff" points="56.45,-134.56 46.71,-130.39 51.73,-139.72 56.45,-134.56"/>
</a>
</g>
</g>
<!-- Node3 -->
<g id="Node000003" class="node">
<title>Node3</title>
<g id="a_Node000003"><a xlink:href="classSecureSensorApp.html" target="_top" xlink:title="Secure TCP&#45;based sensor application that sends encrypted data after Zero Trust handshake and certific...">
<polygon fill="white" stroke="#666666" points="208,-167 107,-167 107,-148 208,-148 208,-167"/>
<text text-anchor="middle" x="157.5" y="-155" font-family="Helvetica,sans-Serif" font-size="10.00">SecureSensorApp</text>
</a>
</g>
</g>
<!-- Node0&#45;&gt;Node3 -->
<g id="edge3_Node000000_Node000003" class="edge">
<title>Node0&#45;&gt;Node3</title>
<g id="a_edge3_Node000000_Node000003"><a xlink:title=" ">
<path fill="none" stroke="#63b8ff" d="M77.37,-133.1C93.04,-137.93 110.66,-143.37 125.28,-147.88"/>
<polygon fill="#63b8ff" stroke="#63b8ff" points="77.99,-129.63 67.4,-130.03 75.93,-136.32 77.99,-129.63"/>
</a>
</g>
</g>
<!-- Node4 -->
<g id="Node000004" class="node">
<title>Node4</title>
<g id="a_Node000004"><a xlink:href="classSecureSink.html" target="_top" xlink:title="A secure receiver that verifies certificates and decrypts data if authorized.">
<polygon fill="white" stroke="#666666" points="193,-130 122,-130 122,-111 193,-111 193,-130"/>
<text text-anchor="middle" x="157.5" y="-118" font-family="Helvetica,sans-Serif" font-size="10.00">SecureSink</text>
</a>
</g>
</g>
<!-- Node0&#45;&gt;Node4 -->
<g id="edge4_Node000000_Node000004" class="edge">
<title>Node0&#45;&gt;Node4</title>
<g id="a_edge4_Node000000_Node000004"><a xlink:title=" ">
<path fill="none" stroke="#63b8ff" d="M81.22,-120.5C94.66,-120.5 109.19,-120.5 121.87,-120.5"/>
<polygon fill="#63b8ff" stroke="#63b8ff" points="81.21,-117 71.21,-120.5 81.21,-124 81.21,-117"/>
</a>
</g>
</g>
<!-- Node5 -->
<g id="Node000005" class="node">
<title>Node5</title>
<g id="a_Node000005"><a xlink:href="classSecureSinkApp.html" target="_top" xlink:title="Secure receiver (gateway) that authorizes senders and decrypts valid messages.">
<polygon fill="white" stroke="#666666" points="202,-93 113,-93 113,-74 202,-74 202,-93"/>
<text text-anchor="middle" x="157.5" y="-81" font-family="Helvetica,sans-Serif" font-size="10.00">SecureSinkApp</text>
</a>
</g>
</g>
<!-- Node0&#45;&gt;Node5 -->
<g id="edge5_Node000000_Node000005" class="edge">
<title>Node0&#45;&gt;Node5</title>
<g id="a_edge5_Node000000_Node000005"><a xlink:title=" ">
<path fill="none" stroke="#63b8ff" d="M77.37,-107.9C93.04,-103.07 110.66,-97.63 125.28,-93.12"/>
<polygon fill="#63b8ff" stroke="#63b8ff" points="75.93,-104.68 67.4,-110.97 77.99,-111.37 75.93,-104.68"/>
</a>
</g>
</g>
<!-- Node6 -->
<g id="Node000006" class="node">
<title>Node6</title>
<g id="a_Node000006"><a xlink:href="classSimpleTcpApp.html" target="_top" xlink:title="Simple untrusted TCP application used by attacker to send garbage payloads.">
<polygon fill="white" stroke="#666666" points="200,-56 115,-56 115,-37 200,-37 200,-56"/>
<text text-anchor="middle" x="157.5" y="-44" font-family="Helvetica,sans-Serif" font-size="10.00">SimpleTcpApp</text>
</a>
</g>
</g>
<!-- Node0&#45;&gt;Node6 -->
<g id="edge6_Node000000_Node000006" class="edge">
<title>Node0&#45;&gt;Node6</title>
<g id="a_edge6_Node000000_Node000006"><a xlink:title=" ">
<path fill="none" stroke="#63b8ff" d="M54.45,-104.06C68.1,-92.18 87.75,-76.38 107,-65.5 113.33,-61.92 120.47,-58.74 127.31,-56.06"/>
<polygon fill="#63b8ff" stroke="#63b8ff" points="51.93,-101.61 46.78,-110.87 56.58,-106.84 51.93,-101.61"/>
</a>
</g>
</g>
<!-- Node7 -->
<g id="Node000007" class="node">
<title>Node7</title>
<g id="a_Node000007"><a xlink:href="classTcpReceiver.html" target="_top" xlink:title="A simple TCP server application that receives and logs incoming messages.">
<polygon fill="white" stroke="#666666" points="195,-19 120,-19 120,0 195,0 195,-19"/>
<text text-anchor="middle" x="157.5" y="-7" font-family="Helvetica,sans-Serif" font-size="10.00">TcpReceiver</text>
</a>
</g>
</g>
<!-- Node0&#45;&gt;Node7 -->
<g id="edge7_Node000000_Node000007" class="edge">
<title>Node0&#45;&gt;Node7</title>
<g id="a_edge7_Node000000_Node000007"><a xlink:title=" ">
<path fill="none" stroke="#63b8ff" d="M46.46,-102.02C58.38,-81.48 80.14,-48.57 107,-28.5 112.09,-24.7 118.03,-21.57 123.99,-19.02"/>
<polygon fill="#63b8ff" stroke="#63b8ff" points="43.4,-100.32 41.56,-110.75 49.51,-103.75 43.4,-100.32"/>
</a>
</g>
</g>
</g>
</svg>
