<?xml version="1.0" encoding="UTF-8" standalone="no"?>
<!DOCTYPE svg PUBLIC "-//W3C//DTD SVG 1.1//EN"
 "http://www.w3.org/Graphics/SVG/1.1/DTD/svg11.dtd">
<!-- Generated by graphviz version 2.43.0 (0)
 -->
<!-- Title: Graphical Class Hierarchy Pages: 1 -->
<svg width="211pt" height="64pt"
 viewBox="0.00 0.00 211.00 64.00" xmlns="http://www.w3.org/2000/svg" xmlns:xlink="http://www.w3.org/1999/xlink">
<g id="graph0" class="graph" transform="scale(1 1) rotate(0) translate(4 60)">
<title>Graphical Class Hierarchy</title>
<!-- Node0 -->
<g id="Node000000" class="node">
<title>Node0</title>
<g id="a_Node000000"><a xlink:title=" ">
<polygon fill="#e0e0e0" stroke="#999999" points="48,-37 0,-37 0,-18 48,-18 48,-37"/>
<text text-anchor="middle" x="24" y="-25" font-family="Helvetica,sans-Serif" font-size="10.00">Object</text>
</a>
</g>
</g>
<!-- Node1 -->
<g id="Node000001" class="node">
<title>Node1</title>
<g id="a_Node000001"><a xlink:href="classns3_1_1ZtPolicyEngine.html" target="_top" xlink:title="Implements policy enforcement for Zero Trust security in NS&#45;3 simulations.">
<polygon fill="white" stroke="#666666" points="200,-56 87,-56 87,-37 200,-37 200,-56"/>
<text text-anchor="middle" x="143.5" y="-44" font-family="Helvetica,sans-Serif" font-size="10.00">ns3::ZtPolicyEngine</text>
</a>
</g>
</g>
<!-- Node0&#45;&gt;Node1 -->
<g id="edge8_Node000000_Node000001" class="edge">
<title>Node0&#45;&gt;Node1</title>
<g id="a_edge8_Node000000_Node000001"><a xlink:title=" ">
<path fill="none" stroke="#63b8ff" d="M58.16,-32.86C67.07,-34.3 76.96,-35.9 86.73,-37.48"/>
<polygon fill="#63b8ff" stroke="#63b8ff" points="58.64,-29.4 48.21,-31.25 57.53,-36.31 58.64,-29.4"/>
</a>
</g>
</g>
<!-- Node2 -->
<g id="Node000002" class="node">
<title>Node2</title>
<g id="a_Node000002"><a xlink:href="classns3_1_1ZtTlsHandshake.html" target="_top" xlink:title="Simulates a Zero Trust&#45;based TLS handshake mechanism between NS&#45;3 nodes.">
<polygon fill="white" stroke="#666666" points="203,-19 84,-19 84,0 203,0 203,-19"/>
<text text-anchor="middle" x="143.5" y="-7" font-family="Helvetica,sans-Serif" font-size="10.00">ns3::ZtTlsHandshake</text>
</a>
</g>
</g>
<!-- Node0&#45;&gt;Node2 -->
<g id="edge9_Node000000_Node000002" class="edge">
<title>Node0&#45;&gt;Node2</title>
<g id="a_edge9_Node000000_Node000002"><a xlink:title=" ">
<path fill="none" stroke="#63b8ff" d="M58.21,-22.41C66.21,-21.19 75,-19.84 83.78,-18.5"/>
<polygon fill="#63b8ff" stroke="#63b8ff" points="57.57,-18.97 48.21,-23.94 58.63,-25.89 57.57,-18.97"/>
</a>
</g>
</g>
</g>
</svg>
