<?xml version="1.0" encoding="UTF-8" standalone="no"?>
<!DOCTYPE svg PUBLIC "-//W3C//DTD SVG 1.1//EN"
 "http://www.w3.org/Graphics/SVG/1.1/DTD/svg11.dtd">
<!-- Generated by graphviz version 2.43.0 (0)
 -->
<!-- Title: examples/mitm/mitm&#45;attack.cc Pages: 1 -->
<svg width="690pt" height="104pt"
 viewBox="0.00 0.00 689.50 104.00" xmlns="http://www.w3.org/2000/svg" xmlns:xlink="http://www.w3.org/1999/xlink">
<g id="graph0" class="graph" transform="scale(1 1) rotate(0) translate(4 100)">
<title>examples/mitm/mitm&#45;attack.cc</title>
<!-- Node1 -->
<g id="Node000001" class="node">
<title>Node1</title>
<g id="a_Node000001"><a xlink:title="NS&#45;3 simulation of a Man&#45;in&#45;the&#45;Middle (MitM) attack on UDP communication.">
<polygon fill="#999999" stroke="#666666" points="394,-96 271,-96 271,-66 394,-66 394,-96"/>
<text text-anchor="start" x="279" y="-84" font-family="Helvetica,sans-Serif" font-size="10.00">examples/mitm/mitm</text>
<text text-anchor="middle" x="332.5" y="-73" font-family="Helvetica,sans-Serif" font-size="10.00">&#45;attack.cc</text>
</a>
</g>
</g>
<!-- Node2 -->
<g id="Node000002" class="node">
<title>Node2</title>
<g id="a_Node000002"><a xlink:title=" ">
<polygon fill="#e0e0e0" stroke="#999999" points="107,-24.5 0,-24.5 0,-5.5 107,-5.5 107,-24.5"/>
<text text-anchor="middle" x="53.5" y="-12.5" font-family="Helvetica,sans-Serif" font-size="10.00">ns3/core&#45;module.h</text>
</a>
</g>
</g>
<!-- Node1&#45;&gt;Node2 -->
<g id="edge1_Node000001_Node000002" class="edge">
<title>Node1&#45;&gt;Node2</title>
<g id="a_edge1_Node000001_Node000002"><a xlink:title=" ">
<path fill="none" stroke="#63b8ff" d="M271.27,-65.95C219.86,-54.16 147.49,-37.56 100.54,-26.79"/>
<polygon fill="#63b8ff" stroke="#63b8ff" points="101.16,-23.34 90.63,-24.52 99.59,-30.16 101.16,-23.34"/>
</a>
</g>
</g>
<!-- Node3 -->
<g id="Node000003" class="node">
<title>Node3</title>
<g id="a_Node000003"><a xlink:title=" ">
<polygon fill="#e0e0e0" stroke="#999999" points="251.5,-24.5 125.5,-24.5 125.5,-5.5 251.5,-5.5 251.5,-24.5"/>
<text text-anchor="middle" x="188.5" y="-12.5" font-family="Helvetica,sans-Serif" font-size="10.00">ns3/network&#45;module.h</text>
</a>
</g>
</g>
<!-- Node1&#45;&gt;Node3 -->
<g id="edge2_Node000001_Node000003" class="edge">
<title>Node1&#45;&gt;Node3</title>
<g id="a_edge2_Node000001_Node000003"><a xlink:title=" ">
<path fill="none" stroke="#63b8ff" d="M300.9,-65.95C275.87,-54.83 241.2,-39.42 217.01,-28.67"/>
<polygon fill="#63b8ff" stroke="#63b8ff" points="218.22,-25.38 207.66,-24.52 215.38,-31.78 218.22,-25.38"/>
</a>
</g>
</g>
<!-- Node4 -->
<g id="Node000004" class="node">
<title>Node4</title>
<g id="a_Node000004"><a xlink:title=" ">
<polygon fill="#e0e0e0" stroke="#999999" points="395,-24.5 270,-24.5 270,-5.5 395,-5.5 395,-24.5"/>
<text text-anchor="middle" x="332.5" y="-12.5" font-family="Helvetica,sans-Serif" font-size="10.00">ns3/internet&#45;module.h</text>
</a>
</g>
</g>
<!-- Node1&#45;&gt;Node4 -->
<g id="edge3_Node000001_Node000004" class="edge">
<title>Node1&#45;&gt;Node4</title>
<g id="a_edge3_Node000001_Node000004"><a xlink:title=" ">
<path fill="none" stroke="#63b8ff" d="M332.5,-65.8C332.5,-56.7 332.5,-44.79 332.5,-34.9"/>
<polygon fill="#63b8ff" stroke="#63b8ff" points="336,-34.84 332.5,-24.84 329,-34.84 336,-34.84"/>
</a>
</g>
</g>
<!-- Node5 -->
<g id="Node000005" class="node">
<title>Node5</title>
<g id="a_Node000005"><a xlink:title=" ">
<polygon fill="#e0e0e0" stroke="#999999" points="517.5,-30 413.5,-30 413.5,0 517.5,0 517.5,-30"/>
<text text-anchor="start" x="421.5" y="-18" font-family="Helvetica,sans-Serif" font-size="10.00">ns3/point&#45;to&#45;point</text>
<text text-anchor="middle" x="465.5" y="-7" font-family="Helvetica,sans-Serif" font-size="10.00">&#45;module.h</text>
</a>
</g>
</g>
<!-- Node1&#45;&gt;Node5 -->
<g id="edge4_Node000001_Node000005" class="edge">
<title>Node1&#45;&gt;Node5</title>
<g id="a_edge4_Node000001_Node000005"><a xlink:title=" ">
<path fill="none" stroke="#63b8ff" d="M361.69,-65.95C380.92,-56.7 406.3,-44.49 427.16,-34.45"/>
<polygon fill="#63b8ff" stroke="#63b8ff" points="428.89,-37.5 436.38,-30.01 425.85,-31.19 428.89,-37.5"/>
</a>
</g>
</g>
<!-- Node6 -->
<g id="Node000006" class="node">
<title>Node6</title>
<g id="a_Node000006"><a xlink:title=" ">
<polygon fill="#e0e0e0" stroke="#999999" points="681.5,-24.5 535.5,-24.5 535.5,-5.5 681.5,-5.5 681.5,-24.5"/>
<text text-anchor="middle" x="608.5" y="-12.5" font-family="Helvetica,sans-Serif" font-size="10.00">ns3/applications&#45;module.h</text>
</a>
</g>
</g>
<!-- Node1&#45;&gt;Node6 -->
<g id="edge5_Node000001_Node000006" class="edge">
<title>Node1&#45;&gt;Node6</title>
<g id="a_edge5_Node000001_Node000006"><a xlink:title=" ">
<path fill="none" stroke="#63b8ff" d="M393.07,-65.95C443.92,-54.16 515.52,-37.56 561.97,-26.79"/>
<polygon fill="#63b8ff" stroke="#63b8ff" points="562.82,-30.19 571.77,-24.52 561.24,-23.37 562.82,-30.19"/>
</a>
</g>
</g>
</g>
</svg>
