<?xml version="1.0" encoding="UTF-8" standalone="no"?>
<!DOCTYPE svg PUBLIC "-//W3C//DTD SVG 1.1//EN"
 "http://www.w3.org/Graphics/SVG/1.1/DTD/svg11.dtd">
<!-- Generated by graphviz version 2.43.0 (0)
 -->
<!-- Title: SendFromSensor Pages: 1 -->
<svg width="407pt" height="263pt"
 viewBox="0.00 0.00 407.00 262.50" xmlns="http://www.w3.org/2000/svg" xmlns:xlink="http://www.w3.org/1999/xlink">
<g id="graph0" class="graph" transform="scale(1 1) rotate(0) translate(4 258.5)">
<title>SendFromSensor</title>
<!-- Node1 -->
<g id="Node000001" class="node">
<title>Node1</title>
<g id="a_Node000001"><a xlink:title="Simulates a sensor device sending an encrypted payload to the gateway after policy and handshake vali...">
<polygon fill="#999999" stroke="#666666" points="98,-141.5 0,-141.5 0,-122.5 98,-122.5 98,-141.5"/>
<text text-anchor="middle" x="49" y="-129.5" font-family="Helvetica,sans-Serif" font-size="10.00">SendFromSensor</text>
</a>
</g>
</g>
<!-- Node2 -->
<g id="Node000002" class="node">
<title>Node2</title>
<g id="a_Node000002"><a xlink:href="namespacens3.html#a15964bad59df770e70c1efa2be78b7fb" target="_top" xlink:title="Encrypts a plaintext string using AES&#45;CBC mode with a randomly generated IV.">
<polygon fill="white" stroke="#666666" points="264.5,-254.5 149.5,-254.5 149.5,-235.5 264.5,-235.5 264.5,-254.5"/>
<text text-anchor="middle" x="207" y="-242.5" font-family="Helvetica,sans-Serif" font-size="10.00">ns3::EncryptPayload</text>
</a>
</g>
</g>
<!-- Node1&#45;&gt;Node2 -->
<g id="edge1_Node000001_Node000002" class="edge">
<title>Node1&#45;&gt;Node2</title>
<g id="a_edge1_Node000001_Node000002"><a xlink:title=" ">
<path fill="none" stroke="#63b8ff" d="M55.6,-141.52C67.47,-160.81 97.12,-204.6 134,-227 136.81,-228.71 139.77,-230.25 142.83,-231.65"/>
<polygon fill="#63b8ff" stroke="#63b8ff" points="141.65,-234.95 152.24,-235.42 144.26,-228.45 141.65,-234.95"/>
</a>
</g>
</g>
<!-- Node3 -->
<g id="Node000003" class="node">
<title>Node3</title>
<g id="a_Node000003"><a xlink:href="namespacens3.html#af9b3b1642d0cadbd7ff0948f32fb14a3" target="_top" xlink:title="Decodes a hex&#45;encoded AES key string into a raw key byte block.">
<polygon fill="white" stroke="#666666" points="264,-217.5 150,-217.5 150,-198.5 264,-198.5 264,-217.5"/>
<text text-anchor="middle" x="207" y="-205.5" font-family="Helvetica,sans-Serif" font-size="10.00">ns3::HexDecodeKey</text>
</a>
</g>
</g>
<!-- Node1&#45;&gt;Node3 -->
<g id="edge2_Node000001_Node000003" class="edge">
<title>Node1&#45;&gt;Node3</title>
<g id="a_edge2_Node000001_Node000003"><a xlink:title=" ">
<path fill="none" stroke="#63b8ff" d="M63.42,-141.68C79.55,-152.98 107.75,-171.71 134,-184 142.94,-188.19 152.82,-191.98 162.32,-195.25"/>
<polygon fill="#63b8ff" stroke="#63b8ff" points="161.44,-198.65 172.03,-198.47 163.64,-192 161.44,-198.65"/>
</a>
</g>
</g>
<!-- Node4 -->
<g id="Node000004" class="node">
<title>Node4</title>
<g id="a_Node000004"><a xlink:href="classZtLogger.html#ab4743f29e35568cb7e4652d3b012061d" target="_top" xlink:title="Logs a general message with a specified tag.">
<polygon fill="white" stroke="#666666" points="399,-122.5 316,-122.5 316,-103.5 399,-103.5 399,-122.5"/>
<text text-anchor="middle" x="357.5" y="-110.5" font-family="Helvetica,sans-Serif" font-size="10.00">ZtLogger::Log</text>
</a>
</g>
</g>
<!-- Node1&#45;&gt;Node4 -->
<g id="edge3_Node000001_Node000004" class="edge">
<title>Node1&#45;&gt;Node4</title>
<g id="a_edge3_Node000001_Node000004"><a xlink:title=" ">
<path fill="none" stroke="#63b8ff" d="M84.79,-141.5C130.27,-152.43 212.13,-166.93 280,-151 299.07,-146.53 318.82,-136.55 333.48,-127.95"/>
<polygon fill="#63b8ff" stroke="#63b8ff" points="335.6,-130.75 342.32,-122.56 331.96,-124.78 335.6,-130.75"/>
</a>
</g>
</g>
<!-- Node5 -->
<g id="Node000005" class="node">
<title>Node5</title>
<g id="a_Node000005"><a xlink:href="classZtLogger.html#a467e70148db6fc7fb134e1fa7496ca35" target="_top" xlink:title="Logs a certificate issuance event.">
<polygon fill="white" stroke="#666666" points="274.5,-141.5 139.5,-141.5 139.5,-122.5 274.5,-122.5 274.5,-141.5"/>
<text text-anchor="middle" x="207" y="-129.5" font-family="Helvetica,sans-Serif" font-size="10.00">ZtLogger::LogCertIssued</text>
</a>
</g>
</g>
<!-- Node1&#45;&gt;Node5 -->
<g id="edge4_Node000001_Node000005" class="edge">
<title>Node1&#45;&gt;Node5</title>
<g id="a_edge4_Node000001_Node000005"><a xlink:title=" ">
<path fill="none" stroke="#63b8ff" d="M98.08,-132C107.98,-132 118.65,-132 129.28,-132"/>
<polygon fill="#63b8ff" stroke="#63b8ff" points="129.44,-135.5 139.44,-132 129.44,-128.5 129.44,-135.5"/>
</a>
</g>
</g>
<!-- Node6 -->
<g id="Node000006" class="node">
<title>Node6</title>
<g id="a_Node000006"><a xlink:href="classZtLogger.html#a1875b16f51cbdf5e27ef37ff3bf6b4f1" target="_top" xlink:title="Logs a rejected certificate attempt with a reason.">
<polygon fill="white" stroke="#666666" points="280,-104.5 134,-104.5 134,-85.5 280,-85.5 280,-104.5"/>
<text text-anchor="middle" x="207" y="-92.5" font-family="Helvetica,sans-Serif" font-size="10.00">ZtLogger::LogCertRejected</text>
</a>
</g>
</g>
<!-- Node1&#45;&gt;Node6 -->
<g id="edge6_Node000001_Node000006" class="edge">
<title>Node1&#45;&gt;Node6</title>
<g id="a_edge6_Node000001_Node000006"><a xlink:title=" ">
<path fill="none" stroke="#63b8ff" d="M90.17,-122.47C110.2,-117.72 134.62,-111.93 155.87,-106.89"/>
<polygon fill="#63b8ff" stroke="#63b8ff" points="156.77,-110.27 165.69,-104.56 155.15,-103.46 156.77,-110.27"/>
</a>
</g>
</g>
<!-- Node7 -->
<g id="Node000007" class="node">
<title>Node7</title>
<g id="a_Node000007"><a xlink:href="classZtLogger.html#ac3f4de629944eec6b0befaf1fcbdce7d" target="_top" xlink:title="Logs an encryption event with payload and IV.">
<polygon fill="white" stroke="#666666" points="274.5,-67.5 139.5,-67.5 139.5,-48.5 274.5,-48.5 274.5,-67.5"/>
<text text-anchor="middle" x="207" y="-55.5" font-family="Helvetica,sans-Serif" font-size="10.00">ZtLogger::LogEncryption</text>
</a>
</g>
</g>
<!-- Node1&#45;&gt;Node7 -->
<g id="edge8_Node000001_Node000007" class="edge">
<title>Node1&#45;&gt;Node7</title>
<g id="a_edge8_Node000001_Node000007"><a xlink:title=" ">
<path fill="none" stroke="#63b8ff" d="M61.81,-122.48C77.44,-110.31 106.29,-89.34 134,-77 139.37,-74.61 145.11,-72.47 150.91,-70.56"/>
<polygon fill="#63b8ff" stroke="#63b8ff" points="152.14,-73.85 160.68,-67.58 150.09,-67.15 152.14,-73.85"/>
</a>
</g>
</g>
<!-- Node8 -->
<g id="Node000008" class="node">
<title>Node8</title>
<g id="a_Node000008"><a xlink:href="classCertificateAuthority.html#af81edd447afd694376bb5e66d45bdd48" target="_top" xlink:title="Signs an identity certificate with node ID, role, and expiry.">
<polygon fill="white" stroke="#666666" points="263,-30 151,-30 151,0 263,0 263,-30"/>
<text text-anchor="start" x="159" y="-18" font-family="Helvetica,sans-Serif" font-size="10.00">CertificateAuthority</text>
<text text-anchor="middle" x="207" y="-7" font-family="Helvetica,sans-Serif" font-size="10.00">::SignIdentity</text>
</a>
</g>
</g>
<!-- Node1&#45;&gt;Node8 -->
<g id="edge10_Node000001_Node000008" class="edge">
<title>Node1&#45;&gt;Node8</title>
<g id="a_edge10_Node000001_Node000008"><a xlink:title=" ">
<path fill="none" stroke="#63b8ff" d="M56.23,-122.49C68.79,-104.01 98.96,-63.08 134,-40 136.96,-38.05 140.09,-36.23 143.33,-34.54"/>
<polygon fill="#63b8ff" stroke="#63b8ff" points="145.12,-37.57 152.65,-30.11 142.12,-31.24 145.12,-37.57"/>
</a>
</g>
</g>
<!-- Node5&#45;&gt;Node4 -->
<g id="edge5_Node000005_Node000004" class="edge">
<title>Node5&#45;&gt;Node4</title>
<g id="a_edge5_Node000005_Node000004"><a xlink:title=" ">
<path fill="none" stroke="#63b8ff" d="M274.86,-123.44C285.26,-122.11 295.86,-120.76 305.82,-119.48"/>
<polygon fill="#63b8ff" stroke="#63b8ff" points="306.46,-122.93 315.94,-118.19 305.58,-115.99 306.46,-122.93"/>
</a>
</g>
</g>
<!-- Node6&#45;&gt;Node4 -->
<g id="edge7_Node000006_Node000004" class="edge">
<title>Node6&#45;&gt;Node4</title>
<g id="a_edge7_Node000006_Node000004"><a xlink:title=" ">
<path fill="none" stroke="#63b8ff" d="M280.07,-103.74C288.7,-104.78 297.36,-105.83 305.6,-106.83"/>
<polygon fill="#63b8ff" stroke="#63b8ff" points="305.42,-110.33 315.77,-108.06 306.27,-103.39 305.42,-110.33"/>
</a>
</g>
</g>
<!-- Node7&#45;&gt;Node4 -->
<g id="edge9_Node000007_Node000004" class="edge">
<title>Node7&#45;&gt;Node4</title>
<g id="a_edge9_Node000007_Node000004"><a xlink:title=" ">
<path fill="none" stroke="#63b8ff" d="M249.52,-67.58C259.6,-70.28 270.28,-73.46 280,-77 296.81,-83.12 314.95,-91.57 329.35,-98.75"/>
<polygon fill="#63b8ff" stroke="#63b8ff" points="328.15,-102.06 338.66,-103.47 331.32,-95.82 328.15,-102.06"/>
</a>
</g>
</g>
</g>
</svg>
