<?xml version="1.0" encoding="UTF-8" standalone="no"?>
<!DOCTYPE svg PUBLIC "-//W3C//DTD SVG 1.1//EN"
 "http://www.w3.org/Graphics/SVG/1.1/DTD/svg11.dtd">
<!-- Generated by graphviz version 2.43.0 (0)
 -->
<!-- Title: main Pages: 1 -->
<svg width="224pt" height="101pt"
 viewBox="0.00 0.00 224.00 101.00" xmlns="http://www.w3.org/2000/svg" xmlns:xlink="http://www.w3.org/1999/xlink">
<g id="graph0" class="graph" transform="scale(1 1) rotate(0) translate(4 97)">
<title>main</title>
<!-- Node1 -->
<g id="Node000001" class="node">
<title>Node1</title>
<g id="a_Node000001"><a xlink:title="Main function to set up the NS&#45;3 simulation.">
<polygon fill="#999999" stroke="#666666" points="41,-56 0,-56 0,-37 41,-37 41,-56"/>
<text text-anchor="middle" x="20.5" y="-44" font-family="Helvetica,sans-Serif" font-size="10.00">main</text>
</a>
</g>
</g>
<!-- Node2 -->
<g id="Node000002" class="node">
<title>Node2</title>
<g id="a_Node000002"><a xlink:href="mitm-attack_8cc.html#a2d3153c36501901f35611c7faac2c56e" target="_top" xlink:title="MITM node intercepts and modifies packets before forwarding them to the gateway.">
<polygon fill="white" stroke="#666666" points="216,-93 77,-93 77,-74 216,-74 216,-93"/>
<text text-anchor="middle" x="146.5" y="-81" font-family="Helvetica,sans-Serif" font-size="10.00">MitmReceiveAndForward</text>
</a>
</g>
</g>
<!-- Node1&#45;&gt;Node2 -->
<g id="edge1_Node000001_Node000002" class="edge">
<title>Node1&#45;&gt;Node2</title>
<g id="a_edge1_Node000001_Node000002"><a xlink:title=" ">
<path fill="none" stroke="#63b8ff" d="M41.17,-53.62C51.73,-57.35 65.01,-61.88 77,-65.5 83.56,-67.48 90.52,-69.46 97.38,-71.33"/>
<polygon fill="#63b8ff" stroke="#63b8ff" points="96.75,-74.78 107.32,-73.99 98.56,-68.02 96.75,-74.78"/>
</a>
</g>
</g>
<!-- Node3 -->
<g id="Node000003" class="node">
<title>Node3</title>
<g id="a_Node000003"><a xlink:href="mitm-attack_8cc.html#a6898e3febd567849e1a7310597beb21f" target="_top" xlink:title="Receives packets at the gateway node.">
<polygon fill="white" stroke="#666666" points="201.5,-56 91.5,-56 91.5,-37 201.5,-37 201.5,-56"/>
<text text-anchor="middle" x="146.5" y="-44" font-family="Helvetica,sans-Serif" font-size="10.00">ReceiveAtGateway</text>
</a>
</g>
</g>
<!-- Node1&#45;&gt;Node3 -->
<g id="edge2_Node000001_Node000003" class="edge">
<title>Node1&#45;&gt;Node3</title>
<g id="a_edge2_Node000001_Node000003"><a xlink:title=" ">
<path fill="none" stroke="#63b8ff" d="M41.15,-46.5C52.19,-46.5 66.66,-46.5 81.3,-46.5"/>
<polygon fill="#63b8ff" stroke="#63b8ff" points="81.42,-50 91.42,-46.5 81.42,-43 81.42,-50"/>
</a>
</g>
</g>
<!-- Node4 -->
<g id="Node000004" class="node">
<title>Node4</title>
<g id="a_Node000004"><a xlink:href="mitm-attack_8cc.html#ae80caccc8855688279c1a87987a9c267" target="_top" xlink:title="Sends a UDP message from the sensor node to the MITM node.">
<polygon fill="white" stroke="#666666" points="195.5,-19 97.5,-19 97.5,0 195.5,0 195.5,-19"/>
<text text-anchor="middle" x="146.5" y="-7" font-family="Helvetica,sans-Serif" font-size="10.00">SendFromSensor</text>
</a>
</g>
</g>
<!-- Node1&#45;&gt;Node4 -->
<g id="edge3_Node000001_Node000004" class="edge">
<title>Node1&#45;&gt;Node4</title>
<g id="a_edge3_Node000001_Node000004"><a xlink:title=" ">
<path fill="none" stroke="#63b8ff" d="M41.21,-39.88C51.79,-36.38 65.07,-32.09 77,-28.5 84.48,-26.25 92.45,-23.95 100.2,-21.77"/>
<polygon fill="#63b8ff" stroke="#63b8ff" points="101.17,-25.13 109.86,-19.07 99.29,-18.39 101.17,-25.13"/>
</a>
</g>
</g>
</g>
</svg>
