<?xml version="1.0" encoding="UTF-8" standalone="no"?>
<!DOCTYPE svg PUBLIC "-//W3C//DTD SVG 1.1//EN"
 "http://www.w3.org/Graphics/SVG/1.1/DTD/svg11.dtd">
<!-- Generated by graphviz version 2.43.0 (0)
 -->
<!-- Title: main Pages: 1 -->
<svg width="546pt" height="386pt"
 viewBox="0.00 0.00 546.00 385.50" xmlns="http://www.w3.org/2000/svg" xmlns:xlink="http://www.w3.org/1999/xlink">
<g id="graph0" class="graph" transform="scale(1 1) rotate(0) translate(4 381.5)">
<title>main</title>
<!-- Node1 -->
<g id="Node000001" class="node">
<title>Node1</title>
<g id="a_Node000001"><a xlink:title="Main entry point for the simulation. Sets up network topology, installs security components,...">
<polygon fill="#999999" stroke="#666666" points="41,-297.5 0,-297.5 0,-278.5 41,-278.5 41,-297.5"/>
<text text-anchor="middle" x="20.5" y="-285.5" font-family="Helvetica,sans-Serif" font-size="10.00">main</text>
</a>
</g>
</g>
<!-- Node2 -->
<g id="Node000002" class="node">
<title>Node2</title>
<g id="a_Node000002"><a xlink:href="mitm-mitigation_8cc.html#a0c88ff0484e0651cb08fd5b6c4a3cbd2" target="_top" xlink:title="Simulates an attacker sending a spoofed plaintext message to the gateway without encryption.">
<polygon fill="white" stroke="#666666" points="199.5,-377.5 114.5,-377.5 114.5,-358.5 199.5,-358.5 199.5,-377.5"/>
<text text-anchor="middle" x="157" y="-365.5" font-family="Helvetica,sans-Serif" font-size="10.00">AttackerSpoof</text>
</a>
</g>
</g>
<!-- Node1&#45;&gt;Node2 -->
<g id="edge1_Node000001_Node000002" class="edge">
<title>Node1&#45;&gt;Node2</title>
<g id="a_edge1_Node000001_Node000002"><a xlink:title=" ">
<path fill="none" stroke="#63b8ff" d="M27.35,-297.66C36.26,-311.51 54.59,-336.8 77,-350 85.37,-354.93 94.96,-358.51 104.52,-361.11"/>
<polygon fill="#63b8ff" stroke="#63b8ff" points="103.87,-364.55 114.41,-363.48 105.5,-357.74 103.87,-364.55"/>
</a>
</g>
</g>
<!-- Node4 -->
<g id="Node000004" class="node">
<title>Node4</title>
<g id="a_Node000004"><a xlink:href="classZtLogger.html#ab162532b5864fe679e2a333b1184fc56" target="_top" xlink:title="Enables or disables timestamp logging.">
<polygon fill="white" stroke="#666666" points="237,-340.5 77,-340.5 77,-321.5 237,-321.5 237,-340.5"/>
<text text-anchor="middle" x="157" y="-328.5" font-family="Helvetica,sans-Serif" font-size="10.00">ZtLogger::EnableTimestamps</text>
</a>
</g>
</g>
<!-- Node1&#45;&gt;Node4 -->
<g id="edge3_Node000001_Node000004" class="edge">
<title>Node1&#45;&gt;Node4</title>
<g id="a_edge3_Node000001_Node000004"><a xlink:title=" ">
<path fill="none" stroke="#63b8ff" d="M41.21,-297.51C51.68,-302.31 64.85,-307.95 77,-312 84.61,-314.54 92.74,-316.89 100.78,-319.01"/>
<polygon fill="#63b8ff" stroke="#63b8ff" points="99.95,-322.41 110.5,-321.47 101.67,-315.62 99.95,-322.41"/>
</a>
</g>
</g>
<!-- Node5 -->
<g id="Node000005" class="node">
<title>Node5</title>
<g id="a_Node000005"><a xlink:href="classCertificateAuthority.html#a0a05c9cdb69916beeeca0332034205cd" target="_top" xlink:title="Retrieves the public RSA key of the CA.">
<polygon fill="white" stroke="#666666" points="213,-303 101,-303 101,-273 213,-273 213,-303"/>
<text text-anchor="start" x="109" y="-291" font-family="Helvetica,sans-Serif" font-size="10.00">CertificateAuthority</text>
<text text-anchor="middle" x="157" y="-280" font-family="Helvetica,sans-Serif" font-size="10.00">::GetPublicKey</text>
</a>
</g>
</g>
<!-- Node1&#45;&gt;Node5 -->
<g id="edge4_Node000001_Node000005" class="edge">
<title>Node1&#45;&gt;Node5</title>
<g id="a_edge4_Node000001_Node000005"><a xlink:title=" ">
<path fill="none" stroke="#63b8ff" d="M41.06,-288C54.34,-288 72.72,-288 90.9,-288"/>
<polygon fill="#63b8ff" stroke="#63b8ff" points="90.95,-291.5 100.95,-288 90.95,-284.5 90.95,-291.5"/>
</a>
</g>
</g>
<!-- Node6 -->
<g id="Node000006" class="node">
<title>Node6</title>
<g id="a_Node000006"><a xlink:href="mitm-mitigation_8cc.html#a6898e3febd567849e1a7310597beb21f" target="_top" xlink:title="Receives an encrypted packet at the gateway and performs decryption and validation.">
<polygon fill="white" stroke="#666666" points="212,-254.5 102,-254.5 102,-235.5 212,-235.5 212,-254.5"/>
<text text-anchor="middle" x="157" y="-242.5" font-family="Helvetica,sans-Serif" font-size="10.00">ReceiveAtGateway</text>
</a>
</g>
</g>
<!-- Node1&#45;&gt;Node6 -->
<g id="edge5_Node000001_Node000006" class="edge">
<title>Node1&#45;&gt;Node6</title>
<g id="a_edge5_Node000001_Node000006"><a xlink:title=" ">
<path fill="none" stroke="#63b8ff" d="M41.21,-278.49C51.68,-273.69 64.85,-268.05 77,-264 84.61,-261.46 92.74,-259.11 100.78,-256.99"/>
<polygon fill="#63b8ff" stroke="#63b8ff" points="101.67,-260.38 110.5,-254.53 99.95,-253.59 101.67,-260.38"/>
</a>
</g>
</g>
<!-- Node9 -->
<g id="Node000009" class="node">
<title>Node9</title>
<g id="a_Node000009"><a xlink:href="mitm-mitigation_8cc.html#a033167cc7a498741d454986f06be85cb" target="_top" xlink:title="Simulates a sensor device sending an encrypted payload to the gateway after policy and handshake vali...">
<polygon fill="white" stroke="#666666" points="206,-160.5 108,-160.5 108,-141.5 206,-141.5 206,-160.5"/>
<text text-anchor="middle" x="157" y="-148.5" font-family="Helvetica,sans-Serif" font-size="10.00">SendFromSensor</text>
</a>
</g>
</g>
<!-- Node1&#45;&gt;Node9 -->
<g id="edge9_Node000001_Node000009" class="edge">
<title>Node1&#45;&gt;Node9</title>
<g id="a_edge9_Node000001_Node000009"><a xlink:title=" ">
<path fill="none" stroke="#63b8ff" d="M29.96,-278.31C40.68,-266.12 59.83,-244.65 77,-227 97.34,-206.09 121.64,-182.97 137.87,-167.79"/>
<polygon fill="#63b8ff" stroke="#63b8ff" points="140.63,-170 145.56,-160.62 135.86,-164.88 140.63,-170"/>
</a>
</g>
</g>
<!-- Node3 -->
<g id="Node000003" class="node">
<title>Node3</title>
<g id="a_Node000003"><a xlink:href="classZtLogger.html#ab4743f29e35568cb7e4652d3b012061d" target="_top" xlink:title="Logs a general message with a specified tag.">
<polygon fill="white" stroke="#666666" points="538,-178.5 455,-178.5 455,-159.5 538,-159.5 538,-178.5"/>
<text text-anchor="middle" x="496.5" y="-166.5" font-family="Helvetica,sans-Serif" font-size="10.00">ZtLogger::Log</text>
</a>
</g>
</g>
<!-- Node2&#45;&gt;Node3 -->
<g id="edge2_Node000002_Node000003" class="edge">
<title>Node2&#45;&gt;Node3</title>
<g id="a_edge2_Node000002_Node000003"><a xlink:title=" ">
<path fill="none" stroke="#63b8ff" d="M199.53,-372.15C255.09,-375.45 354.13,-373.21 419,-325 464.68,-291.05 484.58,-222.41 491.89,-188.65"/>
<polygon fill="#63b8ff" stroke="#63b8ff" points="495.36,-189.13 493.9,-178.64 488.5,-187.75 495.36,-189.13"/>
</a>
</g>
</g>
<!-- Node6&#45;&gt;Node3 -->
<g id="edge8_Node000006_Node000003" class="edge">
<title>Node6&#45;&gt;Node3</title>
<g id="a_edge8_Node000006_Node000003"><a xlink:title=" ">
<path fill="none" stroke="#63b8ff" d="M212.25,-253.74C220.85,-256.33 229.4,-259.67 237,-264 256.94,-275.35 251.86,-292.07 273,-301 332.78,-326.24 362.78,-333.4 419,-301 461.31,-276.62 482.35,-218.9 490.82,-188.5"/>
<polygon fill="#63b8ff" stroke="#63b8ff" points="494.25,-189.21 493.39,-178.65 487.48,-187.44 494.25,-189.21"/>
</a>
</g>
</g>
<!-- Node7 -->
<g id="Node000007" class="node">
<title>Node7</title>
<g id="a_Node000007"><a xlink:href="namespacens3.html#abcc9f927462e02351cf483e484c8eac0" target="_top" xlink:title="Decrypts a ciphertext string encrypted with EncryptPayload.">
<polygon fill="white" stroke="#666666" points="404,-291.5 288,-291.5 288,-272.5 404,-272.5 404,-291.5"/>
<text text-anchor="middle" x="346" y="-279.5" font-family="Helvetica,sans-Serif" font-size="10.00">ns3::DecryptPayload</text>
</a>
</g>
</g>
<!-- Node6&#45;&gt;Node7 -->
<g id="edge6_Node000006_Node000007" class="edge">
<title>Node6&#45;&gt;Node7</title>
<g id="a_edge6_Node000006_Node000007"><a xlink:title=" ">
<path fill="none" stroke="#63b8ff" d="M206.16,-254.53C230.71,-259.39 260.77,-265.33 286.63,-270.45"/>
<polygon fill="#63b8ff" stroke="#63b8ff" points="286.19,-273.93 296.68,-272.44 287.55,-267.07 286.19,-273.93"/>
</a>
</g>
</g>
<!-- Node8 -->
<g id="Node000008" class="node">
<title>Node8</title>
<g id="a_Node000008"><a xlink:href="namespacens3.html#af9b3b1642d0cadbd7ff0948f32fb14a3" target="_top" xlink:title="Decodes a hex&#45;encoded AES key string into a raw key byte block.">
<polygon fill="white" stroke="#666666" points="403,-254.5 289,-254.5 289,-235.5 403,-235.5 403,-254.5"/>
<text text-anchor="middle" x="346" y="-242.5" font-family="Helvetica,sans-Serif" font-size="10.00">ns3::HexDecodeKey</text>
</a>
</g>
</g>
<!-- Node6&#45;&gt;Node8 -->
<g id="edge7_Node000006_Node000008" class="edge">
<title>Node6&#45;&gt;Node8</title>
<g id="a_edge7_Node000006_Node000008"><a xlink:title=" ">
<path fill="none" stroke="#63b8ff" d="M212.09,-245C232.85,-245 256.79,-245 278.59,-245"/>
<polygon fill="#63b8ff" stroke="#63b8ff" points="278.76,-248.5 288.76,-245 278.76,-241.5 278.76,-248.5"/>
</a>
</g>
</g>
<!-- Node9&#45;&gt;Node3 -->
<g id="edge12_Node000009_Node000003" class="edge">
<title>Node9&#45;&gt;Node3</title>
<g id="a_edge12_Node000009_Node000003"><a xlink:title=" ">
<path fill="none" stroke="#63b8ff" d="M180.4,-160.51C203.21,-169.65 239.85,-182.8 273,-188 337.1,-198.06 354.59,-195.88 419,-188 430.77,-186.56 443.33,-183.92 454.8,-181.06"/>
<polygon fill="#63b8ff" stroke="#63b8ff" points="455.77,-184.42 464.56,-178.51 454,-177.65 455.77,-184.42"/>
</a>
</g>
</g>
<!-- Node9&#45;&gt;Node8 -->
<g id="edge11_Node000009_Node000008" class="edge">
<title>Node9&#45;&gt;Node8</title>
<g id="a_edge11_Node000009_Node000008"><a xlink:title=" ">
<path fill="none" stroke="#63b8ff" d="M171.6,-160.68C192.57,-175.27 234.41,-203.1 273,-221 281.96,-225.16 291.85,-228.94 301.35,-232.2"/>
<polygon fill="#63b8ff" stroke="#63b8ff" points="300.46,-235.6 311.06,-235.42 302.66,-228.95 300.46,-235.6"/>
</a>
</g>
</g>
<!-- Node10 -->
<g id="Node000010" class="node">
<title>Node10</title>
<g id="a_Node000010"><a xlink:href="namespacens3.html#a15964bad59df770e70c1efa2be78b7fb" target="_top" xlink:title="Encrypts a plaintext string using AES&#45;CBC mode with a randomly generated IV.">
<polygon fill="white" stroke="#666666" points="403.5,-178.5 288.5,-178.5 288.5,-159.5 403.5,-159.5 403.5,-178.5"/>
<text text-anchor="middle" x="346" y="-166.5" font-family="Helvetica,sans-Serif" font-size="10.00">ns3::EncryptPayload</text>
</a>
</g>
</g>
<!-- Node9&#45;&gt;Node10 -->
<g id="edge10_Node000009_Node000010" class="edge">
<title>Node9&#45;&gt;Node10</title>
<g id="a_edge10_Node000009_Node000010"><a xlink:title=" ">
<path fill="none" stroke="#63b8ff" d="M206.16,-155.64C228.13,-157.75 254.5,-160.29 278.33,-162.58"/>
<polygon fill="#63b8ff" stroke="#63b8ff" points="278.08,-166.07 288.37,-163.55 278.75,-159.11 278.08,-166.07"/>
</a>
</g>
</g>
<!-- Node11 -->
<g id="Node000011" class="node">
<title>Node11</title>
<g id="a_Node000011"><a xlink:href="classZtLogger.html#a467e70148db6fc7fb134e1fa7496ca35" target="_top" xlink:title="Logs a certificate issuance event.">
<polygon fill="white" stroke="#666666" points="413.5,-141.5 278.5,-141.5 278.5,-122.5 413.5,-122.5 413.5,-141.5"/>
<text text-anchor="middle" x="346" y="-129.5" font-family="Helvetica,sans-Serif" font-size="10.00">ZtLogger::LogCertIssued</text>
</a>
</g>
</g>
<!-- Node9&#45;&gt;Node11 -->
<g id="edge13_Node000009_Node000011" class="edge">
<title>Node9&#45;&gt;Node11</title>
<g id="a_edge13_Node000009_Node000011"><a xlink:title=" ">
<path fill="none" stroke="#63b8ff" d="M206.16,-146.11C225.04,-144.19 247.17,-141.94 268.15,-139.81"/>
<polygon fill="#63b8ff" stroke="#63b8ff" points="268.74,-143.27 278.33,-138.77 268.03,-136.3 268.74,-143.27"/>
</a>
</g>
</g>
<!-- Node12 -->
<g id="Node000012" class="node">
<title>Node12</title>
<g id="a_Node000012"><a xlink:href="classZtLogger.html#a1875b16f51cbdf5e27ef37ff3bf6b4f1" target="_top" xlink:title="Logs a rejected certificate attempt with a reason.">
<polygon fill="white" stroke="#666666" points="419,-104.5 273,-104.5 273,-85.5 419,-85.5 419,-104.5"/>
<text text-anchor="middle" x="346" y="-92.5" font-family="Helvetica,sans-Serif" font-size="10.00">ZtLogger::LogCertRejected</text>
</a>
</g>
</g>
<!-- Node9&#45;&gt;Node12 -->
<g id="edge15_Node000009_Node000012" class="edge">
<title>Node9&#45;&gt;Node12</title>
<g id="a_edge15_Node000009_Node000012"><a xlink:title=" ">
<path fill="none" stroke="#63b8ff" d="M186.23,-141.45C209.43,-133.72 243.21,-122.72 273,-114 280.85,-111.7 289.22,-109.38 297.37,-107.19"/>
<polygon fill="#63b8ff" stroke="#63b8ff" points="298.39,-110.54 307.15,-104.58 296.59,-103.77 298.39,-110.54"/>
</a>
</g>
</g>
<!-- Node13 -->
<g id="Node000013" class="node">
<title>Node13</title>
<g id="a_Node000013"><a xlink:href="classZtLogger.html#ac3f4de629944eec6b0befaf1fcbdce7d" target="_top" xlink:title="Logs an encryption event with payload and IV.">
<polygon fill="white" stroke="#666666" points="413.5,-67.5 278.5,-67.5 278.5,-48.5 413.5,-48.5 413.5,-67.5"/>
<text text-anchor="middle" x="346" y="-55.5" font-family="Helvetica,sans-Serif" font-size="10.00">ZtLogger::LogEncryption</text>
</a>
</g>
</g>
<!-- Node9&#45;&gt;Node13 -->
<g id="edge17_Node000009_Node000013" class="edge">
<title>Node9&#45;&gt;Node13</title>
<g id="a_edge17_Node000009_Node000013"><a xlink:title=" ">
<path fill="none" stroke="#63b8ff" d="M170.03,-141.42C190.19,-125.8 232.59,-94.8 273,-77 278.46,-74.6 284.29,-72.44 290.17,-70.53"/>
<polygon fill="#63b8ff" stroke="#63b8ff" points="291.53,-73.77 300.08,-67.52 289.5,-67.07 291.53,-73.77"/>
</a>
</g>
</g>
<!-- Node14 -->
<g id="Node000014" class="node">
<title>Node14</title>
<g id="a_Node000014"><a xlink:href="classCertificateAuthority.html#af81edd447afd694376bb5e66d45bdd48" target="_top" xlink:title="Signs an identity certificate with node ID, role, and expiry.">
<polygon fill="white" stroke="#666666" points="402,-30 290,-30 290,0 402,0 402,-30"/>
<text text-anchor="start" x="298" y="-18" font-family="Helvetica,sans-Serif" font-size="10.00">CertificateAuthority</text>
<text text-anchor="middle" x="346" y="-7" font-family="Helvetica,sans-Serif" font-size="10.00">::SignIdentity</text>
</a>
</g>
</g>
<!-- Node9&#45;&gt;Node14 -->
<g id="edge19_Node000009_Node000014" class="edge">
<title>Node9&#45;&gt;Node14</title>
<g id="a_edge19_Node000009_Node000014"><a xlink:title=" ">
<path fill="none" stroke="#63b8ff" d="M165.57,-141.24C182.56,-119.95 225.95,-68.91 273,-40 276.33,-37.95 279.85,-36.05 283.47,-34.28"/>
<polygon fill="#63b8ff" stroke="#63b8ff" points="284.95,-37.45 292.63,-30.15 282.08,-31.07 284.95,-37.45"/>
</a>
</g>
</g>
<!-- Node11&#45;&gt;Node3 -->
<g id="edge14_Node000011_Node000003" class="edge">
<title>Node11&#45;&gt;Node3</title>
<g id="a_edge14_Node000011_Node000003"><a xlink:title=" ">
<path fill="none" stroke="#63b8ff" d="M385.24,-141.53C404.14,-146.24 427.13,-151.97 447.23,-156.97"/>
<polygon fill="#63b8ff" stroke="#63b8ff" points="446.58,-160.42 457.13,-159.44 448.27,-153.63 446.58,-160.42"/>
</a>
</g>
</g>
<!-- Node12&#45;&gt;Node3 -->
<g id="edge16_Node000012_Node000003" class="edge">
<title>Node12&#45;&gt;Node3</title>
<g id="a_edge16_Node000012_Node000003"><a xlink:title=" ">
<path fill="none" stroke="#63b8ff" d="M393.21,-104.51C401.98,-107.06 410.93,-110.2 419,-114 440.52,-124.15 462.28,-140.52 477.06,-152.77"/>
<polygon fill="#63b8ff" stroke="#63b8ff" points="475.02,-155.62 484.91,-159.42 479.55,-150.28 475.02,-155.62"/>
</a>
</g>
</g>
<!-- Node13&#45;&gt;Node3 -->
<g id="edge18_Node000013_Node000003" class="edge">
<title>Node13&#45;&gt;Node3</title>
<g id="a_edge18_Node000013_Node000003"><a xlink:title=" ">
<path fill="none" stroke="#63b8ff" d="M398.99,-67.54C406.02,-70.01 412.9,-73.11 419,-77 448.47,-95.79 472.24,-129.61 485.08,-150.6"/>
<polygon fill="#63b8ff" stroke="#63b8ff" points="482.09,-152.41 490.19,-159.24 488.11,-148.85 482.09,-152.41"/>
</a>
</g>
</g>
</g>
</svg>
