<?xml version="1.0" encoding="UTF-8" standalone="no"?>
<!DOCTYPE svg PUBLIC "-//W3C//DTD SVG 1.1//EN"
 "http://www.w3.org/Graphics/SVG/1.1/DTD/svg11.dtd">
<!-- Generated by graphviz version 2.43.0 (0)
 -->
<!-- Title: examples/mitm/mitm&#45;mitigation.cc Pages: 1 -->
<svg width="1363pt" height="104pt"
 viewBox="0.00 0.00 1363.00 104.00" xmlns="http://www.w3.org/2000/svg" xmlns:xlink="http://www.w3.org/1999/xlink">
<g id="graph0" class="graph" transform="scale(1 1) rotate(0) translate(4 100)">
<title>examples/mitm/mitm&#45;mitigation.cc</title>
<!-- Node1 -->
<g id="Node000001" class="node">
<title>Node1</title>
<g id="a_Node000001"><a xlink:title="NS&#45;3 simulation demonstrating Zero Trust principles using secure communication and policy enforcement...">
<polygon fill="#999999" stroke="#666666" points="742,-96 619,-96 619,-66 742,-66 742,-96"/>
<text text-anchor="start" x="627" y="-84" font-family="Helvetica,sans-Serif" font-size="10.00">examples/mitm/mitm</text>
<text text-anchor="middle" x="680.5" y="-73" font-family="Helvetica,sans-Serif" font-size="10.00">&#45;mitigation.cc</text>
</a>
</g>
</g>
<!-- Node2 -->
<g id="Node000002" class="node">
<title>Node2</title>
<g id="a_Node000002"><a xlink:title=" ">
<polygon fill="#e0e0e0" stroke="#999999" points="107,-24.5 0,-24.5 0,-5.5 107,-5.5 107,-24.5"/>
<text text-anchor="middle" x="53.5" y="-12.5" font-family="Helvetica,sans-Serif" font-size="10.00">ns3/core&#45;module.h</text>
</a>
</g>
</g>
<!-- Node1&#45;&gt;Node2 -->
<g id="edge1_Node000001_Node000002" class="edge">
<title>Node1&#45;&gt;Node2</title>
<g id="a_edge1_Node000001_Node000002"><a xlink:title=" ">
<path fill="none" stroke="#63b8ff" d="M618.84,-77.17C514.79,-71.8 297.92,-58.08 116.5,-30 110.54,-29.08 104.3,-27.92 98.17,-26.68"/>
<polygon fill="#63b8ff" stroke="#63b8ff" points="98.52,-23.17 88.01,-24.52 97.06,-30.02 98.52,-23.17"/>
</a>
</g>
</g>
<!-- Node3 -->
<g id="Node000003" class="node">
<title>Node3</title>
<g id="a_Node000003"><a xlink:title=" ">
<polygon fill="#e0e0e0" stroke="#999999" points="251.5,-24.5 125.5,-24.5 125.5,-5.5 251.5,-5.5 251.5,-24.5"/>
<text text-anchor="middle" x="188.5" y="-12.5" font-family="Helvetica,sans-Serif" font-size="10.00">ns3/network&#45;module.h</text>
</a>
</g>
</g>
<!-- Node1&#45;&gt;Node3 -->
<g id="edge2_Node000001_Node000003" class="edge">
<title>Node1&#45;&gt;Node3</title>
<g id="a_edge2_Node000001_Node000003"><a xlink:title=" ">
<path fill="none" stroke="#63b8ff" d="M618.74,-74.08C536.68,-65.89 387.28,-49.84 260.5,-30 253.74,-28.94 246.64,-27.71 239.65,-26.43"/>
<polygon fill="#63b8ff" stroke="#63b8ff" points="240,-22.93 229.53,-24.52 238.71,-29.81 240,-22.93"/>
</a>
</g>
</g>
<!-- Node4 -->
<g id="Node000004" class="node">
<title>Node4</title>
<g id="a_Node000004"><a xlink:title=" ">
<polygon fill="#e0e0e0" stroke="#999999" points="395,-24.5 270,-24.5 270,-5.5 395,-5.5 395,-24.5"/>
<text text-anchor="middle" x="332.5" y="-12.5" font-family="Helvetica,sans-Serif" font-size="10.00">ns3/internet&#45;module.h</text>
</a>
</g>
</g>
<!-- Node1&#45;&gt;Node4 -->
<g id="edge3_Node000001_Node000004" class="edge">
<title>Node1&#45;&gt;Node4</title>
<g id="a_edge3_Node000001_Node000004"><a xlink:title=" ">
<path fill="none" stroke="#63b8ff" d="M618.8,-69.06C562.84,-59.07 478.08,-43.82 404.5,-30 398.42,-28.86 392.06,-27.65 385.74,-26.43"/>
<polygon fill="#63b8ff" stroke="#63b8ff" points="386.37,-22.99 375.89,-24.53 385.04,-29.86 386.37,-22.99"/>
</a>
</g>
</g>
<!-- Node5 -->
<g id="Node000005" class="node">
<title>Node5</title>
<g id="a_Node000005"><a xlink:title=" ">
<polygon fill="#e0e0e0" stroke="#999999" points="517.5,-30 413.5,-30 413.5,0 517.5,0 517.5,-30"/>
<text text-anchor="start" x="421.5" y="-18" font-family="Helvetica,sans-Serif" font-size="10.00">ns3/point&#45;to&#45;point</text>
<text text-anchor="middle" x="465.5" y="-7" font-family="Helvetica,sans-Serif" font-size="10.00">&#45;module.h</text>
</a>
</g>
</g>
<!-- Node1&#45;&gt;Node5 -->
<g id="edge4_Node000001_Node000005" class="edge">
<title>Node1&#45;&gt;Node5</title>
<g id="a_edge4_Node000001_Node000005"><a xlink:title=" ">
<path fill="none" stroke="#63b8ff" d="M633.32,-65.95C600.69,-56.24 557.1,-43.27 522.53,-32.98"/>
<polygon fill="#63b8ff" stroke="#63b8ff" points="523.16,-29.51 512.57,-30.01 521.16,-36.22 523.16,-29.51"/>
</a>
</g>
</g>
<!-- Node6 -->
<g id="Node000006" class="node">
<title>Node6</title>
<g id="a_Node000006"><a xlink:title=" ">
<polygon fill="#e0e0e0" stroke="#999999" points="681.5,-24.5 535.5,-24.5 535.5,-5.5 681.5,-5.5 681.5,-24.5"/>
<text text-anchor="middle" x="608.5" y="-12.5" font-family="Helvetica,sans-Serif" font-size="10.00">ns3/applications&#45;module.h</text>
</a>
</g>
</g>
<!-- Node1&#45;&gt;Node6 -->
<g id="edge5_Node000001_Node000006" class="edge">
<title>Node1&#45;&gt;Node6</title>
<g id="a_edge5_Node000001_Node000006"><a xlink:title=" ">
<path fill="none" stroke="#63b8ff" d="M664.52,-65.8C653.19,-55.72 637.97,-42.19 626.25,-31.78"/>
<polygon fill="#63b8ff" stroke="#63b8ff" points="628.25,-28.87 618.45,-24.84 623.6,-34.1 628.25,-28.87"/>
</a>
</g>
</g>
<!-- Node7 -->
<g id="Node000007" class="node">
<title>Node7</title>
<g id="a_Node000007"><a xlink:title=" ">
<polygon fill="#e0e0e0" stroke="#999999" points="807,-24.5 700,-24.5 700,-5.5 807,-5.5 807,-24.5"/>
<text text-anchor="middle" x="753.5" y="-12.5" font-family="Helvetica,sans-Serif" font-size="10.00">ns3/zt&#45;certificate.h</text>
</a>
</g>
</g>
<!-- Node1&#45;&gt;Node7 -->
<g id="edge6_Node000001_Node000007" class="edge">
<title>Node1&#45;&gt;Node7</title>
<g id="a_edge6_Node000001_Node000007"><a xlink:title=" ">
<path fill="none" stroke="#63b8ff" d="M696.7,-65.8C708.3,-55.62 723.92,-41.93 735.84,-31.48"/>
<polygon fill="#63b8ff" stroke="#63b8ff" points="738.2,-34.07 743.41,-24.84 733.59,-28.8 738.2,-34.07"/>
</a>
</g>
</g>
<!-- Node8 -->
<g id="Node000008" class="node">
<title>Node8</title>
<g id="a_Node000008"><a xlink:title=" ">
<polygon fill="#e0e0e0" stroke="#999999" points="950,-24.5 825,-24.5 825,-5.5 950,-5.5 950,-24.5"/>
<text text-anchor="middle" x="887.5" y="-12.5" font-family="Helvetica,sans-Serif" font-size="10.00">ns3/zt&#45;policy&#45;engine.h</text>
</a>
</g>
</g>
<!-- Node1&#45;&gt;Node8 -->
<g id="edge7_Node000001_Node000008" class="edge">
<title>Node1&#45;&gt;Node8</title>
<g id="a_edge7_Node000001_Node000008"><a xlink:title=" ">
<path fill="none" stroke="#63b8ff" d="M725.93,-65.95C763.19,-54.43 815.3,-38.32 850.16,-27.54"/>
<polygon fill="#63b8ff" stroke="#63b8ff" points="851.43,-30.82 859.95,-24.52 849.36,-24.13 851.43,-30.82"/>
</a>
</g>
</g>
<!-- Node9 -->
<g id="Node000009" class="node">
<title>Node9</title>
<g id="a_Node000009"><a xlink:title=" ">
<polygon fill="#e0e0e0" stroke="#999999" points="1103,-24.5 968,-24.5 968,-5.5 1103,-5.5 1103,-24.5"/>
<text text-anchor="middle" x="1035.5" y="-12.5" font-family="Helvetica,sans-Serif" font-size="10.00">ns3/zt&#45;encryption&#45;utils.h</text>
</a>
</g>
</g>
<!-- Node1&#45;&gt;Node9 -->
<g id="edge8_Node000001_Node000009" class="edge">
<title>Node1&#45;&gt;Node9</title>
<g id="a_edge8_Node000001_Node000009"><a xlink:title=" ">
<path fill="none" stroke="#63b8ff" d="M742.02,-69.06C798.56,-58.99 884.7,-43.59 959.5,-30 965.82,-28.85 972.44,-27.64 979.02,-26.43"/>
<polygon fill="#63b8ff" stroke="#63b8ff" points="980.08,-29.8 989.29,-24.55 978.82,-22.91 980.08,-29.8"/>
</a>
</g>
</g>
<!-- Node10 -->
<g id="Node000010" class="node">
<title>Node10</title>
<g id="a_Node000010"><a xlink:title=" ">
<polygon fill="#e0e0e0" stroke="#999999" points="1210,-24.5 1121,-24.5 1121,-5.5 1210,-5.5 1210,-24.5"/>
<text text-anchor="middle" x="1165.5" y="-12.5" font-family="Helvetica,sans-Serif" font-size="10.00">ns3/zt&#45;logger.h</text>
</a>
</g>
</g>
<!-- Node1&#45;&gt;Node10 -->
<g id="edge9_Node000001_Node000010" class="edge">
<title>Node1&#45;&gt;Node10</title>
<g id="a_edge9_Node000001_Node000010"><a xlink:title=" ">
<path fill="none" stroke="#63b8ff" d="M742.08,-75.66C826.26,-69.09 981.74,-54.71 1112.5,-30 1116.99,-29.15 1121.65,-28.13 1126.28,-27.03"/>
<polygon fill="#63b8ff" stroke="#63b8ff" points="1127.39,-30.36 1136.24,-24.53 1125.68,-23.57 1127.39,-30.36"/>
</a>
</g>
</g>
<!-- Node11 -->
<g id="Node000011" class="node">
<title>Node11</title>
<g id="a_Node000011"><a xlink:title=" ">
<polygon fill="#e0e0e0" stroke="#999999" points="1355,-24.5 1228,-24.5 1228,-5.5 1355,-5.5 1355,-24.5"/>
<text text-anchor="middle" x="1291.5" y="-12.5" font-family="Helvetica,sans-Serif" font-size="10.00">ns3/zt&#45;tls&#45;handshake.h</text>
</a>
</g>
</g>
<!-- Node1&#45;&gt;Node11 -->
<g id="edge10_Node000001_Node000011" class="edge">
<title>Node1&#45;&gt;Node11</title>
<g id="a_edge10_Node000001_Node000011"><a xlink:title=" ">
<path fill="none" stroke="#63b8ff" d="M742.17,-76.28C842.55,-69.79 1047.4,-54.65 1219.5,-30 1226.61,-28.98 1234.07,-27.73 1241.4,-26.41"/>
<polygon fill="#63b8ff" stroke="#63b8ff" points="1242.07,-29.84 1251.25,-24.56 1240.78,-22.96 1242.07,-29.84"/>
</a>
</g>
</g>
</g>
</svg>
