<?xml version="1.0" encoding="UTF-8" standalone="no"?>
<!DOCTYPE svg PUBLIC "-//W3C//DTD SVG 1.1//EN"
 "http://www.w3.org/Graphics/SVG/1.1/DTD/svg11.dtd">
<!-- Generated by graphviz version 2.43.0 (0)
 -->
<!-- Title: ns3::DecryptPayload Pages: 1 -->
<!--zoomable 101 -->

<svg id="main" version="1.1" xmlns="http://www.w3.org/2000/svg" xmlns:xlink="http://www.w3.org/1999/xlink" xml:space="preserve" onload="init(evt)">
<style type="text/css"><![CDATA[
.node, .edge {opacity: 0.7;}
.node.selected, .edge.selected {opacity: 1;}
.edge:hover path { stroke: red; }
.edge:hover polygon { stroke: red; fill: red; }
]]></style>

<defs>
  <circle id="rim" cx="0" cy="0" r="7"/>
  <circle id="rim2" cx="0" cy="0" r="3.5"/>
  <g id="zoomPlus">
    <use xlink:href="#rim" fill="#404040"><set attributeName="fill" to="#808080" begin="zoomplus.mouseover" end="zoomplus.mouseout"/></use>
    <path d="M-4,0h8M0,-4v8" fill="none" stroke="white" stroke-width="1.5" pointer-events="none"/>
  </g>
  <g id="zoomMin">
    <use xlink:href="#rim" fill="#404040"><set attributeName="fill" to="#808080" begin="zoomminus.mouseover" end="zoomminus.mouseout"/></use>
    <path d="M-4,0h8" fill="none" stroke="white" stroke-width="1.5" pointer-events="none"/>
  </g>
  <g id="arrowUp" transform="translate(30 24)">
    <use xlink:href="#rim"/>
    <path pointer-events="none" fill="none" stroke="white" stroke-width="1.5" d="M0,-3.0v7 M-2.5,-0.5L0,-3.0L2.5,-0.5"/>
  </g>
  <g id="arrowRight" transform="rotate(90) translate(36 -43)">
    <use xlink:href="#rim"/>
    <path pointer-events="none" fill="none" stroke="white" stroke-width="1.5" d="M0,-3.0v7 M-2.5,-0.5L0,-3.0L2.5,-0.5"/>
  </g>
  <g id="arrowDown" transform="rotate(180) translate(-30 -48)">
    <use xlink:href="#rim"/>
    <path pointer-events="none" fill="none" stroke="white" stroke-width="1.5" d="M0,-3.0v7 M-2.5,-0.5L0,-3.0L2.5,-0.5"/>
  </g>
  <g id="arrowLeft" transform="rotate(270) translate(-36 17)">
    <use xlink:href="#rim"/>
    <path pointer-events="none" fill="none" stroke="white" stroke-width="1.5" d="M0,-3.0v7 M-2.5,-0.5L0,-3.0L2.5,-0.5"/>
  </g>
  <g id="resetDef">
    <use xlink:href="#rim2" fill="#404040"><set attributeName="fill" to="#808080" begin="reset.mouseover" end="reset.mouseout"/></use>
  </g>
</defs>
<script type="application/ecmascript">
var viewWidth = 723;
var viewHeight = 101;
var sectionId = 'dynsection-0';
</script>
<script type="application/ecmascript" xlink:href="svg.min.js"/>
<svg id="graph" class="graph">
<g id="viewport">
<title>ns3::DecryptPayload</title>
<!-- Node1 -->
<g id="Node000001" class="node">
<title>Node1</title>
<g id="a_Node000001"><a xlink:title="Decrypts a ciphertext string encrypted with EncryptPayload.">
<polygon fill="#999999" stroke="#666666" points="715,-56 599,-56 599,-37 715,-37 715,-56"/>
<text text-anchor="middle" x="657" y="-44" font-family="Helvetica,sans-Serif" font-size="10.00">ns3::DecryptPayload</text>
</a>
</g>
</g>
<!-- Node2 -->
<g id="Node000002" class="node">
<title>Node2</title>
<g id="a_Node000002"><a xlink:href="classSecureSinkApp.html#a3a672bd05d4399036c2f7fe92c205962" target="_top" xlink:title="Handle incoming packets, validate certificate, and decrypt authorized data.">
<polygon fill="white" stroke="#666666" points="563,-93 408,-93 408,-74 563,-74 563,-93"/>
<text text-anchor="middle" x="485.5" y="-81" font-family="Helvetica,sans-Serif" font-size="10.00">SecureSinkApp::HandleRead</text>
</a>
</g>
</g>
<!-- Node1&#45;&gt;Node2 -->
<g id="edge1_Node000001_Node000002" class="edge">
<title>Node1&#45;&gt;Node2</title>
<g id="a_edge1_Node000001_Node000002"><a xlink:title=" ">
<path fill="none" stroke="#63b8ff" d="M602.31,-58.22C579.1,-63.29 552.28,-69.14 530.3,-73.94"/>
<polygon fill="#63b8ff" stroke="#63b8ff" points="603.33,-61.58 612.35,-56.03 601.83,-54.74 603.33,-61.58"/>
</a>
</g>
</g>
<!-- Node5 -->
<g id="Node000005" class="node">
<title>Node5</title>
<g id="a_Node000005"><a xlink:href="classSecureSink.html#a5987bbdb44f0b13e034968f6f836a61e" target="_top" xlink:title=" ">
<polygon fill="white" stroke="#666666" points="553.5,-56 417.5,-56 417.5,-37 553.5,-37 553.5,-56"/>
<text text-anchor="middle" x="485.5" y="-44" font-family="Helvetica,sans-Serif" font-size="10.00">SecureSink::HandleRead</text>
</a>
</g>
</g>
<!-- Node1&#45;&gt;Node5 -->
<g id="edge4_Node000001_Node000005" class="edge">
<title>Node1&#45;&gt;Node5</title>
<g id="a_edge4_Node000001_Node000005"><a xlink:title=" ">
<path fill="none" stroke="#63b8ff" d="M588.32,-46.5C576.94,-46.5 565.14,-46.5 553.78,-46.5"/>
<polygon fill="#63b8ff" stroke="#63b8ff" points="588.62,-50 598.62,-46.5 588.61,-43 588.62,-50"/>
</a>
</g>
</g>
<!-- Node8 -->
<g id="Node000008" class="node">
<title>Node8</title>
<g id="a_Node000008"><a xlink:href="mitm-mitigation_8cc.html#a6898e3febd567849e1a7310597beb21f" target="_top" xlink:title="Receives an encrypted packet at the gateway and performs decryption and validation.">
<polygon fill="white" stroke="#666666" points="540.5,-19 430.5,-19 430.5,0 540.5,0 540.5,-19"/>
<text text-anchor="middle" x="485.5" y="-7" font-family="Helvetica,sans-Serif" font-size="10.00">ReceiveAtGateway</text>
</a>
</g>
</g>
<!-- Node1&#45;&gt;Node8 -->
<g id="edge7_Node000001_Node000008" class="edge">
<title>Node1&#45;&gt;Node8</title>
<g id="a_edge7_Node000001_Node000008"><a xlink:title=" ">
<path fill="none" stroke="#63b8ff" d="M602.31,-34.78C579.1,-29.71 552.28,-23.86 530.3,-19.06"/>
<polygon fill="#63b8ff" stroke="#63b8ff" points="601.83,-38.26 612.35,-36.97 603.33,-31.42 601.83,-38.26"/>
</a>
</g>
</g>
<!-- Node3 -->
<g id="Node000003" class="node">
<title>Node3</title>
<g id="a_Node000003"><a xlink:href="classSecureSinkApp.html#a5ee6aadf29ff1a4560e160520bba0030" target="_top" xlink:title=" ">
<polygon fill="white" stroke="#666666" points="372,-93 209,-93 209,-74 372,-74 372,-93"/>
<text text-anchor="middle" x="290.5" y="-81" font-family="Helvetica,sans-Serif" font-size="10.00">SecureSinkApp::HandleAccept</text>
</a>
</g>
</g>
<!-- Node2&#45;&gt;Node3 -->
<g id="edge2_Node000002_Node000003" class="edge">
<title>Node2&#45;&gt;Node3</title>
<g id="a_edge2_Node000002_Node000003"><a xlink:title=" ">
<path fill="none" stroke="#63b8ff" d="M397.92,-83.5C389.32,-83.5 380.62,-83.5 372.08,-83.5"/>
<polygon fill="#63b8ff" stroke="#63b8ff" points="397.94,-87 407.94,-83.5 397.94,-80 397.94,-87"/>
</a>
</g>
</g>
<!-- Node4 -->
<g id="Node000004" class="node">
<title>Node4</title>
<g id="a_Node000004"><a xlink:href="classSecureSinkApp.html#ac45868eb53a9a2e9d12e46f355731811" target="_top" xlink:title=" ">
<polygon fill="white" stroke="#666666" points="173,-93 0,-93 0,-74 173,-74 173,-93"/>
<text text-anchor="middle" x="86.5" y="-81" font-family="Helvetica,sans-Serif" font-size="10.00">SecureSinkApp::StartApplication</text>
</a>
</g>
</g>
<!-- Node3&#45;&gt;Node4 -->
<g id="edge3_Node000003_Node000004" class="edge">
<title>Node3&#45;&gt;Node4</title>
<g id="a_edge3_Node000003_Node000004"><a xlink:title=" ">
<path fill="none" stroke="#63b8ff" d="M198.52,-83.5C190.04,-83.5 181.47,-83.5 173.04,-83.5"/>
<polygon fill="#63b8ff" stroke="#63b8ff" points="198.79,-87 208.79,-83.5 198.79,-80 198.79,-87"/>
</a>
</g>
</g>
<!-- Node6 -->
<g id="Node000006" class="node">
<title>Node6</title>
<g id="a_Node000006"><a xlink:href="classSecureSink.html#a5e00071e0d8327c46c34d2ffdbc386bc" target="_top" xlink:title=" ">
<polygon fill="white" stroke="#666666" points="362.5,-56 218.5,-56 218.5,-37 362.5,-37 362.5,-56"/>
<text text-anchor="middle" x="290.5" y="-44" font-family="Helvetica,sans-Serif" font-size="10.00">SecureSink::HandleAccept</text>
</a>
</g>
</g>
<!-- Node5&#45;&gt;Node6 -->
<g id="edge5_Node000005_Node000006" class="edge">
<title>Node5&#45;&gt;Node6</title>
<g id="a_edge5_Node000005_Node000006"><a xlink:title=" ">
<path fill="none" stroke="#63b8ff" d="M407.22,-46.5C392.54,-46.5 377.24,-46.5 362.76,-46.5"/>
<polygon fill="#63b8ff" stroke="#63b8ff" points="407.27,-50 417.27,-46.5 407.27,-43 407.27,-50"/>
</a>
</g>
</g>
<!-- Node7 -->
<g id="Node000007" class="node">
<title>Node7</title>
<g id="a_Node000007"><a xlink:href="classSecureSink.html#ad09b7203b04b80cb3a8c89eb9174fbd2" target="_top" xlink:title=" ">
<polygon fill="white" stroke="#666666" points="164,-56 9,-56 9,-37 164,-37 164,-56"/>
<text text-anchor="middle" x="86.5" y="-44" font-family="Helvetica,sans-Serif" font-size="10.00">SecureSink::StartApplication</text>
</a>
</g>
</g>
<!-- Node6&#45;&gt;Node7 -->
<g id="edge6_Node000006_Node000007" class="edge">
<title>Node6&#45;&gt;Node7</title>
<g id="a_edge6_Node000006_Node000007"><a xlink:title=" ">
<path fill="none" stroke="#63b8ff" d="M207.9,-46.5C193.49,-46.5 178.52,-46.5 164.25,-46.5"/>
<polygon fill="#63b8ff" stroke="#63b8ff" points="208.28,-50 218.28,-46.5 208.28,-43 208.28,-50"/>
</a>
</g>
</g>
<!-- Node9 -->
<g id="Node000009" class="node">
<title>Node9</title>
<g id="a_Node000009"><a xlink:href="mitm-mitigation_8cc.html#a0ddf1224851353fc92bfbff6f499fa97" target="_top" xlink:title="Main entry point for the simulation. Sets up network topology, installs security components,...">
<polygon fill="white" stroke="#666666" points="311,-19 270,-19 270,0 311,0 311,-19"/>
<text text-anchor="middle" x="290.5" y="-7" font-family="Helvetica,sans-Serif" font-size="10.00">main</text>
</a>
</g>
</g>
<!-- Node8&#45;&gt;Node9 -->
<g id="edge8_Node000008_Node000009" class="edge">
<title>Node8&#45;&gt;Node9</title>
<g id="a_edge8_Node000008_Node000009"><a xlink:title=" ">
<path fill="none" stroke="#63b8ff" d="M420,-9.5C382.08,-9.5 336.71,-9.5 311.29,-9.5"/>
<polygon fill="#63b8ff" stroke="#63b8ff" points="420.48,-13 430.48,-9.5 420.48,-6 420.48,-13"/>
</a>
</g>
</g>
</g>
</svg>

<g id="navigator" transform="translate(0 0)" fill="#404254">
  <rect fill="#f2f5e9" fill-opacity="0.5" stroke="#606060" stroke-width=".5" x="0" y="0" width="60" height="60"/>
  <use id="zoomplus" xlink:href="#zoomPlus" x="17" y="9" onmousedown="handleZoom(evt,'in')"/>
  <use id="zoomminus" xlink:href="#zoomMin" x="42" y="9" onmousedown="handleZoom(evt,'out')"/>
  <use id="reset" xlink:href="#resetDef" x="30" y="36" onmousedown="handleReset()"/>
   <use id="arrowup" xlink:href="#arrowUp" x="0" y="0" onmousedown="handlePan(0,-1)"/>
  <use id="arrowright" xlink:href="#arrowRight" x="0" y="0" onmousedown="handlePan(1,0)"/>
  <use id="arrowdown" xlink:href="#arrowDown" x="0" y="0" onmousedown="handlePan(0,1)"/>
  <use id="arrowleft" xlink:href="#arrowLeft" x="0" y="0" onmousedown="handlePan(-1,0)"/>
</g>
<svg viewBox="0 0 15 15" width="100%" height="30px" preserveAspectRatio="xMaxYMin meet">
 <g id="arrow_out" transform="scale(0.3 0.3)">
  <a xlink:href="namespacens3_abcc9f927462e02351cf483e484c8eac0_icgraph_org.svg" target="_base">
   <rect id="button" ry="5" rx="5" y="6" x="6" height="38" width="38"
        fill="#f2f5e9" fill-opacity="0.5" stroke="#606060" stroke-width="1.0"/>
   <path id="arrow"
     d="M 11.500037,31.436501 C 11.940474,20.09759 22.043105,11.32322 32.158766,21.979434 L 37.068811,17.246167 C 37.068811,17.246167 37.088388,32 37.088388,32 L 22.160133,31.978069 C 22.160133,31.978069 26.997745,27.140456 26.997745,27.140456 C 18.528582,18.264221 13.291696,25.230495 11.500037,31.436501 z"
     style="fill:#404040;"/>
  </a>
 </g>
</svg>

<style type='text/css'>
<![CDATA[
[data-mouse-over-selected='false'] { opacity: 0.7; }
[data-mouse-over-selected='true']  { opacity: 1.0; }
]]>
</style>
<script type="application/ecmascript"><![CDATA[
document.addEventListener('DOMContentLoaded', (event) => {
  highlightEdges();
  highlightAdjacentNodes();
});
]]></script>
</svg>
