<?xml version="1.0" encoding="UTF-8" standalone="no"?>
<!DOCTYPE svg PUBLIC "-//W3C//DTD SVG 1.1//EN"
 "http://www.w3.org/Graphics/SVG/1.1/DTD/svg11.dtd">
<!-- Generated by graphviz version 2.43.0 (0)
 -->
<!-- Title: ns3::HexDecodeKey Pages: 1 -->
<svg width="345pt" height="64pt"
 viewBox="0.00 0.00 345.00 64.00" xmlns="http://www.w3.org/2000/svg" xmlns:xlink="http://www.w3.org/1999/xlink">
<g id="graph0" class="graph" transform="scale(1 1) rotate(0) translate(4 60)">
<title>ns3::HexDecodeKey</title>
<!-- Node1 -->
<g id="Node000001" class="node">
<title>Node1</title>
<g id="a_Node000001"><a xlink:title="Decodes a hex&#45;encoded AES key string into a raw key byte block.">
<polygon fill="#999999" stroke="#666666" points="337,-37 223,-37 223,-18 337,-18 337,-37"/>
<text text-anchor="middle" x="280" y="-25" font-family="Helvetica,sans-Serif" font-size="10.00">ns3::HexDecodeKey</text>
</a>
</g>
</g>
<!-- Node2 -->
<g id="Node000002" class="node">
<title>Node2</title>
<g id="a_Node000002"><a xlink:href="mitm-mitigation_8cc.html#a6898e3febd567849e1a7310597beb21f" target="_top" xlink:title="Receives an encrypted packet at the gateway and performs decryption and validation.">
<polygon fill="white" stroke="#666666" points="187,-56 77,-56 77,-37 187,-37 187,-56"/>
<text text-anchor="middle" x="132" y="-44" font-family="Helvetica,sans-Serif" font-size="10.00">ReceiveAtGateway</text>
</a>
</g>
</g>
<!-- Node1&#45;&gt;Node2 -->
<g id="edge1_Node000001_Node000002" class="edge">
<title>Node1&#45;&gt;Node2</title>
<g id="a_edge1_Node000001_Node000002"><a xlink:title=" ">
<path fill="none" stroke="#63b8ff" d="M212.95,-36.1C204.33,-37.22 195.59,-38.36 187.2,-39.45"/>
<polygon fill="#63b8ff" stroke="#63b8ff" points="213.51,-39.55 222.97,-34.79 212.6,-32.61 213.51,-39.55"/>
</a>
</g>
</g>
<!-- Node4 -->
<g id="Node000004" class="node">
<title>Node4</title>
<g id="a_Node000004"><a xlink:href="mitm-mitigation_8cc.html#a033167cc7a498741d454986f06be85cb" target="_top" xlink:title="Simulates a sensor device sending an encrypted payload to the gateway after policy and handshake vali...">
<polygon fill="white" stroke="#666666" points="181,-19 83,-19 83,0 181,0 181,-19"/>
<text text-anchor="middle" x="132" y="-7" font-family="Helvetica,sans-Serif" font-size="10.00">SendFromSensor</text>
</a>
</g>
</g>
<!-- Node1&#45;&gt;Node4 -->
<g id="edge3_Node000001_Node000004" class="edge">
<title>Node1&#45;&gt;Node4</title>
<g id="a_edge3_Node000001_Node000004"><a xlink:title=" ">
<path fill="none" stroke="#63b8ff" d="M212.8,-19.34C202.1,-18.02 191.2,-16.68 181.03,-15.42"/>
<polygon fill="#63b8ff" stroke="#63b8ff" points="212.62,-22.84 222.97,-20.59 213.47,-15.89 212.62,-22.84"/>
</a>
</g>
</g>
<!-- Node3 -->
<g id="Node000003" class="node">
<title>Node3</title>
<g id="a_Node000003"><a xlink:href="mitm-mitigation_8cc.html#a0ddf1224851353fc92bfbff6f499fa97" target="_top" xlink:title="Main entry point for the simulation. Sets up network topology, installs security components,...">
<polygon fill="white" stroke="#666666" points="41,-37 0,-37 0,-18 41,-18 41,-37"/>
<text text-anchor="middle" x="20.5" y="-25" font-family="Helvetica,sans-Serif" font-size="10.00">main</text>
</a>
</g>
</g>
<!-- Node2&#45;&gt;Node3 -->
<g id="edge2_Node000002_Node000003" class="edge">
<title>Node2&#45;&gt;Node3</title>
<g id="a_edge2_Node000002_Node000003"><a xlink:title=" ">
<path fill="none" stroke="#63b8ff" d="M67.01,-35.4C57.62,-33.77 48.59,-32.2 41.09,-30.9"/>
<polygon fill="#63b8ff" stroke="#63b8ff" points="66.44,-38.85 76.89,-37.11 67.64,-31.95 66.44,-38.85"/>
</a>
</g>
</g>
<!-- Node4&#45;&gt;Node3 -->
<g id="edge4_Node000004_Node000003" class="edge">
<title>Node4&#45;&gt;Node3</title>
<g id="a_edge4_Node000004_Node000003"><a xlink:title=" ">
<path fill="none" stroke="#63b8ff" d="M72.92,-19.05C61.49,-20.93 50.24,-22.77 41.2,-24.26"/>
<polygon fill="#63b8ff" stroke="#63b8ff" points="73.67,-22.47 82.97,-17.4 72.54,-15.56 73.67,-22.47"/>
</a>
</g>
</g>
</g>
</svg>
