<?xml version="1.0" encoding="UTF-8" standalone="no"?>
<!DOCTYPE svg PUBLIC "-//W3C//DTD SVG 1.1//EN"
 "http://www.w3.org/Graphics/SVG/1.1/DTD/svg11.dtd">
<!-- Generated by graphviz version 2.43.0 (0)
 -->
<!-- Title: ns3::HexToBytes Pages: 1 -->
<svg width="752pt" height="101pt"
 viewBox="0.00 0.00 752.00 101.00" xmlns="http://www.w3.org/2000/svg" xmlns:xlink="http://www.w3.org/1999/xlink">
<g id="graph0" class="graph" transform="scale(1 1) rotate(0) translate(4 97)">
<title>ns3::HexToBytes</title>
<!-- Node1 -->
<g id="Node000001" class="node">
<title>Node1</title>
<g id="a_Node000001"><a xlink:title="Converts a hexadecimal string into a byte vector.">
<polygon fill="#999999" stroke="#666666" points="744,-56 646,-56 646,-37 744,-37 744,-56"/>
<text text-anchor="middle" x="695" y="-44" font-family="Helvetica,sans-Serif" font-size="10.00">ns3::HexToBytes</text>
</a>
</g>
</g>
<!-- Node2 -->
<g id="Node000002" class="node">
<title>Node2</title>
<g id="a_Node000002"><a xlink:href="classSecureSinkApp.html#a3a672bd05d4399036c2f7fe92c205962" target="_top" xlink:title="Handle incoming packets, validate certificate, and decrypt authorized data.">
<polygon fill="white" stroke="#666666" points="597.5,-93 442.5,-93 442.5,-74 597.5,-74 597.5,-93"/>
<text text-anchor="middle" x="520" y="-81" font-family="Helvetica,sans-Serif" font-size="10.00">SecureSinkApp::HandleRead</text>
</a>
</g>
</g>
<!-- Node1&#45;&gt;Node2 -->
<g id="edge1_Node000001_Node000002" class="edge">
<title>Node1&#45;&gt;Node2</title>
<g id="a_edge1_Node000001_Node000002"><a xlink:title=" ">
<path fill="none" stroke="#63b8ff" d="M642.84,-58.27C632.01,-60.71 620.63,-63.22 610,-65.5 596.74,-68.34 582.35,-71.3 569.08,-73.99"/>
<polygon fill="#63b8ff" stroke="#63b8ff" points="643.62,-61.68 652.6,-56.06 642.07,-54.85 643.62,-61.68"/>
</a>
</g>
</g>
<!-- Node5 -->
<g id="Node000005" class="node">
<title>Node5</title>
<g id="a_Node000005"><a xlink:href="classSecureSink.html#a5987bbdb44f0b13e034968f6f836a61e" target="_top" xlink:title=" ">
<polygon fill="white" stroke="#666666" points="588,-56 452,-56 452,-37 588,-37 588,-56"/>
<text text-anchor="middle" x="520" y="-44" font-family="Helvetica,sans-Serif" font-size="10.00">SecureSink::HandleRead</text>
</a>
</g>
</g>
<!-- Node1&#45;&gt;Node5 -->
<g id="edge4_Node000001_Node000005" class="edge">
<title>Node1&#45;&gt;Node5</title>
<g id="a_edge4_Node000001_Node000005"><a xlink:title=" ">
<path fill="none" stroke="#63b8ff" d="M635.48,-46.5C620.22,-46.5 603.66,-46.5 588,-46.5"/>
<polygon fill="#63b8ff" stroke="#63b8ff" points="635.81,-50 645.81,-46.5 635.81,-43 635.81,-50"/>
</a>
</g>
</g>
<!-- Node8 -->
<g id="Node000008" class="node">
<title>Node8</title>
<g id="a_Node000008"><a xlink:href="classSecureSensorApp.html#abcf992d1e14b78f97e8755ee1cd7537a" target="_top" xlink:title="Encrypt and send sensor data using session key.">
<polygon fill="white" stroke="#666666" points="610,-19 430,-19 430,0 610,0 610,-19"/>
<text text-anchor="middle" x="520" y="-7" font-family="Helvetica,sans-Serif" font-size="10.00">SecureSensorApp::SendEncrypted</text>
</a>
</g>
</g>
<!-- Node1&#45;&gt;Node8 -->
<g id="edge7_Node000001_Node000008" class="edge">
<title>Node1&#45;&gt;Node8</title>
<g id="a_edge7_Node000001_Node000008"><a xlink:title=" ">
<path fill="none" stroke="#63b8ff" d="M642.84,-34.73C632.01,-32.29 620.63,-29.78 610,-27.5 596.74,-24.66 582.35,-21.7 569.08,-19.01"/>
<polygon fill="#63b8ff" stroke="#63b8ff" points="642.07,-38.15 652.6,-36.94 643.62,-31.32 642.07,-38.15"/>
</a>
</g>
</g>
<!-- Node3 -->
<g id="Node000003" class="node">
<title>Node3</title>
<g id="a_Node000003"><a xlink:href="classSecureSinkApp.html#a5ee6aadf29ff1a4560e160520bba0030" target="_top" xlink:title=" ">
<polygon fill="white" stroke="#666666" points="383,-93 220,-93 220,-74 383,-74 383,-93"/>
<text text-anchor="middle" x="301.5" y="-81" font-family="Helvetica,sans-Serif" font-size="10.00">SecureSinkApp::HandleAccept</text>
</a>
</g>
</g>
<!-- Node2&#45;&gt;Node3 -->
<g id="edge2_Node000002_Node000003" class="edge">
<title>Node2&#45;&gt;Node3</title>
<g id="a_edge2_Node000002_Node000003"><a xlink:title=" ">
<path fill="none" stroke="#63b8ff" d="M432.34,-83.5C416.08,-83.5 399.13,-83.5 383.06,-83.5"/>
<polygon fill="#63b8ff" stroke="#63b8ff" points="432.37,-87 442.37,-83.5 432.37,-80 432.37,-87"/>
</a>
</g>
</g>
<!-- Node4 -->
<g id="Node000004" class="node">
<title>Node4</title>
<g id="a_Node000004"><a xlink:href="classSecureSinkApp.html#ac45868eb53a9a2e9d12e46f355731811" target="_top" xlink:title=" ">
<polygon fill="white" stroke="#666666" points="173,-93 0,-93 0,-74 173,-74 173,-93"/>
<text text-anchor="middle" x="86.5" y="-81" font-family="Helvetica,sans-Serif" font-size="10.00">SecureSinkApp::StartApplication</text>
</a>
</g>
</g>
<!-- Node3&#45;&gt;Node4 -->
<g id="edge3_Node000003_Node000004" class="edge">
<title>Node3&#45;&gt;Node4</title>
<g id="a_edge3_Node000003_Node000004"><a xlink:title=" ">
<path fill="none" stroke="#63b8ff" d="M209.83,-83.5C197.65,-83.5 185.2,-83.5 173.11,-83.5"/>
<polygon fill="#63b8ff" stroke="#63b8ff" points="209.97,-87 219.97,-83.5 209.97,-80 209.97,-87"/>
</a>
</g>
</g>
<!-- Node6 -->
<g id="Node000006" class="node">
<title>Node6</title>
<g id="a_Node000006"><a xlink:href="classSecureSink.html#a5e00071e0d8327c46c34d2ffdbc386bc" target="_top" xlink:title=" ">
<polygon fill="white" stroke="#666666" points="373.5,-56 229.5,-56 229.5,-37 373.5,-37 373.5,-56"/>
<text text-anchor="middle" x="301.5" y="-44" font-family="Helvetica,sans-Serif" font-size="10.00">SecureSink::HandleAccept</text>
</a>
</g>
</g>
<!-- Node5&#45;&gt;Node6 -->
<g id="edge5_Node000005_Node000006" class="edge">
<title>Node5&#45;&gt;Node6</title>
<g id="a_edge5_Node000005_Node000006"><a xlink:title=" ">
<path fill="none" stroke="#63b8ff" d="M441.92,-46.5C419.7,-46.5 395.55,-46.5 373.7,-46.5"/>
<polygon fill="#63b8ff" stroke="#63b8ff" points="441.98,-50 451.98,-46.5 441.98,-43 441.98,-50"/>
</a>
</g>
</g>
<!-- Node7 -->
<g id="Node000007" class="node">
<title>Node7</title>
<g id="a_Node000007"><a xlink:href="classSecureSink.html#ad09b7203b04b80cb3a8c89eb9174fbd2" target="_top" xlink:title=" ">
<polygon fill="white" stroke="#666666" points="164,-56 9,-56 9,-37 164,-37 164,-56"/>
<text text-anchor="middle" x="86.5" y="-44" font-family="Helvetica,sans-Serif" font-size="10.00">SecureSink::StartApplication</text>
</a>
</g>
</g>
<!-- Node6&#45;&gt;Node7 -->
<g id="edge6_Node000006_Node000007" class="edge">
<title>Node6&#45;&gt;Node7</title>
<g id="a_edge6_Node000006_Node000007"><a xlink:title=" ">
<path fill="none" stroke="#63b8ff" d="M219.08,-46.5C201.04,-46.5 181.98,-46.5 164.14,-46.5"/>
<polygon fill="#63b8ff" stroke="#63b8ff" points="219.28,-50 229.28,-46.5 219.28,-43 219.28,-50"/>
</a>
</g>
</g>
<!-- Node9 -->
<g id="Node000009" class="node">
<title>Node9</title>
<g id="a_Node000009"><a xlink:href="classSecureSensorApp.html#a05e3604df4cc65de733f672b33e33ee5" target="_top" xlink:title=" ">
<polygon fill="white" stroke="#666666" points="394,-19 209,-19 209,0 394,0 394,-19"/>
<text text-anchor="middle" x="301.5" y="-7" font-family="Helvetica,sans-Serif" font-size="10.00">SecureSensorApp::StartApplication</text>
</a>
</g>
</g>
<!-- Node8&#45;&gt;Node9 -->
<g id="edge8_Node000008_Node000009" class="edge">
<title>Node8&#45;&gt;Node9</title>
<g id="a_edge8_Node000008_Node000009"><a xlink:title=" ">
<path fill="none" stroke="#63b8ff" d="M419.43,-9.5C410.97,-9.5 402.44,-9.5 394.05,-9.5"/>
<polygon fill="#63b8ff" stroke="#63b8ff" points="419.69,-13 429.69,-9.5 419.69,-6 419.69,-13"/>
</a>
</g>
</g>
</g>
</svg>
