<?xml version="1.0" encoding="UTF-8" standalone="no"?>
<!DOCTYPE svg PUBLIC "-//W3C//DTD SVG 1.1//EN"
 "http://www.w3.org/Graphics/SVG/1.1/DTD/svg11.dtd">
<!-- Generated by graphviz version 2.43.0 (0)
 -->
<!-- Title: examples/unauthorized&#45;access/unauthorized&#45;access&#45;attack.cc Pages: 1 -->
<svg width="690pt" height="115pt"
 viewBox="0.00 0.00 689.50 115.00" xmlns="http://www.w3.org/2000/svg" xmlns:xlink="http://www.w3.org/1999/xlink">
<g id="graph0" class="graph" transform="scale(1 1) rotate(0) translate(4 111)">
<title>examples/unauthorized&#45;access/unauthorized&#45;access&#45;attack.cc</title>
<!-- Node1 -->
<g id="Node000001" class="node">
<title>Node1</title>
<g id="a_Node000001"><a xlink:title="Simulates unauthorized access in an NS&#45;3 IoT setup without Zero Trust enforcement.">
<polygon fill="#999999" stroke="#666666" points="398,-107 267,-107 267,-66 398,-66 398,-107"/>
<text text-anchor="start" x="275" y="-95" font-family="Helvetica,sans-Serif" font-size="10.00">examples/unauthorized</text>
<text text-anchor="start" x="275" y="-84" font-family="Helvetica,sans-Serif" font-size="10.00">&#45;access/unauthorized</text>
<text text-anchor="middle" x="332.5" y="-73" font-family="Helvetica,sans-Serif" font-size="10.00">&#45;access&#45;attack.cc</text>
</a>
</g>
</g>
<!-- Node2 -->
<g id="Node000002" class="node">
<title>Node2</title>
<g id="a_Node000002"><a xlink:title=" ">
<polygon fill="#e0e0e0" stroke="#999999" points="107,-24.5 0,-24.5 0,-5.5 107,-5.5 107,-24.5"/>
<text text-anchor="middle" x="53.5" y="-12.5" font-family="Helvetica,sans-Serif" font-size="10.00">ns3/core&#45;module.h</text>
</a>
</g>
</g>
<!-- Node1&#45;&gt;Node2 -->
<g id="edge1_Node000001_Node000002" class="edge">
<title>Node1&#45;&gt;Node2</title>
<g id="a_edge1_Node000001_Node000002"><a xlink:title=" ">
<path fill="none" stroke="#63b8ff" d="M266.73,-69.12C214.61,-56.13 143.22,-38.35 97.72,-27.02"/>
<polygon fill="#63b8ff" stroke="#63b8ff" points="98.41,-23.58 87.86,-24.56 96.72,-30.37 98.41,-23.58"/>
</a>
</g>
</g>
<!-- Node3 -->
<g id="Node000003" class="node">
<title>Node3</title>
<g id="a_Node000003"><a xlink:title=" ">
<polygon fill="#e0e0e0" stroke="#999999" points="251.5,-24.5 125.5,-24.5 125.5,-5.5 251.5,-5.5 251.5,-24.5"/>
<text text-anchor="middle" x="188.5" y="-12.5" font-family="Helvetica,sans-Serif" font-size="10.00">ns3/network&#45;module.h</text>
</a>
</g>
</g>
<!-- Node1&#45;&gt;Node3 -->
<g id="edge2_Node000001_Node000003" class="edge">
<title>Node1&#45;&gt;Node3</title>
<g id="a_edge2_Node000001_Node000003"><a xlink:title=" ">
<path fill="none" stroke="#63b8ff" d="M292,-65.96C267.48,-54.12 236.87,-39.35 215.33,-28.95"/>
<polygon fill="#63b8ff" stroke="#63b8ff" points="216.65,-25.7 206.12,-24.5 213.6,-32 216.65,-25.7"/>
</a>
</g>
</g>
<!-- Node4 -->
<g id="Node000004" class="node">
<title>Node4</title>
<g id="a_Node000004"><a xlink:title=" ">
<polygon fill="#e0e0e0" stroke="#999999" points="395,-24.5 270,-24.5 270,-5.5 395,-5.5 395,-24.5"/>
<text text-anchor="middle" x="332.5" y="-12.5" font-family="Helvetica,sans-Serif" font-size="10.00">ns3/internet&#45;module.h</text>
</a>
</g>
</g>
<!-- Node1&#45;&gt;Node4 -->
<g id="edge3_Node000001_Node000004" class="edge">
<title>Node1&#45;&gt;Node4</title>
<g id="a_edge3_Node000001_Node000004"><a xlink:title=" ">
<path fill="none" stroke="#63b8ff" d="M332.5,-65.77C332.5,-56.08 332.5,-44.46 332.5,-34.88"/>
<polygon fill="#63b8ff" stroke="#63b8ff" points="336,-34.82 332.5,-24.82 329,-34.82 336,-34.82"/>
</a>
</g>
</g>
<!-- Node5 -->
<g id="Node000005" class="node">
<title>Node5</title>
<g id="a_Node000005"><a xlink:title=" ">
<polygon fill="#e0e0e0" stroke="#999999" points="517.5,-30 413.5,-30 413.5,0 517.5,0 517.5,-30"/>
<text text-anchor="start" x="421.5" y="-18" font-family="Helvetica,sans-Serif" font-size="10.00">ns3/point&#45;to&#45;point</text>
<text text-anchor="middle" x="465.5" y="-7" font-family="Helvetica,sans-Serif" font-size="10.00">&#45;module.h</text>
</a>
</g>
</g>
<!-- Node1&#45;&gt;Node5 -->
<g id="edge4_Node000001_Node000005" class="edge">
<title>Node1&#45;&gt;Node5</title>
<g id="a_edge4_Node000001_Node000005"><a xlink:title=" ">
<path fill="none" stroke="#63b8ff" d="M369.9,-65.96C388.57,-56.2 411.05,-44.46 429.51,-34.81"/>
<polygon fill="#63b8ff" stroke="#63b8ff" points="431.25,-37.85 438.49,-30.11 428.01,-31.64 431.25,-37.85"/>
</a>
</g>
</g>
<!-- Node6 -->
<g id="Node000006" class="node">
<title>Node6</title>
<g id="a_Node000006"><a xlink:title=" ">
<polygon fill="#e0e0e0" stroke="#999999" points="681.5,-24.5 535.5,-24.5 535.5,-5.5 681.5,-5.5 681.5,-24.5"/>
<text text-anchor="middle" x="608.5" y="-12.5" font-family="Helvetica,sans-Serif" font-size="10.00">ns3/applications&#45;module.h</text>
</a>
</g>
</g>
<!-- Node1&#45;&gt;Node6 -->
<g id="edge5_Node000001_Node000006" class="edge">
<title>Node1&#45;&gt;Node6</title>
<g id="a_edge5_Node000001_Node000006"><a xlink:title=" ">
<path fill="none" stroke="#63b8ff" d="M398.26,-68.94C449.84,-55.95 520.18,-38.24 564.98,-26.96"/>
<polygon fill="#63b8ff" stroke="#63b8ff" points="565.84,-30.35 574.69,-24.51 564.13,-23.56 565.84,-30.35"/>
</a>
</g>
</g>
</g>
</svg>
