<?xml version="1.0" encoding="UTF-8" standalone="no"?>
<!DOCTYPE svg PUBLIC "-//W3C//DTD SVG 1.1//EN"
 "http://www.w3.org/Graphics/SVG/1.1/DTD/svg11.dtd">
<!-- Generated by graphviz version 2.43.0 (0)
 -->
<!-- Title: examples/unauthorized&#45;access/unauthorized&#45;access&#45;mitigation.cc Pages: 1 -->
<svg width="809pt" height="115pt"
 viewBox="0.00 0.00 809.00 115.00" xmlns="http://www.w3.org/2000/svg" xmlns:xlink="http://www.w3.org/1999/xlink">
<g id="graph0" class="graph" transform="scale(1 1) rotate(0) translate(4 111)">
<title>examples/unauthorized&#45;access/unauthorized&#45;access&#45;mitigation.cc</title>
<!-- Node1 -->
<g id="Node000001" class="node">
<title>Node1</title>
<g id="a_Node000001"><a xlink:title="Secure simulation using Zero Trust architecture for IoT in ns&#45;3.">
<polygon fill="#999999" stroke="#666666" points="464,-107 333,-107 333,-66 464,-66 464,-107"/>
<text text-anchor="start" x="341" y="-95" font-family="Helvetica,sans-Serif" font-size="10.00">examples/unauthorized</text>
<text text-anchor="start" x="341" y="-84" font-family="Helvetica,sans-Serif" font-size="10.00">&#45;access/unauthorized</text>
<text text-anchor="middle" x="398.5" y="-73" font-family="Helvetica,sans-Serif" font-size="10.00">&#45;access&#45;mitigation.cc</text>
</a>
</g>
</g>
<!-- Node2 -->
<g id="Node000002" class="node">
<title>Node2</title>
<g id="a_Node000002"><a xlink:title=" ">
<polygon fill="#e0e0e0" stroke="#999999" points="107,-24.5 0,-24.5 0,-5.5 107,-5.5 107,-24.5"/>
<text text-anchor="middle" x="53.5" y="-12.5" font-family="Helvetica,sans-Serif" font-size="10.00">ns3/core&#45;module.h</text>
</a>
</g>
</g>
<!-- Node1&#45;&gt;Node2 -->
<g id="edge1_Node000001_Node000002" class="edge">
<title>Node1&#45;&gt;Node2</title>
<g id="a_edge1_Node000001_Node000002"><a xlink:title=" ">
<path fill="none" stroke="#63b8ff" d="M332.88,-73.05C275.67,-62.09 190.49,-45.5 116.5,-30 111.49,-28.95 106.26,-27.83 101.05,-26.7"/>
<polygon fill="#63b8ff" stroke="#63b8ff" points="101.63,-23.24 91.11,-24.52 100.13,-30.08 101.63,-23.24"/>
</a>
</g>
</g>
<!-- Node3 -->
<g id="Node000003" class="node">
<title>Node3</title>
<g id="a_Node000003"><a xlink:title=" ">
<polygon fill="#e0e0e0" stroke="#999999" points="251.5,-24.5 125.5,-24.5 125.5,-5.5 251.5,-5.5 251.5,-24.5"/>
<text text-anchor="middle" x="188.5" y="-12.5" font-family="Helvetica,sans-Serif" font-size="10.00">ns3/network&#45;module.h</text>
</a>
</g>
</g>
<!-- Node1&#45;&gt;Node3 -->
<g id="edge2_Node000001_Node000003" class="edge">
<title>Node1&#45;&gt;Node3</title>
<g id="a_edge2_Node000001_Node000003"><a xlink:title=" ">
<path fill="none" stroke="#63b8ff" d="M339.44,-65.96C302.23,-53.64 255.41,-38.15 223.87,-27.71"/>
<polygon fill="#63b8ff" stroke="#63b8ff" points="224.79,-24.32 214.19,-24.5 222.59,-30.97 224.79,-24.32"/>
</a>
</g>
</g>
<!-- Node4 -->
<g id="Node000004" class="node">
<title>Node4</title>
<g id="a_Node000004"><a xlink:title=" ">
<polygon fill="#e0e0e0" stroke="#999999" points="395,-24.5 270,-24.5 270,-5.5 395,-5.5 395,-24.5"/>
<text text-anchor="middle" x="332.5" y="-12.5" font-family="Helvetica,sans-Serif" font-size="10.00">ns3/internet&#45;module.h</text>
</a>
</g>
</g>
<!-- Node1&#45;&gt;Node4 -->
<g id="edge3_Node000001_Node000004" class="edge">
<title>Node1&#45;&gt;Node4</title>
<g id="a_edge3_Node000001_Node000004"><a xlink:title=" ">
<path fill="none" stroke="#63b8ff" d="M379.76,-65.77C369.66,-55.13 357.35,-42.16 347.82,-32.13"/>
<polygon fill="#63b8ff" stroke="#63b8ff" points="350.3,-29.66 340.88,-24.82 345.22,-34.48 350.3,-29.66"/>
</a>
</g>
</g>
<!-- Node5 -->
<g id="Node000005" class="node">
<title>Node5</title>
<g id="a_Node000005"><a xlink:title=" ">
<polygon fill="#e0e0e0" stroke="#999999" points="517.5,-30 413.5,-30 413.5,0 517.5,0 517.5,-30"/>
<text text-anchor="start" x="421.5" y="-18" font-family="Helvetica,sans-Serif" font-size="10.00">ns3/point&#45;to&#45;point</text>
<text text-anchor="middle" x="465.5" y="-7" font-family="Helvetica,sans-Serif" font-size="10.00">&#45;module.h</text>
</a>
</g>
</g>
<!-- Node1&#45;&gt;Node5 -->
<g id="edge4_Node000001_Node000005" class="edge">
<title>Node1&#45;&gt;Node5</title>
<g id="a_edge4_Node000001_Node000005"><a xlink:title=" ">
<path fill="none" stroke="#63b8ff" d="M417.52,-65.77C426.1,-56.87 436.26,-46.33 445.01,-37.25"/>
<polygon fill="#63b8ff" stroke="#63b8ff" points="447.55,-39.67 451.97,-30.04 442.51,-34.81 447.55,-39.67"/>
</a>
</g>
</g>
<!-- Node6 -->
<g id="Node000006" class="node">
<title>Node6</title>
<g id="a_Node000006"><a xlink:title=" ">
<polygon fill="#e0e0e0" stroke="#999999" points="681.5,-24.5 535.5,-24.5 535.5,-5.5 681.5,-5.5 681.5,-24.5"/>
<text text-anchor="middle" x="608.5" y="-12.5" font-family="Helvetica,sans-Serif" font-size="10.00">ns3/applications&#45;module.h</text>
</a>
</g>
</g>
<!-- Node1&#45;&gt;Node6 -->
<g id="edge5_Node000001_Node000006" class="edge">
<title>Node1&#45;&gt;Node6</title>
<g id="a_edge5_Node000001_Node000006"><a xlink:title=" ">
<path fill="none" stroke="#63b8ff" d="M457.56,-65.96C494.77,-53.64 541.59,-38.15 573.13,-27.71"/>
<polygon fill="#63b8ff" stroke="#63b8ff" points="574.41,-30.97 582.81,-24.5 572.21,-24.32 574.41,-30.97"/>
</a>
</g>
</g>
<!-- Node7 -->
<g id="Node000007" class="node">
<title>Node7</title>
<g id="a_Node000007"><a xlink:title=" ">
<polygon fill="#e0e0e0" stroke="#999999" points="801,-30 700,-30 700,0 801,0 801,-30"/>
<text text-anchor="start" x="708" y="-18" font-family="Helvetica,sans-Serif" font-size="10.00">ns3/zero&#45;trust&#45;iot</text>
<text text-anchor="middle" x="750.5" y="-7" font-family="Helvetica,sans-Serif" font-size="10.00">&#45;module.h</text>
</a>
</g>
</g>
<!-- Node1&#45;&gt;Node7 -->
<g id="edge6_Node000001_Node000007" class="edge">
<title>Node1&#45;&gt;Node7</title>
<g id="a_edge6_Node000001_Node000007"><a xlink:title=" ">
<path fill="none" stroke="#63b8ff" d="M464.18,-73.82C521.2,-63.49 606.23,-47.66 689.87,-30.08"/>
<polygon fill="#63b8ff" stroke="#63b8ff" points="690.73,-33.48 699.79,-27.99 689.29,-26.63 690.73,-33.48"/>
</a>
</g>
</g>
</g>
</svg>
