<?xml version="1.0" encoding="UTF-8" standalone="no"?>
<!DOCTYPE svg PUBLIC "-//W3C//DTD SVG 1.1//EN"
 "http://www.w3.org/Graphics/SVG/1.1/DTD/svg11.dtd">
<!-- Generated by graphviz version 2.43.0 (0)
 -->
<!-- Title: model/zt&#45;encryption&#45;utils.h Pages: 1 -->
<svg width="876pt" height="93pt"
 viewBox="0.00 0.00 875.50 93.00" xmlns="http://www.w3.org/2000/svg" xmlns:xlink="http://www.w3.org/1999/xlink">
<g id="graph0" class="graph" transform="scale(1 1) rotate(0) translate(4 89)">
<title>model/zt&#45;encryption&#45;utils.h</title>
<!-- Node1 -->
<g id="Node000001" class="node">
<title>Node1</title>
<g id="a_Node000001"><a xlink:title=" ">
<polygon fill="#999999" stroke="#666666" points="457.5,-85 342.5,-85 342.5,-55 457.5,-55 457.5,-85"/>
<text text-anchor="start" x="350.5" y="-73" font-family="Helvetica,sans-Serif" font-size="10.00">model/zt&#45;encryption</text>
<text text-anchor="middle" x="400" y="-62" font-family="Helvetica,sans-Serif" font-size="10.00">&#45;utils.h</text>
</a>
</g>
</g>
<!-- Node2 -->
<g id="Node000002" class="node">
<title>Node2</title>
<g id="a_Node000002"><a xlink:title=" ">
<polygon fill="#e0e0e0" stroke="#999999" points="44,-19 0,-19 0,0 44,0 44,-19"/>
<text text-anchor="middle" x="22" y="-7" font-family="Helvetica,sans-Serif" font-size="10.00">string</text>
</a>
</g>
</g>
<!-- Node1&#45;&gt;Node2 -->
<g id="edge1_Node000001_Node000002" class="edge">
<title>Node1&#45;&gt;Node2</title>
<g id="a_edge1_Node000001_Node000002"><a xlink:title=" ">
<path fill="none" stroke="#63b8ff" d="M342.21,-62.9C275.12,-55.33 161.02,-40.91 54.25,-19.03"/>
<polygon fill="#63b8ff" stroke="#63b8ff" points="54.77,-15.57 44.27,-16.96 53.35,-22.42 54.77,-15.57"/>
</a>
</g>
</g>
<!-- Node3 -->
<g id="Node000003" class="node">
<title>Node3</title>
<g id="a_Node000003"><a xlink:title=" ">
<polygon fill="#e0e0e0" stroke="#999999" points="151.5,-19 62.5,-19 62.5,0 151.5,0 151.5,-19"/>
<text text-anchor="middle" x="107" y="-7" font-family="Helvetica,sans-Serif" font-size="10.00">cryptopp/aes.h</text>
</a>
</g>
</g>
<!-- Node1&#45;&gt;Node3 -->
<g id="edge2_Node000001_Node000003" class="edge">
<title>Node1&#45;&gt;Node3</title>
<g id="a_edge2_Node000001_Node000003"><a xlink:title=" ">
<path fill="none" stroke="#63b8ff" d="M342.46,-57.51C289.34,-46.91 211.1,-31.28 159.61,-21"/>
<polygon fill="#63b8ff" stroke="#63b8ff" points="160.17,-17.55 149.68,-19.02 158.8,-24.41 160.17,-17.55"/>
</a>
</g>
</g>
<!-- Node4 -->
<g id="Node000004" class="node">
<title>Node4</title>
<g id="a_Node000004"><a xlink:title=" ">
<polygon fill="#e0e0e0" stroke="#999999" points="274,-19 170,-19 170,0 274,0 274,-19"/>
<text text-anchor="middle" x="222" y="-7" font-family="Helvetica,sans-Serif" font-size="10.00">cryptopp/modes.h</text>
</a>
</g>
</g>
<!-- Node1&#45;&gt;Node4 -->
<g id="edge3_Node000001_Node000004" class="edge">
<title>Node1&#45;&gt;Node4</title>
<g id="a_edge3_Node000001_Node000004"><a xlink:title=" ">
<path fill="none" stroke="#63b8ff" d="M357.36,-54.99C326.91,-44.98 286.41,-31.67 257.67,-22.22"/>
<polygon fill="#63b8ff" stroke="#63b8ff" points="258.62,-18.85 248.03,-19.05 256.43,-25.5 258.62,-18.85"/>
</a>
</g>
</g>
<!-- Node5 -->
<g id="Node000005" class="node">
<title>Node5</title>
<g id="a_Node000005"><a xlink:title=" ">
<polygon fill="#e0e0e0" stroke="#999999" points="391.5,-19 292.5,-19 292.5,0 391.5,0 391.5,-19"/>
<text text-anchor="middle" x="342" y="-7" font-family="Helvetica,sans-Serif" font-size="10.00">cryptopp/filters.h</text>
</a>
</g>
</g>
<!-- Node1&#45;&gt;Node5 -->
<g id="edge4_Node000001_Node000005" class="edge">
<title>Node1&#45;&gt;Node5</title>
<g id="a_edge4_Node000001_Node000005"><a xlink:title=" ">
<path fill="none" stroke="#63b8ff" d="M385.96,-54.84C377.45,-46.26 366.59,-35.3 357.78,-26.42"/>
<polygon fill="#63b8ff" stroke="#63b8ff" points="360.22,-23.9 350.69,-19.27 355.25,-28.83 360.22,-23.9"/>
</a>
</g>
</g>
<!-- Node6 -->
<g id="Node000006" class="node">
<title>Node6</title>
<g id="a_Node000006"><a xlink:title=" ">
<polygon fill="#e0e0e0" stroke="#999999" points="508,-19 410,-19 410,0 508,0 508,-19"/>
<text text-anchor="middle" x="459" y="-7" font-family="Helvetica,sans-Serif" font-size="10.00">cryptopp/osrng.h</text>
</a>
</g>
</g>
<!-- Node1&#45;&gt;Node6 -->
<g id="edge5_Node000001_Node000006" class="edge">
<title>Node1&#45;&gt;Node6</title>
<g id="a_edge5_Node000001_Node000006"><a xlink:title=" ">
<path fill="none" stroke="#63b8ff" d="M414.28,-54.84C422.93,-46.26 433.99,-35.3 442.94,-26.42"/>
<polygon fill="#63b8ff" stroke="#63b8ff" points="445.52,-28.79 450.16,-19.27 440.59,-23.82 445.52,-28.79"/>
</a>
</g>
</g>
<!-- Node7 -->
<g id="Node000007" class="node">
<title>Node7</title>
<g id="a_Node000007"><a xlink:title=" ">
<polygon fill="#e0e0e0" stroke="#999999" points="615.5,-19 526.5,-19 526.5,0 615.5,0 615.5,-19"/>
<text text-anchor="middle" x="571" y="-7" font-family="Helvetica,sans-Serif" font-size="10.00">cryptopp/hex.h</text>
</a>
</g>
</g>
<!-- Node1&#45;&gt;Node7 -->
<g id="edge6_Node000001_Node000007" class="edge">
<title>Node1&#45;&gt;Node7</title>
<g id="a_edge6_Node000001_Node000007"><a xlink:title=" ">
<path fill="none" stroke="#63b8ff" d="M440.96,-54.99C470,-45.05 508.55,-31.86 536.12,-22.43"/>
<polygon fill="#63b8ff" stroke="#63b8ff" points="537.42,-25.69 545.75,-19.14 535.15,-19.06 537.42,-25.69"/>
</a>
</g>
</g>
<!-- Node8 -->
<g id="Node000008" class="node">
<title>Node8</title>
<g id="a_Node000008"><a xlink:title=" ">
<polygon fill="#e0e0e0" stroke="#999999" points="748,-19 634,-19 634,0 748,0 748,-19"/>
<text text-anchor="middle" x="691" y="-7" font-family="Helvetica,sans-Serif" font-size="10.00">cryptopp/secblock.h</text>
</a>
</g>
</g>
<!-- Node1&#45;&gt;Node8 -->
<g id="edge7_Node000001_Node000008" class="edge">
<title>Node1&#45;&gt;Node8</title>
<g id="a_edge7_Node000001_Node000008"><a xlink:title=" ">
<path fill="none" stroke="#63b8ff" d="M457.84,-57.37C510.52,-46.78 587.64,-31.28 638.56,-21.04"/>
<polygon fill="#63b8ff" stroke="#63b8ff" points="639.26,-24.47 648.38,-19.07 637.88,-17.61 639.26,-24.47"/>
</a>
</g>
</g>
<!-- Node9 -->
<g id="Node000009" class="node">
<title>Node9</title>
<g id="a_Node000009"><a xlink:title=" ">
<polygon fill="#e0e0e0" stroke="#999999" points="867.5,-19 766.5,-19 766.5,0 867.5,0 867.5,-19"/>
<text text-anchor="middle" x="817" y="-7" font-family="Helvetica,sans-Serif" font-size="10.00">cryptopp/config.h</text>
</a>
</g>
</g>
<!-- Node1&#45;&gt;Node9 -->
<g id="edge8_Node000001_Node000009" class="edge">
<title>Node1&#45;&gt;Node9</title>
<g id="a_edge8_Node000001_Node000009"><a xlink:title=" ">
<path fill="none" stroke="#63b8ff" d="M457.51,-60.97C526,-51.41 644.16,-34.89 756.14,-19.12"/>
<polygon fill="#63b8ff" stroke="#63b8ff" points="756.85,-22.55 766.26,-17.69 755.87,-15.62 756.85,-22.55"/>
</a>
</g>
</g>
</g>
</svg>
